<mxfile host="65bd71144e">
    <diagram id="zDT2ZCiaHS7noZGdjW6H" name="Page-1">
        <mxGraphModel dx="956" dy="1117" grid="1" gridSize="10" guides="1" tooltips="1" connect="1" arrows="1" fold="1" page="1" pageScale="1" pageWidth="850" pageHeight="1100" math="0" shadow="0">
            <root>
                <mxCell id="0"/>
                <mxCell id="1" parent="0"/>
                <mxCell id="2" value="" style="shape=ext;double=1;rounded=0;whiteSpace=wrap;html=1;" vertex="1" parent="1">
                    <mxGeometry x="990" y="100" width="490" height="630" as="geometry"/>
                </mxCell>
                <mxCell id="16" value="Filter by weekgame" style="html=1;whiteSpace=wrap;container=1;recursiveResize=0;collapsible=0;" vertex="1" parent="1">
                    <mxGeometry x="1070" y="220" width="260" height="80" as="geometry"/>
                </mxCell>
                <mxCell id="17" value="" style="triangle;html=1;whiteSpace=wrap;" vertex="1" parent="16">
                    <mxGeometry x="20" y="20" width="20" height="30" as="geometry"/>
                </mxCell>
                <mxCell id="19" value="Day 1" style="text;strokeColor=none;fillColor=none;html=1;fontSize=24;fontStyle=1;verticalAlign=middle;align=center;" vertex="1" parent="1">
                    <mxGeometry x="1070" y="320" width="100" height="40" as="geometry"/>
                </mxCell>
                <mxCell id="18" value="&lt;ul&gt;&lt;li&gt;Value 1&lt;/li&gt;&lt;li&gt;Value 2&lt;/li&gt;&lt;li&gt;Value 3&lt;/li&gt;&lt;/ul&gt;" style="text;strokeColor=none;fillColor=none;html=1;whiteSpace=wrap;verticalAlign=middle;overflow=hidden;" vertex="1" parent="1">
                    <mxGeometry x="1060" y="370" width="100" height="80" as="geometry"/>
                </mxCell>
                <mxCell id="21" value="Day 2" style="text;strokeColor=none;fillColor=none;html=1;fontSize=24;fontStyle=1;verticalAlign=middle;align=center;" vertex="1" parent="1">
                    <mxGeometry x="1070" y="470" width="100" height="40" as="geometry"/>
                </mxCell>
                <mxCell id="22" value="&lt;ul&gt;&lt;li&gt;Value 1&lt;/li&gt;&lt;li&gt;Value 2&lt;/li&gt;&lt;li&gt;Value 3&lt;/li&gt;&lt;/ul&gt;" style="text;strokeColor=none;fillColor=none;html=1;whiteSpace=wrap;verticalAlign=middle;overflow=hidden;" vertex="1" parent="1">
                    <mxGeometry x="1060" y="520" width="100" height="80" as="geometry"/>
                </mxCell>
                <mxCell id="23" value="" style="shape=ext;double=1;rounded=0;whiteSpace=wrap;html=1;" vertex="1" parent="1">
                    <mxGeometry x="1520" y="100" width="930" height="770" as="geometry"/>
                </mxCell>
                <mxCell id="24" value="HEADER" style="html=1;whiteSpace=wrap;container=1;recursiveResize=0;collapsible=0;" vertex="1" parent="1">
                    <mxGeometry x="990" y="100" width="490" height="70" as="geometry"/>
                </mxCell>
                <mxCell id="26" value="FOOTER" style="html=1;whiteSpace=wrap;container=1;recursiveResize=0;collapsible=0;" vertex="1" parent="1">
                    <mxGeometry x="990" y="660" width="490" height="70" as="geometry"/>
                </mxCell>
                <mxCell id="28" value="FOOTER" style="html=1;whiteSpace=wrap;container=1;recursiveResize=0;collapsible=0;" vertex="1" parent="1">
                    <mxGeometry x="1520" y="800" width="930" height="70" as="geometry"/>
                </mxCell>
                <mxCell id="29" value="HEADER" style="html=1;whiteSpace=wrap;container=1;recursiveResize=0;collapsible=0;" vertex="1" parent="1">
                    <mxGeometry x="1520" y="100" width="930" height="70" as="geometry"/>
                </mxCell>
                <mxCell id="30" value="PREMIRE LEAGUE CLUBS" style="html=1;whiteSpace=wrap;container=1;recursiveResize=0;collapsible=0;" vertex="1" parent="1">
                    <mxGeometry x="1540" y="220" width="240" height="70" as="geometry"/>
                </mxCell>
                <mxCell id="33" value="" style="shape=image;verticalLabelPosition=bottom;labelBackgroundColor=default;verticalAlign=top;aspect=fixed;imageAspect=0;image=data:image/png,iVBORw0KGgoAAAANSUhEUgAABUAAAAHaCAYAAADBtOMNAAAMbmlDQ1BJQ0MgUHJvZmlsZQAASImVVwdYU8kWnluSkJDQAghICb0JIjWAlBBaAOlFEJWQBBJKjAlBxV4WFVy7iGJFV0UU2wqIKIhdWRR7XyyoKOuiLjZU3oQEdN1Xvne+b+79c+bMf8qdyb0HAM0PXIkkD9UCIF9cII0PC2KMTU1jkJ4BFJABDdCBF5cnk7BiY6MAlMH73+XdDYAo7ledFFz/nP+vosMXyHgAIOkQZ/JlvHyImwHAN/Ak0gIAiAq95ZQCiQLPgVhXCgOEeLUCZyvxLgXOVOLGAZvEeDbElwFQo3K50mwANO5BPaOQlw15ND5D7CLmi8QAaI6A2J8n5PIhVsQ+Ij9/kgKXQ2wH7SUQw3gAM/M7zuy/8WcO8XO52UNYmdeAqAWLZJI87rT/szT/W/Lz5IM+bOCgCqXh8Yr8YQ1v5U6KVGAqxN3izOgYRa0h/iDiK+sOAEoRysOTlPaoMU/GhvUD+hC78LnBkRAbQxwqzouOUukzs0ShHIjhbkGnigo4iRAbQLxIIAtJUNlskU6KV/lCa7OkbJZKf44rHfCr8PVAnpvEUvG/EQo4Kn5Mo0iYmAIxBWKrQlFyNMQaEDvLchMiVTaji4Ts6EEbqTxeEb8VxPECcViQkh8rzJKGxqvsS/Jlg/liW4QiTrQKHywQJoYr64Od4nEH4oe5YJcFYlbSII9ANjZqMBe+IDhEmTv2XCBOSlDxfJAUBMUr1+IUSV6syh63EOSFKfQWELvLChNUa/HkArg5lfx4lqQgNlEZJ16Uw42IVcaDLwdRgA2CAQPI4cgEk0AOELV113XDX8qZUMAFUpANBMBJpRlckTIwI4bXBFAE/oBIAGRD64IGZgWgEOq/DGmVVyeQNTBbOLAiFzyFOB9Egjz4Wz6wSjzkLRk8gRrRP7xz4eDBePPgUMz/e/2g9puGBTVRKo180CNDc9CSGEIMJoYTQ4n2uBHuj/viUfAaCIcrzsS9B/P4Zk94SmgnPCJcJ3QQbk8UzZP+EOUY0AH5Q1W1yPy+FrgN5PTAg3A/yA6ZcX3cCDjh7tAPCw+Anj2glq2KW1EVxg/cf8vgu6ehsiO7kFHyMHIg2e7HlRoOGh5DLIpaf18fZayZQ/VmD8386J/9XfX58B75oyW2CDuEncVOYOexRqwOMLAmrB5rxY4p8NDuejKwuwa9xQ/Ekwt5RP/wx1X5VFRS5lLt0uXyWTlXIJhaoDh47EmSaVJRtrCAwYJvBwGDI+Y5j2C4uri6AaB41yj/vt7GDbxDEP3Wb7r5vwPg19Tf33/0my6iCYADXvD4H/mms2MCoK0OwLkjPLm0UKnDFRcC/JfQhCfNEJgCS2AH83EFnsAXBIIQEAFiQCJIBRNglYVwn0vBFDADzAXFoBQsB2vAerAZbAO7wF5wENSBRnACnAEXwWVwHdyFu6cTvAQ94B3oQxCEhNAQOmKImCHWiCPiijARfyQEiULikVQkA8lGxIgcmYHMR0qRlch6ZCtShRxAjiAnkPNIO3IbeYh0IW+QTyiGUlFd1AS1QUeiTJSFRqKJ6Hg0G52MFqEL0KVoOVqJ7kFr0RPoRfQ62oG+RHsxgKlj+pg55oQxMTYWg6VhWZgUm4WVYGVYJVaDNcDnfBXrwLqxjzgRp+MM3Anu4HA8Cefhk/FZ+BJ8Pb4Lr8VP4Vfxh3gP/pVAIxgTHAk+BA5hLCGbMIVQTCgj7CAcJpyGZ6mT8I5IJOoTbYle8CymEnOI04lLiBuJ+4jNxHbiY2IviUQyJDmS/EgxJC6pgFRMWkfaQ2oiXSF1kj6oqauZqbmqhaqlqYnV5qmVqe1WO652Re2ZWh9Zi2xN9iHHkPnkaeRl5O3kBvIlcie5j6JNsaX4URIpOZS5lHJKDeU05R7lrbq6uoW6t3qcukh9jnq5+n71c+oP1T9SdagOVDY1nSqnLqXupDZTb1Pf0mg0G1ogLY1WQFtKq6KdpD2gfdCgazhrcDT4GrM1KjRqNa5ovNIka1prsjQnaBZplmke0ryk2a1F1rLRYmtxtWZpVWgd0bqp1atN1x6lHaOdr71Ee7f2ee3nOiQdG50QHb7OAp1tOid1HtMxuiWdTefR59O300/TO3WJura6HN0c3VLdvbptuj16Onruesl6U/Uq9I7pdehj+jb6HP08/WX6B/Vv6H8aZjKMNUwwbPGwmmFXhr03GG4QaCAwKDHYZ3Dd4JMhwzDEMNdwhWGd4X0j3MjBKM5oitEmo9NG3cN1h/sO5w0vGX5w+B1j1NjBON54uvE241bjXhNTkzATick6k5Mm3ab6poGmOaarTY+bdpnRzfzNRGarzZrMXjD0GCxGHqOccYrRY25sHm4uN99q3mbeZ2FrkWQxz2KfxX1LiiXTMstytWWLZY+VmdUYqxlW1VZ3rMnWTGuh9Vrrs9bvbWxtUmwW2tTZPLc1sOXYFtlW296zo9kF2E22q7S7Zk+0Z9rn2m+0v+yAOng4CB0qHC45oo6ejiLHjY7tIwgjvEeIR1SOuOlEdWI5FTpVOz101neOcp7nXOf8aqTVyLSRK0aeHfnVxcMlz2W7y91ROqMiRs0b1TDqjauDK8+1wvWaG80t1G22W73ba3dHd4H7JvdbHnSPMR4LPVo8vnh6eUo9azy7vKy8Mrw2eN1k6jJjmUuY57wJ3kHes70bvT/6ePoU+Bz0+dPXyTfXd7fv89G2owWjt49+7Gfhx/Xb6tfhz/DP8N/i3xFgHsANqAx4FGgZyA/cEfiMZc/KYe1hvQpyCZIGHQ56z/Zhz2Q3B2PBYcElwW0hOiFJIetDHoRahGaHVof2hHmETQ9rDieER4avCL/JMeHwOFWcngiviJkRpyKpkQmR6yMfRTlESaMaxqBjIsasGnMv2jpaHF0XA2I4Mati7sfaxk6OPRpHjIuNq4h7Gj8qfkb82QR6wsSE3QnvEoMSlyXeTbJLkie1JGsmpydXJb9PCU5ZmdIxduTYmWMvphqlilLr00hpyWk70nrHhYxbM64z3SO9OP3GeNvxU8efn2A0IW/CsYmaE7kTD2UQMlIydmd85sZwK7m9mZzMDZk9PDZvLe8lP5C/mt8l8BOsFDzL8stamfU82y97VXaXMEBYJuwWsUXrRa9zwnM257zPjcndmdufl5K3L18tPyP/iFhHnCs+Ncl00tRJ7RJHSbGkY7LP5DWTe6SR0h0yRDZeVl+gCz/qW+V28p/kDwv9CysKP0xJnnJoqvZU8dTWaQ7TFk97VhRa9Mt0fDpvessM8xlzZzycyZq5dRYyK3NWy2zL2Qtmd84Jm7NrLmVu7tzf5rnMWznvr/kp8xsWmCyYs+DxT2E/VRdrFEuLby70Xbh5Eb5ItKhtsdvidYu/lvBLLpS6lJaVfl7CW3Lh51E/l//cvzRradsyz2WblhOXi5ffWBGwYtdK7ZVFKx+vGrOqdjVjdcnqv9ZMXHO+zL1s81rKWvnajvKo8vp1VuuWr/u8Xrj+ekVQxb4NxhsWb3i/kb/xyqbATTWbTTaXbv60RbTl1tawrbWVNpVl24jbCrc93Z68/ewvzF+qdhjtKN3xZad4Z8eu+F2nqryqqnYb715WjVbLq7v2pO+5vDd4b32NU83Wffr7SveD/fL9Lw5kHLhxMPJgyyHmoZpfrX/dcJh+uKQWqZ1W21MnrOuoT61vPxJxpKXBt+HwUeejOxvNGyuO6R1bdpxyfMHx/qaipt5mSXP3iewTj1smttw9OfbktVNxp9pOR54+dyb0zMmzrLNN5/zONZ73OX/kAvNC3UXPi7WtHq2Hf/P47XCbZ1vtJa9L9Ze9Lze0j24/fiXgyomrwVfPXONcu3g9+nr7jaQbt26m3+y4xb/1/Hbe7dd3Cu/03Z1zj3Cv5L7W/bIHxg8qf7f/fV+HZ8exh8EPWx8lPLr7mPf45RPZk8+dC57SnpY9M3tW9dz1eWNXaNflF+NedL6UvOzrLv5D+48Nr+xe/fpn4J+tPWN7Ol9LX/e/WfLW8O3Ov9z/aumN7X3wLv9d3/uSD4Yfdn1kfjz7KeXTs74pn0mfy7/Yf2n4Gvn1Xn9+f7+EK+UOfApgcKBZWQC82QkALRUAOuzbKOOUveCAIMr+dQCB/4SV/eKAeAJQA7/f47rh181NAPZvh+0X5NeEvWosDYBEb4C6uQ0Nlciy3FyVXFTYpxAe9Pe/hT0baRUAX5b39/dV9vd/2QaDhb1js1jZgyqECHuGLZwvmfmZ4N+Isj/9Lscf70ARgTv48f4v/72QzSei110AAACWZVhJZk1NACoAAAAIAAUBEgADAAAAAQABAAABGgAFAAAAAQAAAEoBGwAFAAAAAQAAAFIBKAADAAAAAQACAACHaQAEAAAAAQAAAFoAAAAAAAAAkAAAAAEAAACQAAAAAQADkoYABwAAABIAAACEoAIABAAAAAEAAAVAoAMABAAAAAEAAAHaAAAAAEFTQ0lJAAAAU2NyZWVuc2hvdEHHw2kAAAAJcEhZcwAAFiUAABYlAUlSJPAAAALcaVRYdFhNTDpjb20uYWRvYmUueG1wAAAAAAA8eDp4bXBtZXRhIHhtbG5zOng9ImFkb2JlOm5zOm1ldGEvIiB4OnhtcHRrPSJYTVAgQ29yZSA2LjAuMCI+CiAgIDxyZGY6UkRGIHhtbG5zOnJkZj0iaHR0cDovL3d3dy53My5vcmcvMTk5OS8wMi8yMi1yZGYtc3ludGF4LW5zIyI+CiAgICAgIDxyZGY6RGVzY3JpcHRpb24gcmRmOmFib3V0PSIiCiAgICAgICAgICAgIHhtbG5zOmV4aWY9Imh0dHA6Ly9ucy5hZG9iZS5jb20vZXhpZi8xLjAvIgogICAgICAgICAgICB4bWxuczp0aWZmPSJodHRwOi8vbnMuYWRvYmUuY29tL3RpZmYvMS4wLyI+CiAgICAgICAgIDxleGlmOlVzZXJDb21tZW50PlNjcmVlbnNob3Q8L2V4aWY6VXNlckNvbW1lbnQ+CiAgICAgICAgIDxleGlmOlBpeGVsWERpbWVuc2lvbj4xMzQ0PC9leGlmOlBpeGVsWERpbWVuc2lvbj4KICAgICAgICAgPGV4aWY6UGl4ZWxZRGltZW5zaW9uPjQ3NDwvZXhpZjpQaXhlbFlEaW1lbnNpb24+CiAgICAgICAgIDx0aWZmOlJlc29sdXRpb25Vbml0PjI8L3RpZmY6UmVzb2x1dGlvblVuaXQ+CiAgICAgICAgIDx0aWZmOlhSZXNvbHV0aW9uPjE0NC8xPC90aWZmOlhSZXNvbHV0aW9uPgogICAgICAgICA8dGlmZjpZUmVzb2x1dGlvbj4xNDQvMTwvdGlmZjpZUmVzb2x1dGlvbj4KICAgICAgICAgPHRpZmY6T3JpZW50YXRpb24+MTwvdGlmZjpPcmllbnRhdGlvbj4KICAgICAgPC9yZGY6RGVzY3JpcHRpb24+CiAgIDwvcmRmOlJERj4KPC94OnhtcG1ldGE+CgoceiQAAEAASURBVHgB7N0HeFTFFsDxk15ICCH03ntvFqQK9qcgFpT3LKjYu9ix67OXZ++9oSIIKiIISFGRLiC9Q4AUkhDSy5sz4S67SypJTEL+832bvWVu+636jefOmfHJNUXKqWRnZcvpLUdK3J441xUat2goU9Z/JT4+Pq5t7gvndhot2zbscG2qVSdCpm+bIgGBATLv+wVyy4g7Xft0YUnmAtf6C3e+Ip+88LlrvfegnvLWzFdc6yVZ+OKVr+SZW18s8JBh5w2Vpz5/1O4v6rr/Pm6s/L10netcVz9whYybMNa1Hr1tj5zVZpRrXRcmLv9YWndu5dr25WvfyNM3P+9ab9S8oUzd+LVrfdn8FXLT2XdIyoEU17b8FqIaRMnXKz6RmrVr5rfbbos5Oe+5an94nfg1iXLVS5u2VA688L1rvTgLYdcMl5Dzj3dVzVyxTRJu+8i17r4Q0LWZRDxxkfiEBrpvPmI5Jz5Z4se+IbkHUl37Il+/UvzbNXStH/xwrqR89Ktr3a9+hNT+7CbXui7sv/JNydqyz7UtZERfCbvxNNd69p4EiR/zsl33CQmUOtPucu3TBX0OfR6nhIw6TsKuO8VZLfA7Y/FmSbzrU9f+wOPbSsTjo13ruuD8Bh4bC1nxjQqTqIm3FlLjyF3ONUrj7t+yntR68VLxCQs+8gKFbHGubauY/xbUfGCUBA3sWMgRnrvSZqyQA09959roExokEU+NkYBOjV3bClrISUyRxPGfSNamvYer+PtKzXtHStCgToe3FbB08N3ZkvLZ/AL2em72CQqQWv+7TPzbNPDcUchaTkySxF/2muSmZUpR/1yrf8Sz/xbfWjUKOWPerqx1uyXhzk8lNznNVdf7/K4dBS3k5ErSI19L+ry1eTV8faT2e9eKX9PD/53I79CMpVused1ZE/LbzTYEEEAAAQQQQAABBBBAAAEEylXAtzzPvmD67x7BT73W6RefWmDwU/efMeZU/XKVhNhE+XXa4SCna0c5L4y84mwZcGb/Aq8y97t5khiXWOD+f3pHz5O6yxs/vSQ1I8MLvbTe88Kffi+0TkXtzPxruySM/9gENg8HaPK7F9+aoRLYr3V+uyp0W+o3f+QFiIt4paCBWr9mdSr0Xt0vXhp3DSAn3veF5GZkuZ/SY1kDeoUW8w7mwBPfHg6quVc2lmk/LpPMldvdt4pkeyLnpqSboPInos9SWMnZf1ASb//YM/ipB2TlSNJjkyRtxsrCDrf7ggaZQK0JmBan5KZnSsItH0r6rL+KU10yV+2Q/Td9YIOfxTlA/RNu/Uhy4pILrZ65eqck3PGJR/AzvwOK+q0OvPiDx+8UPKxbkcHP7F3xcvC1Gfldjm0IIIAAAggggAACCCCAAAII/CMC/uV5lSkfTDvi9N4BTu8KGiB9/aF3PDbreU4+d7DHtvJeCQoJkue+/q+8fN8bsuDHhbJ13XbJycmxl23QrL6cNvoUs+4ZhCnveyrq/J37dpL3570pHz/3mcz4+hdXb1DtbVu/aT3pM7iXjLt/rDRu2aioU1XY/qy1u00A6H0JveB40xuv8+HeoIY6JyZRMpZvNT0750l29P4Ku8fCLqy9ZHNMz9GQkf0ksK8J0vodCpSZAJvec/qcNZIy8TfRgF1lKqVx16Cd9qgM/c9ACezdSuRQ524NpqV+t0RSv10kUZNuF5/Agv9zk5uZLUkPfSX+LepKQPfm4hsZJtm74yXz712SvSNOan9wnQdXzv4jA365KRmSePdnEnrJQAke1lV8ow6/DNDelOnz19pewRqQy7eYf58PPD1FstbslOAzenr0KNbjs7fFSuqUP/OCpCXoOJ+bmiFJT0yWwOkrJPjMXhJ0UnsTQPVz3YL2yMzauEcyFm2UlK/My4kS/ncle3usCbJ+YJ87aEBH8QkOcJ1bA6NpJviqvaH1PooqiRMmin/zOua3HCB+jU2vzkO/ZdaGaEn5fKGkz13jcYq0X1aZ4Hemfa6ADo3d/n3Nleyd5vdbuU2S35wpuQcr1z/vHg/BCgIIIIAAAggggAACCCCAwDEv4FOeKfDHkp6mlu/bHSP1GteT0LCQSv9oOrLB/n37JSE+SRo1byDBocVPUfZIT67IJzXBF03t9TE9PjWoqL3pqlQxwU8NwvkE+Imm00t2XgC90j9DKdw1yOlrhhvISUjxGKKgqGf2b1Vfgk/tJinfLJKcfYd7VmswL+ScvlJj3Mkepzjw7DTbM9Rjo9eKb0SoCaTWkBwTYNRhE0oaWPQJMs9SN8L+c5cTa3qxltX7DvPPhV+dcHPumva+bDC/rM5tUtJ9a4eJrxmSQHu75iSZITGO8tw67IO9R/PsGlwuTvEJD7bB65y9ifn++0oKfHEUqYMAAggggAACCCCAAAIIIFDWAgRAy1r0GDhfpQmAHgOWPELxBMLvOluCT+lug8Sa1p29M870JgySgJ4tbQDZ/SzaWzTu/BdKFGB1P57lihMgAFpx9lwZAQQQQAABBBBAAAEEEKjOAgXnpFZnFZ4dAQT+MQGdwCl4aJe865nekTphUGGTBqVN/pPg5z/263AhBBBAAAEEEEAAAQQQQAABBKq+QPFm8qj6z8kTIIBAJRXQFHf3MTELu82M3zdI8tuzCqvCPgQQQAABBBBAAAEEEEAAAQQQQMBDgB6gHhysIIDAPy2Q9v1S0bR2HQPUr2FkvpfXiYtSzQRBqdOWHPWYlvmemI0IIIAAAggggAACCCCAAAIIIHDMCxAAPeZ/Yh4QgcotkG0mzEn5+FdJ+eRX8WtUW/zMJEo6kZKPmSldJ/LR8UCztsZU7ofg7hBAAAEEEEAAAQQQQAABBBBAoNIKEACttD8NN4ZANRMws5VrT0/9UBBAAAEEEEAAAQQQQAABBBBAAIGyEij2LPAHDhyQpKQkSU9Pl9xcE6koZfHx8ZGgoCCpWbOmhIeHl/JsHI4AAggggAACCCCAAAIIIIAAAggggAACCBwpUKwAaGxsrKSkpEhYWJgNWmrwsrRFg6gaTE1OTpbQ0FCpU6dOaU/J8QgggAACCCCAAAIIIIAAAggggAACCCCAgIdAkQFQ7fm5f/9+iYqKkrIIfHpc3axoIDQuLk4iIyPpCeqNwzoCCCCAAAIIIIAAAggggAACCCCAAAIIlErAt6ijNe1de36WR/BTr63n1fPrdSgIIIAAAggggAACCCCAAAIIIIAAAggggEBZChQ5CZKmqdeqVct1zf9NzZSNe3JMz03tvZm32f07IjRb/ntpqKt+cRZ0LNCEhITiVKUOAggggAACCCCAAAIIIIAAAggggAACCCBQbIEie4Bqirp778+N0fkHP+VQMDThoK9s3J1R7BvQinr+sphYqUQXpTICCCCAAAIIIIAAAggggAACCCCAAAIIHPMCRQZAvQXce36679P4Z14M1EeWbspx38UyAggggAACCCCAAAIIIIAAAggggAACCCBQIQJFpsB739Whjp52s5P67l1n8YYsOblzkoSGBJpdeUd49/D09/eXwEDdT0EAAQQQQAABBBBAAAEEEEAAAQQQQAABBMpHoMQBUI1nugdBI2qIRIWLHEwTiY7Pu8mkVH9Z8vce6dc5Uvz88jqZagDUPQiakZFxRAA0KzOzfJ6SsyKAAAIIIIAAAggggAACCCCAAAIIIIBAtRQocQDUPfg5rLvI6T19JNtsDPATmbYkV2Ys0wCpj6zbEyTtGidJ7doRR8C6B0KP2MkGBBBAAAEEEEAAAQQQQAABBBBAAAEEEECgjARKHAB1un82qSNyZm8f+Xx+rvy+TqRplMjexMN3tTk2VFJSYyUwOVlq1KjhMZHS4VosIYAAAggggAACCCCAAAIIIIAAAggggAAC5SdQ4gCo0wO0XSORmCQT/Fwr0q+t+bTLu8kVW0XmrjIp8ZlBsi3GR2qEZsucRcukY+sWUj8qsvyehDMjgAACCCCAAAIIIIAAAggggAACCCCAAAJeAiUPgB6KgCalitQM8ZHgwFyJSxbZGC0yuIuPbNrjhEh95MfF8fLb4mWSkZ0lS1ZvlKDgIDuA6NDje0jHlk29boVVBBBAAAEEEEAAAQQQQAABBBBAAAEEEECgbAVKHAB1Lr9yq6bAi1x/hshvphdoA9O5M8icbekmE+M8FAPNCWolA7vmSIO6ETYF/tPvZ8v5pw2SxvVM/jwFAQQQQAABBBBAAAEEEEAAAQQQQAABBBAoZ4G8KdpLcBENbuonNV3kham5EmPG/RzW3aS6B4u8+mOu7D40E7xOdJSeEyI/LNwmK9dvkQ3bd0vdyAhpVCdSAvz9PGaEL8HlqYoAAggggAACCCCAAAIIIIAAAggggAACCBRboMQ9QJ0Ed71C/AGRD34xCybY6b7dmeVdZ4OPrN9TVq79WXxMqHXMv4bawGdmZqb4+5f40sV+KCoigAACCCCAAAIIIIAAAggggAACCCCAAAIqUOIeoDbSqdFO83F6g+Yf/MyrE50cKZlZOfaw2P1Jek0bBM3OzrbL/EEAAQQQQAABBBBAAAEEEEAAAQQQQAABBMpLoMTdMN2Dne43dbjX56Gthyqm54TK8V1OkDaNfGXqnN/szg5mAqScnBz3w/NdTklOlazMLAkx+fUBgQH51nE2Hkg4YAOy4RFhprepj7OZbwQQQAABBBBAAAEEKlQg9WCaZGZkSnBokGkD58qaxWulZYfmElm3VoXeFxdHAAEEEEAAAQSqi0CJe4D6SJar66cGPZ2PgtmYp/4xn0Nf9js+vYHUj4qUESefKFt27inQdt3yDbL5762SmpJm6/z4+c/y6gNvy99L1xd4jLPjnSc+snUTD/UydbbzjQACCCCAAAIIIIBAoQKm4bpvV4ysNoHJreu2S7oOdm+KtnP/nLPUforz8r6ga/zy7VzbTl2xcJUsn79Sfpo4S2aZbRQEEEAAAQQQQACBwgX2xyTI4rnLJCM9s8CK2zfulL8WrSlwv+4ocQ/QscP9ZNW2AnpvatTTlEVL98iBA5l5AVGzvsu86c7qHiRN6teRZg3r2cakrej1Z9K7U+2WgEB/OeX8k732sooAAggggAACCCCAQNkK5GTnyJQPfpC1yw+/cA8KDpRzrzxbmrZpLDO/mWMv2LN/N/H1LXHfgSNutnm7ptK0dWPp3KfDEfvYgAACCCCAAAIIVBcBzfjWwKWWJq0aS2DQ4czv2D1xkrT/gISGhcrcafNl85qtNpO835DeR/DkmpjjxNe/tdk29RrVMVnkIbJuxQYJq1lDOvZq76pf4gDoce2D5bjDx7tO5LEQmyrTZuyym2rX8pORZzeSwECd+V3sDfv4+Ih+vEvzds3M2/d95q17hseDa70NKzfJ9k07pVXHFjZlKDkxWf74ZYlJJQqW/qce5zrVnh17ZfGcZRIUEijturWV+k3quvaxgAACCCCAAAIIIICAu8C2DTts8FMb3R17tpf4mP22wd24ZUOZM2W+q+rsKfPE189Xeg/sIbWiImTj6s2yde122+Zs1amlrF22Xuo2rCPdju9sh3D626zv2b5XWpt9OdoIPlSysrKlYfMGtkOANvznTltg95w8cpD9XvnHaonZHSudTIM9xjT+dbnHiV1l97Y9tpdq136dJDwyXJbOWyGpB1Olffe2NqDqnJ9vBBBAAAEEEECgKgj4+fuJZn5roPO0C4dJz5O6uW578nvfS0x0rAw5e4B06NnOBDezpFWHFq797gs6DKa2vw4kJEvtepGyc/Nu+wK7kWlvlSoA6n6RgpZP7NtAvv95t2jwc+xok/5eN8TM+q4BT2385QU+nTFD3c9x8Y3n2QZj3N54E7isZ9OQnP3aONUUJH0jr2Mm6figi0wANKJ2TY8A6LfvTnMOkd9+/lMuvHakaGCVggACCCCAAAIIIICAt4CT7q6N8BYdmskpFwy1L+x1/Pk/5y51VdfUKy0acFyzZK3MnZoXuNRtC6b/YQOabbu1li79Ooq2RzVAqsU5zq6YP/qyXtuwGsjUwKkua3ECoPrSf/3KjVLX9GBwlpfMXS7OBKIrFv4lYWbMe20va1ny63IZc9MFpudEI7vOHwQQQAABBBBAoCoIaMfILqY9tPCnP2TVn2tcAdC9O2Ns8FMDm9qu2rx2mzRsVt/28NTn0qyd7Rt2SmSdWtK6S0upXTdSgkOCRNty8fv2y7IFK+3jJ5rAqg45pNcZOmJg0bPAa8X8gpWFYXZsFyWtmwfKpefXkajIQHMxkwKflWUbbtp4cxpwzjn0/E6PUP8Afxv8dPaV9FuDnedddY6079FWss0b9jlujdOSnov6CCCAAAIIIIAAAse2gJ2MyDSgdaIiTYV/+f63ZKkZp1PL6OtGuR5+9PWjZMzNF0itOhHy6/cL7XbNQhpx+VlS0/TIdIqOIarBz8CgQDlzzKky/LwhtkHu7D+a7/BaYXL6RcNtQz89LUMOJh00w0UNtUFPTeHXgCwFAQQQQAABBBCoagLdjutsb1l7bSbEJdrl1SYYqkUzwPWlr74Q1hfGMdFx9sWvvmjWF8AzJ82Rj577XLRtpOtaJ96MF6rzC2nR9pJu+3N23gvtIlPgg4KCJD09XYKDg+0JivvnmYfz0niKU1/PHxgYWJyqrmBsQUFZjeo2aFpPmpixlfSh9+7YZ9/il8WYTcW6QSohgAACCCCAAAIIVBmBINNj4NLxF9shlFb+vsqmYc2e/KtERNaUdt1bu55Dx+3UF/U7N+0SHWuqToMoGXhWf7tfh2bSRriWaJP2rkV7LGg6lhYNim74a5NdLvDPoUSp/Nq43U/sYtPg402vTx0CqnXnVjYVX4Os9n8YYvP+h6HAc7MDAQQQQAABBBCohAKRdWvZoXx2mPbV6j//lhNPOc6VDe4ER91vW3t+aulhxmbv1Kud6fiYYzPFnTpR9Wvb3p6/mLacLp82etihPHQpugdozZo1JTk52RV4dE5aVt/ayIuLiZO922Js+rs+9B+zFudly7tdRN+2a9FGnjY6nYFSdQwm9xJtxkfSsmvLbvtdo2ZomQxYb0/GHwQQQAABBBBAAIFjTmDnxl1ywvC+cv3DV4mmsWvZuXmXaTAfHrNeU6q0DRpmemNq0fGqdKwpLTo+p1PCTU8FLXv0JbzpnakzlsbtyUtXd+o438HBQRJixrPXomPd6/hWTgA10q2NG1Yz75x+/nl9F8IiathjNNVLS35BU7uDPwgggAACCCCAQCUX6HZ8F3uHq0wAdOv67ZJsem5q+8hpk7nfvk4iqanxy02a+8Q3Jtuhhdz365ju9RrnzQWkQ2g2a9PETGrZxFYpsgdoeHi47QEaFxcnYWFhoj1CnXR194uUdFkbatrzM2F/gmxcuVkWz1ouP376s21Y6rn0gd2Lpif5+fnZN+gv3v2apKWm291turZyrybTJ86U32f9KYnxSXa7psJTEEAAAQQQQAABBBDIT0Bfvn/99hQ7wVGN8BqivTm16CRIOumRjiulEyN9/MIXouOCXvvQFTbbSAOcbz76np1pVIOhTmlpxhHVXqW7t0bLyxPeskHQtJQ0Z7fnt4mvtu7SSlYtWiOfvfyVBAQEmIBphoSGh9qJkjwrs4YAAggggAACCBx7AjrJ0YyvfrHjd2rPTS2dTKBTY4DepW3X1nL5+H+b4YpWyF+/r7aTSXbu29G7ml0/eCDFpscHmvabBk19863ltbFOnToSGRkpqampsnfvXomOji71R8+TkpIitaNq23PrpEc6R5I+oEZotTure9Guq6PGnW3TjdLS0u109ieacZf6DentqqaB2S59OkpS/AE77lJ3M2OmpsRTEEAAAQQQQAABBBDIT0BnYtd2aE5OjunRecAENINl8NknSafeHWz10y4aZsf41J6cOr78vl2xcv41I6VF+2ZmXPsc0UmU3GcYDa8VLueNO8f2PkgxDW/tfaB1Cyqnm9SsLqbhrunsOmZ+4xYN5d9mUiNNt6cggAACCCCAAALHuoD22uzQM6/z4r5dMfZxnV6h3s+ugc8pH35vs18CgwPsbu9OmnUbRtnt2jHy9YfekS9e+yavnumJqSMOlUvJysws0Xl14FL/AL98o7zuJ9L0oIDAghuFOsmSAjDup7saywgggAACCCCAAAIFCWhwU9uioWEh+VbRfUEmSOmWFW+Hb/LXtPTDmfIexxbVZnWvrE1yvQcCn+4qLCOAAAIIIIBAdRDQYS4/fWmifVRNYb/i7v+4Hvubt7+T9Ss32skl9+2Osenv2sYKMW22AaefYMdFf+HOV22muGbq6FCZOrTmAjO7vL6o1iE1r7znEvGpTAFQ19OxgAACCCCAAAIIIIAAAggggAACCCCAAAIIeAloYFOHHCq0mO6eGRkZNstG6xEALVSLnQgggAACCCCAAAIIIIAAAggggAACCCBQlQWKNQZoVX5A7h0BBBBAAAEEEEAAAQQQQAABBBBAAAEEqq8AAdDq+9vz5AgggAACCCCAAAIIIIAAAggggAACCBzzAgRAj/mfmAdEAAEEEEAAAQQQQAABBBBAAAEEEECg+goQAK2+vz1PjgACCCCAAAIIIIAAAggggAACCCCAwDEvQAD0mP+JeUAEEEAAAQQQQAABBBBAAAEEEEAAAQSqrwAB0Or72/PkCCCAAAIIIIAAAggggAACCCCAAAIIHPMCBECP+Z+YB0QAAQQQQAABBBBAAAEEEEAAAQQQQKD6ChAArb6/PU+OAAIIIIAAAggggAACCCCAAAIIIIDAMS9AAPSY/4l5QAQQQAABBBBAAAEEEEAAAQQQQAABBKqvgH95Pvr+mMTyPD3nRgABBBBAAAEEEEAAAQQQQAABBBBAAAEEChXwyTWl0BrsRAABBBBAAAEEEEAAAQQQQAABBBBAAAEEqqgAKfBV9IfjthFAAAEEEEAAAQQQQAABBBBAAAEEEECgaAECoEUbUQMBBBBAAAEEEEAAAQQQQAABBBBAAAEEqqgAAdAq+sNx2wgggAACCCCAAAIIIIAAAggggAACCCBQtAAB0KKNqIEAAggggAACCCCAAAIIIIAAAggggAACVVSAAGgV/eG4bQQQQAABBBBAAAEEEEAAAQQQQAABBBAoWoAAaNFG1EAAAQQQQAABBBBAAAEEEEAAAQQQQACBKipAALSK/nDcNgIIIIAAAggggAACCCCAAAIIIIAAAggULUAAtGgjaiCAAAIIIIAAAggggAACCCCAAAIIIIBAFRUgAFpFfzhuGwEEEEAAAQQQQAABBBBAAAEEEEAAAQSKFiAAWrQRNRBAAAEEEEAAAQQQQAABBBBAAAEEEECgigr4V4X7jt6+0t7mnm1/2e/o7Xnf7vfesFlX12qD5l2lYbNurnUWEEAAAQQQQAABBBBAAAEEEEAAAQQQQKB6CvjkmlIZH90Jei6b95lkH0iSWqn+ErJpn73V1HVrJXxfqgS37yTb/4qz29Ib+El4hzaS3SbCrh+skSZNO59gl3sOGGO/+YMAAggggAACCCCAAAIIIIAAAggggAAC1Uug0gVANfCpQc8d0XEyvNswSRr/QIG/iHsAtKBKCTcOlWy//dKhUz+hZ2hBSmxHAAEEEEAAAQSqtsDBAylSIzy0aj8Ed48AAggggAACCCBQLgKVbgxQTXP/ZnGI/LCpm+R8Oa3UDz2szzly47u5Muev1FKfixMggAACCCCAAAIIIIAAAggggAACCCCAQNUSqHQBUB3fc8qCvLT25MWLSq25+dX3pX/vtrJqwy7bs7TUJ+QECCCAAAIIIIAAAggggAACCCCAAAIIIFBlBCpdADQxOa+n5p1XnmYR60/9SgKevveoQOu+fbUkh6ZK/15tXEHVozoRByGAAAIIIIAAAggggAACCCCAAAIIIIBAlRSoVLPA6/ifoZGtDeRGSV33tyR1qS31zVrtjj1l+/nDJHDwiaIp8jqW54Zv3pEu/zpfurbpIrsXL5RGfU60P8DqKR9L/bbdxS85R7KTc8WnYU3XD+MEV10bWEAAAQQQQAABBBBAAAEEEEAAAQQQQACBY1qgUvUA1eDmjuh4C3582/rSdtSVssekxDds1k1SIwPt9rAPpkvPk8ZI59Muk0gT/Ixds9Ju980Q17JuiOzXQ7LCfKRup+7SlfHwrVFx/sTtiRP9UBBAAAEEEEAAAQQQqI4C29Zvl/TU9Or46DwzAggggAACx6xApQqAqvKyrT4WW8f/bHPuFeI3ebZoz9BajdtI4MEsyR4xRPZtXG7raHBUS1ZNX8nJi49KZOPWUq9NNxs0jQisJ9lhhx8xLi3SnsseVE5/srOyJS0lTXJzc8vpCuV72tcefFveevS98r0IZ0cAAQQQQAABBBBwCTjtR21Den8y0sxb/lKULWu3ytiB18j2jTtKcZaKOVTb07u27Jb9MQn/6A1c3PdyWbNkrb3mT1/OlBvOvE1ysnP+0XvgYggggAACCCBQtgKVKgXeeTSdtEgDoPOG95DwfamyccViZ5fUMuvrTFBUt4e07yQbTIMoaE+2LG7wuavObvnStawL/Z963mO9PFcmXPaIaEPpqS8ek2GjhpTnpTg3AggggAACCCCAQAUKLJ67VPoM6mXvwH25pLf04bOfyqsT3sz3sNadWsrEFZ/ku684G318fMTP3098fQ93CijOcQXV+fGzGdKweQPp0b9bQVVKvV0Dwi/e9apM+WCaHEw6aM9Xu35tGXPTBTL6hvMlODTYbnv3vx/KWf85Xeo3qVfqaxZ0Aj8/X+tX0H62I4AAAggggEDVEKiUAVCHToOcWpxv7+26rsFP92+74vVn/6JlXlvKZzUhNlF++Xau9D/teJn0zhQCoOXDzFkRQAABBBBAAIEKFXjzkXddGTO9B/WU3gN72nVdHjdhrCsoWpKb7NirvTw98fEjDvH3L11zvUX75vL2L68ecd6j3TDtkx/t85VnAPTZ216SOd/9Kve/fpccP6yvpB5Mk99mLpIPnvpYhp03VJq0amxv/+3H3pe+Q3qXawBUr6cfCgIIIIAAAghUbYGyeRVcxgYLlmwo1hmD2nUsVr2le5KLVa+0laZ9/IO07NBc7vrf7fLn7CU2Zcf9nCkHUiQ2Os6mx+vYQqv/XOParSk+61dulG0bduSbYqMNv9WL/853PKLobXskIz1TsjKzZN2KDbL57635nkMvlpOTY6+zZ/tee21d37Fpp+s+WEAAAQQQQAABBBA4UkCDnuOG3SC9A/q7gp9aS4OfS37Ne9m+ZO4yuXrYjbae9ggtSQkMDpJGzRse8anXuK49jdOO1JW9O/bJuuXrPdp72mtS07Z3b4v2uKymbmtbz0nhds6jbU/v9qgemBSfZNucTuq9vuDXbZkZmfY8mqKfEJtgl/W88fv2e1yvsDarVtTzrFq0Rvbu3OdxnLOi9zVz0my54p5L5ZQLTpaatWtK/ab1ZMTlZ8m3f39hg5/Jicn2+lpXLfQ+9KPP5l52bY2WTas32/avbte6znN519P2s57Pu+g5ta3tFL2OPoN7URO9llOctrm2z/U38U7h1/8f0Ha9HkdBAAEEEEAAgX9GoHSvlMv4HnV29y5tU2XKgsOT8ARcebEk18tLc3EuFxXRVLalbJaVm5eI/9WNpGFUR2nd9ETZuWeFU8XjOyE+XoZ3jJeoYB87NqjHzjJcmfT2FBl94/nSuGUj2xie9M53cuPj17iuMHfqfPnouU+lVp1asnjOUgmLqCGz902Xia9/I++bN9q+JsVm384Y27B7btKT0qpjC9swuu8/D8n8H3+TyLq1JDEuUU42qfUPvXOf+Afk/XzXnnqznH7xKfLVG5PsG3IdtL1151by7NdPSNPWTVzX1zShT1743DQCc03ANEOamrfnNz91g9xyznj5M32eqx4LCCCAAAIIIIAAAocFNPCpwU2naC9PLVc/cIWzSTTgqeOoaz0bCJ17o7w58+Wj6g3qOqnbgrYjP395ok0/nzVpjgQGB0qQ+Tw/6Sn7gnz8BffaAJ4GIE8+d7A88cnDtq0Yaya3HNHhQvl551TRNPKC2qMaOL179AT5e9k6qRUVIUn7D8hld/7HTEi6x7QnG8uQEYPkkhOvsgFEDWB+/dZke3eagn7PK3cUq836wp2vyJT3p0poeKgNRh53cl95cfLT9lmcR9WU/RphoRK3N29iVGe7fus+LdO/+Fn0XPry/4HLHzFtaD+7/YG37pFTLxwmC6b/Lk/e8KzERMeadPkg8THp/w+8ebc8f8fL8sgHE8yEqt1tfe96AUGB8l/j5l7U650nPpBvVn0mGmRWyy+Wfihtu7ZxVdPf+6GrnrDGulHb5sPPH2ra+JPMMVnGJt223x95736566IJssC06/0D/SWkRoi93nGmlysFAQQQQAABBMpGYM6cOaKfhx56yOOElSoAqncWkLnT3mBYn36S3qON/JH8h4hbB87WnYfKhriVkp6eLC07DpDa9VqZt9e/yczfXpBWnQbJ5jVzPR7QWRneQSTVBELLq+ib/+gde+X0i061l9C31M+Nf1mufehKV6BSd2gvz5FXnC0PmwaQBjS1cfnMLS+axuuTMuDM/rJvV4zMnvKrbWhq/TvOv9c27j77830b1FxrGqVPXPeMPHTl4/LYhw9qFVvee/IjufOlW+314/bG2TqPXfOUvPnzy3b/x89/Jvp5+svHbUNcG4zfffi93HbuXYfOwBcCCCCAAAIIIICAt4Dt9am9PA8FQAsKaup+2xv0UD1Nhy9J0bEul80/8mV+u25tpEbNGvZU2muwbqM6MmnN51KnfpS8aQKut4680wQQg2TCm/fYwKf2OLxlxHj7YvyiGy/I9xa826Pai/Ma03O158Ae8tJ3z9o2qk4+dNfo+01P0w0m0DvWtkMXJM6S68+41bYlL7/rPx7nLqrNqj0xJ783Vb5e+al9Bs1a2mDaxRrI9S7/vu0ieerG52y7+bQLh0v/00+Q0LAQV7Xzrh4p+jm+xmATZH5Fuh3fxbVPDTUYfNN/r7O9RoNCgmTpr8vlztH3mY4ESUXWu/c/D+bbS9R1YDEXPvvfRJvCr4FQ9dY294iOF0rX4zrL5LVfSoTp2frqhLdkwuWPyrQNX+frUMxLUQ0BBBBAAAEEvAQefvhhmTt3rsyePdu1p9KlwEcFH06j8e752bHXWSa1JVZ6DLhY4vdutg8RZ751Nvjjho2T3VuWSYNmngOy63pI7bayKTbkiH0uhTJY0N6eOulReK0we7ahIwdLlkmP0bfG7kV7eV738FWi6UwBgQF2l4+vj2uAd91+4XWj7D5NS/pj5p9y98u320anVu7Qs71t0OlES86g8Lq914AeMuqqEbZxqL0+L7z+PNvY096gWj596UvbCOs3tI/taaqNTW04nn/NuXY/fxBAAAEEEEAAAQSOFNDenk6Ku+71TnF3UuO196d+3IsTNHXfVtCyztZ+26i7j/hoarZ7uer+y6VZm6a2F+Wld4wx7cEU26NR08V1siMNsA04o7/NNnI/zn3Zuz06d+o8CTG9Lh98614b/NS6mtH0yvcvmG6X7kfmv1ycNutukyKek50tKQfzxvhv372tncAovzOeN26EHbdUg56PXfuUDGt0pg3GOkM45XeMs017pp596Zky2rSFdbIk7TWqwegJb9ztkeJeUL17Xr7DlTLvnPNovvsN7W0ztDRjq1PvDjLknEG2o8M1D11lbcMiwuSS2y+WONNDd8u6bUdzCY5BAAEEEEAAgXwEBg8eLA8++KDtBTpkyBBXjUrVA7ShW/ByVURzqfPEeGl72akS2ChvoHP/kDBp1u54WT7vM2nbbZgkJ+yTsFr1bFp7/L7N0rRtP9Noa2kfrl1EX0n4aq7Ef7RQdtx2j7w570fpnzdJp+vhy2pB09J/MWMVderTUR664vDg9SGm0fbN25Pt23jnWpp2rulHTqkZGW56iV5l3/5qL87TLz5VzrnsTFtn+cKVtnH72gNvOdVd3zqTp6YfOSkzA8/q79qnCz1O7GYbb7GH0od0rCENfnoXHVj+y1e/9t7MOgIIIIAAAggggIAR0CCmDYIOXOYKcOq2q02Ke37FSY/Pb19h27r06yzvzX29sCom8ylS2vdo56qj69oj9IRTjnNt04UOPdvJjImzPLa5r3i3R5cvWCl9BveyL8nd69WqEyEd3K7nvs99uXht1n5y/PB+MqrzRfZaOnzTGabd63QIcD+fLuskS/rR8TbVW9vJF/W9TL5d/YUZTirCu7prffmCFXLHcze71p0FnSxJ289OKW49p35Jv71/k/bmN9HZ6nWIK6c0bN5A9P8FEmISnE18I4AAAggggEAxBDS9XXt5FlU0FV6DoNoTtFIFQPXGI2x6S4osPRggp5j18A9+cj1P9F3nmhSguhK9faW0rTXMLNcxQb5sGxQN2ptte4Wm7tsi/k8vlM2y0B7X+vrL5NWlG2XsUDGB0q6uc5XlwrRPppvAa6R54344/UbPP/hfA+zYP5pCpG/RtegYRN5FU4jOMSnzs0wQ9bsPvpfPzPhOHy98R0JrhNqG6FAz5pJ30W0tzIRLTokyaVDuRXsA2GIGcw82qT86qHt6WoZ7Fbuc37YjKrEBAQQQQAABBBCoxgJOT05Nf3fG+XR6hjr7dF3HBNUeoeVVakbWdI2D6bqGj0gtk05dkuLdHg0yKfRO1pD3eYrTVixOmzUwKECemfiEbDW9HTU4++bD78rkd6fK+/Pe9L6kx7oGSDVwqi/yT285Qn79fr7t4elRyW2loGfJzMjy6AFa3HpupzbteB/bNk9JzuvF6uzTdT+T5eVeakXVcl81v5v5/5wS/k4eJ2AFAQQQQAABBEolUOkCoD1Nevt9iYvk8bd/lHPNOKDJixfZB2xwzQ0SF5QoUfVbmQZEXu/P1JQEk/IdJdvX/y4Nt9aSeJ9tUi+zoQfIjuh4WbBku4y9o430HDDGY19ZrejkRxdce64dKN77nKv+/Fu8J0PyrqPr+gZf09E1LX10r0tl7rT5Mtyk1Ousmzruk44PerQlqkGUnVhp9pS55j5HeZxGU54oCCCAAAIIIIAAAvkLaFBTJzjSQKd+NNDZZ2Yvu82O8zlB7JiYGvh0D366T5CU/5krz1btafn6g2+LBvLcx9rUGc83r9nicaM1zARGSfsPj6WpO3ubsUOL22Zt0b65NdQ276lNz7aztOvknUWVNDOsk05C5HdowiOtr5MpHTDj6buXnuZZZn83T067SLtSHC5zp83zCIAWt97hM4jtQdq2S2uZ/8NC6X7C4Y4V86cvdHV2cK/PMgIIIIAAAgiUj4D2APWe5Mj9Sk4PUU2Hd8YB9XxV6V67gpY1DT40xUx8ZMpHfq3ttwY/l9bcJYFBoTbY2UwaSsOnv5WW/k2lweZwqTsjRTIa+MluEwCNiDo867kevKhFZzmnf5Q0a+jZQ9KeuAz+6EDr2jj81yVn5Hu2EWPPspMN6aRD+RVtyL064U07tpSm+Kz87S97Pk2R0VR5nX3z2dtesoPGH0hIFh2kXmei1BnfS1Kuf/RqO1vml699I3t37rNv3/W8syfPLclpqIsAAggggAACCFQ7gT6DerlmfNcgqAZEtTi9P70Dn0cT/ExLSZNNJtjo/dm5eVe5ew8+Z6Bpd0bKLeeMtxMxaTBTZyq/eviNZqbyYI/rDz57oMw1AUad1Eg/fy9dV6w2qz7H24+9Lzqmqc5Ur5lPmrGkWVTuJcNkLI0ddK2d8V7r6lBTOlv7I+OeMJlfuXKSmRDJKUPOHiCTzazy2rZdOm+5/dYJlBbPWSJPmkmU9P50GCgdkkpngHdlSJkTFFRPe6YWlJav19WxVqeYjK0pH0yzY3p+YYaSmj35VznbDGFFQQABBBBAAIGKF8gv+Kl3Vel6gOpN9TtusNwXmiqZAY3lQMd4WZrwo4gZGieq1SAzQHukxEfkSEMTFI2Ww2+f44LjpFNyN9n00Qd6Cltc6e9DPBtWzv6y+J70zhTbO1N7WeZXdObK5+/43xGTITl1Y83A5zpb54fPfmrfSrfr1tZOkjTYNOi03Pj4NVIrqqZ88crX8sT1z9i0J33jfMvTNzinKNa3NtZycnLk0xe/MAHVF00wOVB0/M935rwu/+43tljnoBICCCCAAAIIIFCdBZzeoGqgQVEtThD0aIKe9gSH/qxbvl4u6P5v9012uXWnljJxxSdHbC/LDdrrUyc8evKm5+wM6vvNmJSNWzQ0bdJxouODuhcNli76ZbFc2v8q0Ql+NIOpY6/2RbZZNUg585vZtpesTsapvU6fmfi4zYJyP78uDx05SD57aaLtBKDrOpO7jm//6R/vmc4Oh8f/vPiW0fLC+JflrNajpH7TenLLUzfYSUlfm/6SvHT3q3LJiVdJRnqGHcf0jRn/k3vHPKins6VlhxbiXk87K3Tu20leN/VuOXu8U+2Ib+2coD1ldQb3R676r+hkRmPNcFY68RIFAQQQQAABBCpeQHt9es8Ar3flY8aGzK342zvyDt77b16PSp3FvXl8iET515Y9b7xiK/reNlYW755rJz/SDTomaLf0fhL/5S8eJwo892x5IT5IHrq4drmlv3tcsBQr2hP04IEUOxB6QadJTky2s1lqY7M0JcVcRxuS7m/BS3M+jkUAAQQQQAABBCpaQNtRmp5NKZ2A/q9BcuJBCa8VVuiJtMeqvlDXGeW9S2FtVj1O/+/Du2ep9zl0XQON+2MTpGHT+vlexzlG27aaDu9dNLsqKzO7yGtpPW2L66zxJSkJsYmFTshUknNRFwEEEEAAAQTKV6DSBkCXzftUFizdICmhx8kpr9xyhEKYGR/Ur2Nb2bssWvz9AyR+0XKPOtr787bVB2XskFyb/l5e4396XJQVBBBAAAEEEEAAgQoRIABaIexcFAEEEEAAAQQQqBIClTYAqno/fHq3bI4NluD9UdLn27zen+6q/m27ye7Ve9032eXa/XrILyedbscS7d+rbaXv/XnEA7ABAQQQQAABBBBAoEQCBEBLxEVlBBBAAAEEEECgWgkcmbNSiR7/jDFPSqs6afJbYrxknnNRse9sUfPOBD+LrUVFBBBAAAEEEEAAAQQQQAABBBBAAAEEjl2BSh0AVXYNgo7qkyrzGzQRnQ2+qKLjfuZERQs9P4uSYj8CCCCAAAIIIIAAAggggAACCCCAAALHvkClD4DqT9BzwMUSkThJPs8NER37s6Ciwc9V9ZJtr1HG/CxIie0IIIAAAggggAACCCCAAAIIIIAAAghUH4EqEQBtaGaCP930BG0fsVFWn9o333T4jeePkXWR62zwU3uNUhBAAAEEEEAAAQQQQAABBBBAAAEEEEAAgUo9CVJ+P4/ODr92zSJpGO0ndVbtkLQaDaXW+YPk17/elZ4njWHCo/zQ2IYAAggggAACCBzjAkyCdIz/wDweAggggAACCCBQCoEqFwDVZ9Ug6LL5n0p73y6yvVa6RISF2DR57SlKQQABBBBAAAEEEKh+AgRAq99vzhMjgAACCCCAAALFFaiSAVDn4TQQ2qB5VyHw6YjwjQACCCCAAAIIVE8BAqDV83fnqRFAAAEEEEAAgeIIVOkAaHEekDoIIIAAAggggAACCCCAAAIIIIAAAgggUH0FqsQkSNX35+HJEUAAAQQQQAABBBBAAAEEEEAAAQQQQKA0AgRAS6PHsQgggAACCCCAAAIIIIAAAggggAACCCBQqQUIgFbqn4ebQwABBBBAAAEEEEAAAQQQQAABBBBAAIHSCBAALY0exyKAAAIIIIAAAggggAACCCCAAAIIIIBApRYgAFqpfx5uDgEEEEAAAQQQQAABBBBAAAEEEEAAAQRKI0AAtDR6HIsAAggggAACCCCAAAIIIIAAAggggAAClVqAAGil/nm4OQQQQAABBBBAAAEEEEAAAQQQQAABBBAojQAB0NLocSwCCCCAAAIIIIAAAggggAACCCCAAAIIVGoBAqCV+ufh5hBAAAEEEEAAAQQQQAABBBBAAAEEEECgNAIEQEujx7EIIIAAAggggAACCCCAAAIIIIAAAgggUKkFCIBW6p+Hm0MAAQQQQAABBBBAAAEEEEAAAQQQQACB0gj4l+bgoo49eCClqCrsRwABBBBAAAEEEEAAAQQQQAABBBBAAAEEyk3AJ9eUcjs7J0YAAQQQQAABBBBAAAEEEEAAAQQQQAABBCpQgBT4CsTn0ggggAACCCCAAAIIIIAAAggggAACCCBQvgIEQMvXl7MjgAACCCCAAAIIIIAAAggggAACCCCAQAUKEACtQHwujQACCCCAAAIIIIAAAggggAACCCCAAALlK0AAtHx9OTsCCCCAAAIIIIAAAggggAACCCCAAAIIVKAAAdAKxOfSCCCAAAIIIIAAAggggAACCCCAAAIIIFC+AgRAy9eXsyOAAAIIIIAAAggggAACCCCAAAIIIIBABQoQAK1AfC6NAAIIIIAAAggggAACCCCAAAIIIIAAAuUrQAC0fH05OwIIIIAAAggggAACCCCAAAIIIIAAAghUoAAB0ArE59IIIIAAAggggAACCCCAAAIIIIAAAgggUL4C/uV7+qM7e/T+9KM7sJCjGkYGFbKXXQgggAACCCCAAAIIIIAAAggggAACCCBwLApUygDonoQ0WbYlsUy9e7aMEP1QEEAAAQQQQAABBBBAAAEEEEAAAQQQQKD6CFT6FPitX3whyydMsL+I97KuJ6xaJXNGjrTfuq5Ftzn7nG12B38QQAABBBBAAAEEEEAAAQQQQAABBBBAoFoJVPoAaK0uXVw/SIvRo21wUzfodl139uu3s6wBU2dd61AQQAABBBBAAAEEjm2BgwdSju0H5OkQQAABBBBAAAEEjlqg0gdAtTen89GnbHHhhbZ3p/cT216fX37pESD1rsM6AggggAACCCCAAAIIIIAAAggggAACCFQvgUo5BqjzE2j6utODc6sJbvY41Bs0YfVqV29Pp672+HT267IGRPVbiy5Ly/5OVb4RQAABBBBAAAEEEEAAAQQQQAABBBBAoJoIVIkeoO6BTJv23rmzR3DTCXg6v1mPRx919RrVIKpzvLOfbwQQQAABBBBAAAEEEEAAAQQQQAABBBCoHgI+uaZUtkfVGeCLOwt8gxobZM/BtkU+ArPAF0lEBQQQQAABBBBAoMoK6BigNcJDq+z9c+MIIIAAAggggAAC5SdQqVPg9bE1cLknIV2i96d5KJzS/CXR4KcWDYDuTWkrK2LO8KjDStkLZGdly45NO6VZm6bi6+crcXvi7EWiGkSV/cU4IwIIIIAAAggggECBAu7tMO82WoEHVYIdOzfvksg6taRGzRqV4G64BQQQQAABBBCoDgKVPgVef4QGtYI8fovudX9wBT/tfhMI1W36qeiijc+0lDSphB1rXTQ52Tn2Hl0b8lnIycmro8/xwviX5eX73rC14vbGy6guF0tCbIJdf+3Bt+WtR9/L5wxsQgABBBBAAAEEEChKICMtQ7IyswqtlpGeKZkZmbJl7VYZO/Aa2b5xh63v3g7zbqMVesJCdmo71v1THm3aG864TRZM/72Qu2AXAggggAACCCBQtgKVPgDqnQ5fWKCzfmhej9CyJSrZ2SZc9oj0jzhZZk2aU7IDTe13//uh7N25r8THlfSA6B17ZUDkcFm1aE2Bh37z1mQ5p8MFosFSP38/8TcfCgIIIIAAAggggMBhgcVzl7pW3JddG4ux8MT1z8itI+8qsKa+XP9X21Hy7bvfiY+Pj22X+fqWXxN+UJ1TbVtW27PO55ITr5IFP/5W4D2yAwEEEEAAAQQQqOwC5dd6KqMnd9Lc9XS6XFiQU/c79fVbg6XuqfJldEsFniYhNlF++Xau9D/teJn0zpQC6xW04+3H3v9HAqCNWzSU44f3k28Lucdv3/lOzrnsLNvIvum/18m1D19V0G2zHQEEEEAAAQQQqFYCbz7yrvQO6C9XD7tRxg27QXTdWS5pIPS8q0fK7z8vkuhte/I1nPfDQklOPChnXHyqtGjfXN7+5VVp0qpxvnXLauPD794vk9d+aT9Pff6otOvWRm4Zcaf8OXtJWV2C8yCAAAIIIIAAAv+oQKUOgDoBTEfEGeuzsEmPdJ9znH5rILSw+s65y+J72sc/SMsOzeWu/91uG4i7tuzO97S7tkbLuhUbRFOetCQnJttxNTXFaO+OfXZZx9lMMYP5uxcd52nd8vW2V6b7dl2O37dfDiQk29R7PXbNkrWSnpruXc21Puqqc+SniTOPuIZW0GM3/LVJRl5xtq2v594fk5fy7jpBEQv6bKv/XCNJ+w/YmqkH02TfrpgijmI3AggggAACCCBQOQU0yKnBTg18ug//03tgT1ny6zJ700vmLitxILRLv07SpksrmfLBtHwfXHt+nnbhMAmLCLNtQG3naYZOSYq2PTet3iw6xJEWbW867dD8zlO3cR1p2rqJ/Qw4s7/c/8Zd0vOk7vLla994VNfzrV+5UfZs32u367ren1Oc9qmm7/+9dJ1s25CXuu/sd//WunpseaTcu1+HZQQQQAABBBCongKVfhIk/Vk0kOlMcKSTHWnRb93uXjTQqQFP916i/1TwU+9j0ttTZPSN50vjlo1EG8OTTC/KGx+/xnWLS+ctl6dvfkHi9sZJSnKqBAT6y/2v3yUJcYnywp2v2PGfHrj8ETO5UF66+QNv3SOnmgavHvfouCdl55ZdEhoWahuGZ445Tca/eIs4KVCvTnjTNoa1Ebrhr43iZyYoCjF1H31/gvQ//QTXPTgLA886ScJrhcv0L3+Wc688x9lsvye/O1VOOPU4adi8gV3Xc2sK/D2vjveol9+KNqYfGPuozP1unh3YPjE+SQaahnOfwb1k7tT58saM/+V3GNsQQAABBBBAAIFKK6CBTw1uOmXchLF28eoHrnA2ifb81MCo1rOB0Lk3ypszX5Y+g3q56hS0MMr0An3PDIU07v6xdpJJp54OjbTwp9/lg/lv2U2x5mX4iA4Xys87p0rt+rWdagV+6zibT97wrMREx0pwaJD4mNT5B968W56/42V55IMJNqhZ4MFeO7QtN+/7Ba6tOnTTJy98boKquZKRniFNTa/Um5+6QW45Z7z8mT7P1tM2ZNL+JBv8jNkda7Oknp/0lOsczsLqxX/LNafcJFfcfYlcdud/nM18I4AAAggggAACJRaYM2eO6Oehhx7yOLZS9wDVoKfTo/OSTjfYgKcT0PQOfupTaVDUCX46x87YdrPHA5fXir7517E1T7/oVHuJEZefJd99+L3HoPbP3vqiTT2fYRqtP++aJnc8f4t06NVeNPVpQeIsExANMA3lV+yyrmvw868/VsvNZ98hZ192psze+6PMiZlug4gLflwoj1z1X4/H0ev16N9Npm38Rn7aMVXO+vdpcr8Zk1R7hnoXncH9HHOPmuruXrSn5o9fzJDzxo1031zs5fEX3ifb1++QL5Z9LDN3fy+zzCeidoRtaBf7JFREAAEEEEAAAQQqiYDt9WlebDtFg5oa+HQPfuo+DXrqC3Cn9B50eNnZVtD3GRedYtprB2yw073OVNO2a9etrXTu09F9c7GWl81fIeMvuFfG3Drath9n75suz058Qh679imJ3p5/un1hJ57+xc/SqlNLW+Xj5z8T/Tz1xWO2fTo35ie54LpRctu5R45lqsNDXXrHGNHra33voj1TbzjzNrn4xgsIfnrjsI4AAggggAACRyXw8MMPy5AhQzyOrdQBUGc8TyeYqUFPJxDq8RSHVpzeoStjz7A9Rv+p4KdeXnt7Dhs1xPSqDLN3M3TkYMky6T7a69EpGnTUWTU1bSk0LETO+s/pRY7h9PWb38opFwyTy+/6j0190sHvO/XuIC9//7xM/egHm/runD+kRrDc/OT1Uq9xXakZGS5X3HOpTa9ftWi1U8XjW1Pc15qUek3Hd8rPX8+ScJNidVI+vUadOgV964yW4xP/AABAAElEQVSkC01Pg5enPSfN2za11WrWrikT3rpb2nZtXdBhbEcAAQQQQAABBCqtgPb2dFLc9Sa9x/p0UuO196d7arzWde81qusFldDwUDlt9Cl2oiOnjqaTT3n/exk1zjNTx9lf1PfXZkLLsy89U0Zff57p/RlsJ1DSoOyEN+4uMs180azF8sOnP9nPaw+8JRf0+I/tRXrlfZfZy3760pc2i6nf0D62x2pgcKB9oX/+NececVutTdBUt2vbV1/2uxdNeb/2tFvkX6ZNzHjz7jIsI4AAAggggMDRCgwePFgefPBB2wvUPQhaqVPgtbfnnoN5PTjzgqF5Y3rmh5BXNy89XnuBOj1F86tb1tsSTQr7L5NmSyfzdv6hKx53nT7ENPS+eXuynHzuYLvthseukXvGPCCzvp1jxnIaLiPGniWtO7dy1c9vQRvctz1z0xG7mrdrJjqZkabHa+BVy3HD+klg0OGGZURUhLQ0g+Vr2lN+pX6TejbQqb1A7375dltFlzUwqsHakpblC1ba54lqEOVxqAZt+53cV9YuW+exnRUEEEAAAQQQQKCyC2gQ0wZBBy5zBTidFPf87t1Jj89vX2HbNNCps61rqnjdRnVEg5AJ8Yk2MFrYcQXtW75ghdzx3JGZUH2H9HYNoVTQsT9/NUvmH5r1PcK8zO5r0t8vuX2M1G9aT3Q80djoONHgp3c5flhf+fLVrz02dz+xm8e6s6I9SLWNeoKZmPO2Z49s6zr1+EYAAQQQQAABBLwFNL1de3kWVTQVXoOgs2fPlpJHuYo6eznt14Cm9uwsqjiBT6f3aFH1y2L/tE+mS2TdSOl6XBepVaeW6zP4XwNs49WZDElnXp++bYrc9dJtNvVoTL+xHmMp5XcvwSHBBU5mlGbG2wwxb/SdUiefsaD8zNidhQ0mr6nuP34+w/ZM3bRmi+gYTJoafzQlKDiowHvNSCt4QqajuRbHIIAAAggggAAC/5SA05NT09+d1HYNdDrLeh82SJq54KhvqUPP9tKhRzs7hJKeRCc/0tR47Tl5NKWgdllmRlahbUO91n1m0qMvl31kP2/NesWMO3+rDX7qvmDT21PblumHJvPUbU7Jb5uvr4+z2+O7bdc20rlvJ1mx8C8b9PXYyQoCCCCAAAIIIFDGApU+AKqBTE19188pzV+yj+8EOd0ttJ4T9NSU+W51Cu4t6n5cWSzr5EcXXHuu3PLU9R6fO02gU3uFanq8U4JCgmyPzWe/esL2tNQ0dqdo+tOBQ7OmO9t6D+whM03vUu+ivS33x+y3Y3567yvJuk52pGn7P3/9i+jkRzrTp6bQH03R8Uc1DV7HcnIvOjHSbzMWuW9iGQEEEEAAAQQQqBICOtanE+h09QY1gU7dpkFPDYouORT41HR4p+Q3Tqizr6Dvc8eNkCnvTZX4vfEyx0woqZMjHW3padpls805vMvcafOKDIB6H+O+rpk+TcyER7OnzHXfbJfnTj3yekdUOrRBOwY8bcYEbde9jVw9/EaJMxM8URBAAAEEEEAAgeIIaA9QfSFb0EdT4LVoOrz2/tRS6QOgms7uBEB1TM+P1rwi+q1BzsJKcXqLFnZ8cffpAPM6ftG/Lsn/fjTN3ZkM6QuTEjTzm9m2t6UGClcsXCn1m9R3XWrI2QNk8vtTRWf81NR2/f73bRfJ6j/X2AmPdKxObRDrIPS3jrzTzhRao2YN1/FHs6CzyGvK+1evT5Jpn/woo646unGm9NqaUn/BtaPk+jNutY12HRpg1aI1crOZDTR2T/5p+EdzzxyDAAIIIIAAAgj8kwI6k7sz6ZEGQXXGdy2unqGlDHw6z3KamQAz0bwMf9AMqdShZzszAVIbZ1eJv7UNuXjOEnnyxufsy2lNW9ehmXQGeM0QKk25/tGr5YU7X5EvX/vGtle3rtsmz972ksyefGRQtLDr6H088cnD0rxdUxMEvcm2cwurzz4EEEAAAQQQQKAoASc93j34qcdU+gCoM7GRMxGS9vLUnqAaFPUuznato4FTZ0Z473pluT7pnSm216T3uJfONXSsz9TkFBsQ3PjXJjNG6GMyIHK4XGcGfNcek9c+dKVTVS6+ZbToLOxntR4lD1z+qJ0BvmnrJqKpR/Gmt+e4k2+QU5udIx8+84ntcXDV/Ze7ji3Ngs5Yr5MhhZtgqr6NL02586Vb7YD7L5pG8dAGZ5jg5x3S3qRz3fVS3hijpTk3xyKAAAIIIIAAAhUp4N4bVIOi2gvUCYIeTY9P72fRyYrOuPhUOxv8eaXo/annbdmhhbw2/SWbnaNji57ecoTN9nljxv/MOPKNvC9dovVTLjhZHnz7XplmMpnOajNKdFin6G3R8s6c10t0Hq3sH+BvZod/XBo2byDXnHKTyXBKKPE5OAABBBBAAAEEEHAENPDpHfzUfT6mu2iuU6myfC/bkij6cS9OUNM78Knp8O6p7xow1cCnfrunyvdsGSH6qeii3IlxSWac0ILvJeVAimg6vHfR2UBTk1OltL0+vc9bXutJpgeDzkZPQQABBBBAAAEEylvgoGk/1cin/VTe160K58/MyJSszGwJqXF47Piyum9tt+oQT6XtVVpW98N5EEAAAQQQQACB/AQqfQ9Q56Y1mOn0AnW26boT/NRtGvjUet7BT6d+ZfjWGdELC37qPeYX/NTtmq5eVYKfer8EP1WBggACCCCAAAIIVKxAQGBAuQQ/9am03Urws2J/X66OAAIIIIAAAkULVIkAqHuvT/exPZ30eOcxNRiqafA6ARIFAQQQQAABBBBAAAEEEEAAAQQQQAABBBDwr4wEDWppek5eCrwGNZ1JkNxT2vW+nR6fWkf36bezXBmfi3tCAAEEEEAAAQQQQAABBBBAAAEEEEAAgX9WoFIGQAsi0OCmFifN3Xsm+Es63WD3e/cM1Y2VYfxPe3P8QQABBBBAAAEEEEAAAQQQQAABBBBAAIF/TKBSBkAbRgbZgKVOhKTBTg10FjSup5Me78z4rnW9A6MEP/+xf564EAIIIIAAAggggAACCCCAAAIIIIAAApVKoFLOAu8I5TcbvLNPv7VHqI756ZQZ2262AVNnXVPpNfipAVUKAggggAACCCCAwLErwCzwx+5vy5MhgAACCCCAAAKlFajUAVDn4TQQqsX5drbrtxMA1cmRnDFCCXy6C7GMAAIIIIAAAggc+wIEQI/935gnRAABBBBAAAEEjlagSgRA3R/OCYI637ovb9KkvHE+6e3prsUyAggggAACCCBQPQQIgFaP35mnRAABBBBAAAEEjkagygVA3R/SCYIyxqe7CssIIIAAAggggED1EyAAWv1+c54YAQQQQAABBBAorkCVDoAW9yGphwACCCCAAAIIIIAAAggggAACCCCAAALVU8C3ej42T40AAggggAACCCCAAAIIIIAAAggggAAC1UGAAGh1+JV5RgQQQAABBBBAAAEEEEAAAQQQQAABBKqpAAHQavrD89gIIIAAAggggAACCCCAAAIIIIAAAghUBwECoNXhV+YZEUAAAQQQQAABBBBAAAEEEEAAAQQQqKYCBECr6Q/PYyOAAAIIIIAAAggggAACCCCAAAIIIFAdBAiAVodfmWdEAAEEEEAAAQQQQAABBBBAAAEEEECgmgoQAK2mPzyPjQACCCCAAAIIIIAAAggggAACCCCAQHUQIABaHX5lnhEBBBBAAAEEEEAAAQQQQAABBBBAAIFqKkAAtJr+8Dw2AggggAACCCCAAAIIIIAAAggggAAC1UGAAGh1+JV5RgQQQAABBBBAAAEEEEAAAQQQQAABBKqpAAHQavrD89gIIIAAAggggAACCCCAAAIIIIAAAghUBwH/8nzIgwdSyvP0nBsBBBBAAAEEEEAAAQQQQAABBBBAAAEEEChUwCfXlEJrsBMBBBBAAAEEEEAAAQQQQAABBBBAAAEEEKiiAqTAV9EfjttGAAEEEEAAAQQQQAABBBBAAAEEEEAAgaIFCIAWbUQNBBBAAAEEEEAAAQQQQAABBBBAAAEEEKiiAgRAq+gPx20jgAACCCCAAAIIIIAAAggggAACCCCAQNECBECLNqIGAggggAACCCCAAAIIIIAAAggggAACCFRRAQKgVfSH47YRQAABBBBAAAEEEEAAAQQQQAABBBBAoGgBAqBFG1EDAQQQQAABBBBAAAEEEEAAAQQQQAABBKqoAAHQKvrDcdsIIIAAAggggAACCCCAAAIIIIAAAgggULQAAdCijaiBAAIIIIAAAggggAACCCCAAAIIIIAAAlVUgABoFf3huG0EEEAAAQQQQAABBBBAAAEEEEAAAQQQKFrAv+gqFVsjNydHUuPi5GDMPklPSJDUxCTJTEqUjMREyfXRe8sVn1yRgJBQCYqsJcHhNSXYfIdE1ZXgunXFLzCwYh+AqyOAAAIIIIAAAggggAACCCCAAAIIIIBAhQn45JpSYVcv5MKp8fGydtLXsu67byW4URNpNnS4hLVpKwF16kiWCYD6+PhIzsGDIv4BkhscJNnJySLmOycjQ9K275D4ebMlbf06aTJwsLQ9f7SEt2pVyNXYhQACCCCAAAIIIIAAAggggAACCCCAAALHokClCoCmm16dm2fPlM0zfpJ0E8hscEJ/qd+suYR26CQJP0wTn9AakjT5awnq2kMCmjWR9L/Xil/9uhJ20SUSe/vNEnLWOZKTnCS56elm+WxJ+3WuJCclSPL6tRJstjUaNEQan3yKhDZqdCz+ljwTAggggAACCCCAAAIIIIAAAggggAACCHgJVJoxQNd/P03e6NNVlr7zlvS5Z4J07NxFGrVoKQdnzpDEb7+RA6YnaPr6v8UnJFyy9+6U7JR0kewsyVi7VlKnfScBLVtIkDnGJy1Naoy+SDJWrZJsUz+yV1+JzMiSerfdKVvnzJHppw6S9W+94cXAKgIIIIAAAggggEBVFjh4IKUq3z73jgACCCCAAAIIIFCOApWiB2iWCVq+27+vZJi09wFPPy+Njj9R4j7/1Ka656QelBp9j5dsk+4eesKJkrU/QXxNGrwEh0i2GRNUzBifOSkpptdnqhkINEByTEa/b90GkjZvjvh17CQpH74rYeOuk8xdOyTTQO64/Sbx8fOXoZN/kLDWrcuRllMjgAACCCCAAAII/FMCGgCtER76T12O6yCAAAIIIIAAAghUIYFKMQnS5p9nSJqZ6Ehyc6Rh777iFxJiA5r+taMk8qJbxM5yZAKbuWbcTz+zLSfHLOvQpbVrm0NyTK/QYEndFS0h9eqbfTlmX7YEnzRAsrNzJGTk+XLglf9J2C23iZ+/n/iH1BDJSJctn38kXe9/uAr9VNwqAggggAACCCCAAAIIIIAAAggggAACCJRUoFIEQFd//YUE+PlJWIs2Empmbs/Kzpb6194kuWZbdlaWDXKKmEDnoafz9TUTIGXlyMFlyyTVBEM///o7yfKvJeOfHi/pB036kwmU5prtppr4NG8uNe++V3LSM8y6r4QPHioHZ/wosQvnS3Zqqg22lhSN+ggggAACCCCAAAIIIIAAAggggAACCCBQNQQqfAzQ9KQk2b9hnen9mSsth50mOiW9Bjp9TW9Nk58vGuz09TW3aYKXWmwQND1NYhcslNVmEvjf/lghv2SEyb7UdFk8Z7GkmfQnrenv52uP89EjTEBVzHpuVrbUPHm4vVaWuW56TIw9J38QQAABBBBAAAEEEEAAAQQQQAABBBBA4NgUqPAAaGpsjBnDM81muTc6/gTJMWnrWmwQ1AQ//Xz9ZNvmjbIvJtbEQE1Q1ARDk9ZtkLBmTSW8Zk2Zv3aL+JngaNdGdaRD93biHxws6ZlZMnfVNrNdg6caAjXBULOsQdCgZi3Mt7/kpGVIWnysvVZ1+bNz8y45mGSixhQEEEAAAQQQQACBY14g27z837pum6t9/U89sPd14/bEiX4oCCCAAAIIIIBARQlUeAA0/cABkaxMG6is1aqV6fp5+JY0CBoYFCiTX3xQ/vrqRZsEn7F3n6St3ySx60zgM7yG1GvZSrqGB0qv3l0l1AREg0OCZP22feKbmSKrN+3KC4BqENQESTUI6lczXHzNGKM+WRmSlZhYJu7ayEszQVzn4wRxy+TkZXiSG864TRZM/70Mz8ipEEAAAQQQQAABBMpaQMe6j962x45tX5pzx+2Nl1FdLpaEWDNx6D9YvK/72oNvy1uPvvcP3gGXQgABBBBAAAEEPAUqfAzQrFQzg3tmtkl5D5BgM7u7TnCUY3p6mgVJy8yUAJMKP+qGO6RhsI8JhgZItglihiQnSHD8PmlUu4Z0PmegLAhpKLG7tkmu6dGZa4KgPds2kswNOyU5qpHtWWrHDNXc+hxfMwO8nxn3M1h0dvm0PdGeGke59uGzn8qrE950HR0aFiL9Tz9BTrtwuAw290dBAAEEEEAAAQQQOPYEFs9dKn0G9bIP5r58tE86d+p8mfrRD7J03nJJjEuUmpHh0vOk7nLGxafKsPOGHu1pOQ4BBBBAAAEEEKj2AhUeAM0xvSc12OlfI9SM2+knWaafp66byKf8tfQvicupIUGh9WXGzgzpKjHSr2ldOVCvsaSaIOj+hCzxi90i9f32Snh9Mzt8WJQkJR+Q33cdlPSs1pK8JU3+1SlUQoP8be/PXNO51Mek2GsA1MZDzcRIZVU69movT0983J4ubk+8/Dptvtx+3j3ywrdPy8Cz+pfVZTgPAggggAACCCCAQAULvPnIu64ejb0H9ZTeA3vadV0eN2GsKyhaktuc9vGP8tg1T8nFN10gF143Sjr0bC/rV26QRbMWy4TLHpGE+CQ5b9yIkpySuggggAACCCCAAAKHBCo8AOpjenTq8Jy+JvipEyH5mHR1na09NemANErbLO+tjJBbLzheOrcKlNen/iltw5rLX6GTJSb5NPHZPFHatMmQNfsaSPiv86XXNQ1lddzjctA/VFJSUqVBixayMiZO+jcNkBxz7hy9kPn4mjFATV9Qe92y+ichMDhIGjVvaE+n312P62zf3s/97td8A6C7tkZL2sFUadmxhUnT95W9O/ZJZN1aEhgcKPH79ktAoOkRGxokG1dtltDwUGnetqlNhYpqEGXT+jet2WLrtGjXzDzP4WED9AY0bWrDX5skyAwH0LRV4yP2ez+zXi8mOlbadm1t70X3J8QmSnpautRvUs+7uuzduU9CQoOlZu2aR+xjAwIIIIAAAgggcCwKaNBzya/LZMncZR6Pp8FP3a5F910990YpaSB03vcL5NGrn5SH37tfThttJuw8VPTc+unUp6PcNfp+iYisKcPP9+wJmmHGtd/w10Zp2qap7TGaejBNDiQckHqN6zqnOeJb0+u1DZ5psq3qN6lvs6ycSulmYtF9u2OkcYtGHm1IHUc+cX+Sq72r9fNrQzrn4RsBBBBAAAEEEKhMAp6Rswq4M/+gIPELCLCTHunldZxODYCGRdaSgzmhUjc0W75ftkW++/NviYlJkMUbN0vs/kBpXusb2ZKSI74RKbJy3UHJNsG72rUCZeGGvRK/e7dEJ2XKjNmL5Nflm2R7rBlnVM9tz3/oGmYlqHaU3V5ef3Rs0IioCI/T6xic/2pznozqfJFcMfhaObnhmTJ78ly5csh1snrx37auptM/Mu4JGdlptFx20jh56a5X7PZrT71Z3n/qIzmt+TkyduA1ckH3f8tFfS6THZt2uq4x8fVv5IyWI+XWkXfKeWbMJx33afPfW1373Re2b9whF/W+VE5vMUJuOONWGVr/dPnkhc9tlRW//WWOvcg0oJPdD5GU5FS7fdWfazy2s4IAAggggAACCByrAuOG3WB7eDrBT+3lqZ8lmQvk6geukLdmviJvznzZBj7VwAZCh90omhZfnPLDZz/J2Zee6RH8dD9u0L9Osr1Cf/hsumuzBj7vvniCDKpzitx8znjTpjxDbh91t0x+7zt54PJHXfW8F75+a7KM6nqx6OSY159+q3z34fceVb56Y5KM6HCh/DHrT4/tL939mrww/mW7rbA2pMdBrCCAAAIIIIAAAv+wwJw5c+Shhx464qoVHgANCAuzAdDc9HTXzWlHTU1RD63TRPq1qicJ79ws+587Ry7vHSkdQ30kONhPViwJNSnwoZKRESlJ8f6ye3uQZGdny3k9G4vPsp8lcc7DErzoG7n7xFCpHxboOrevv7/kpqfZMUcD6x3Zu9FVsYQLOgGSzrKpH230Pn/H/2Tb+u1yxphTXWdaNn+FjL/gXhlz62iZEzNdZu+bLs9OfEIeu/Ypid6+x1VPF375dq5cescYW+epLx5z7XvvyY/k2oevkp93TZNv//5CateLtOlSWiFp/wF55pYX5d5Xx8v3mybJ95snyegbz5emrRu7jncW4s2g+BpQ7WV6Ffy45Vv5aft38vhHD8m75vyT35sqA848Ueo0qCNTPpjmHGK/Z37ziw3qHj+8n8d2VhBAAAEEEEAAgWNRQIOf2gvTKRro1KCnftyLtv/c62kv0OKWJb8ul75DehdaXfdrWzJHh4oyZfyF98n29Tvki2Ufy8zd38ss84moHWHaoHlByvxO9uNnM+S521+SZ0z7s8/gXjbgOmPiTI+qMybOkobNG8jPX/3i2q4v9Wd9O9vUP0WKakO6DmIBAQQQQAABBBCoIIGHH35YhgwZ4nH1Cg+AhtapmzcpkQlKJu/c4bo5H5PGXad9R2mcFi1BuVslI8tHYpZPl8iWHWXgCW2kzSUvy8iBZ0udmAgZM/4u6X/prSJ+gdKwZqhMWrFLFu9tJWl+NeRgfIYEh4fZyY9M/rsdXzQ3KUn8goIlsAx7gK5bvl7O7/Zv+7l6+I3y6UtfSo/+3aReo8PpR/rGXd/uj77+PJPeHmxTj7RxPOGNu23auuvhzULrTi3l/GvOFZ1QSdPhndJrQA8ZddUIu71p6yZyoTnXUtNo1nQlLTqEgKYoadHUJx1Dyv14u8P8mW1S8zX16danb5Da9WvbFCeduEnrT3p7ik2Fv8iMQTXx1a9dDW09dsr70+wzaNo+BQEEEEAAAQQQONYFbE/PQynu+qxXm56dGhR1endqarzTQ9R7pnOnx2hhRppGHrcnTtp1b1NYNWnTpbXNzInevle0B+ZCk1X08rTn7DBJeqAOTTThrbvtkEb5nWjOd/Pkkav/K499+KD0P+14W+VUk26/bN4Ke33d8H/2zgM+imoL4196JQkkJCEQepPeq0LoRUAUaYKIiAUFRQQrSLEriCCKYMXKA6UrSA9deu+9E9JDenv3XJx1sySQBAKb5Lu/t0y7c+fOf9aXs9+cIimaJJz+rS9fxZqFwUhJTtH9tq3ZgeSkFDzQudktbUh9Av8hARIgARIgARIggXtEICgoCGPHjoV4gpqLoPb3aD6myzoXKwaPkqUQFhaKi2pylQcMVGLg9TfbyanpyvBKhoubLzo98QaW/DIeQf1HKa/PZLROO4kj6z6DbaUUBPw0BlVeGoTDVwKw6cABeKrcmU2qV0LI/s1wLlNZsn0qsU8Jdup/SWfOAPHxsPf3h7Ovn2ket7tSu1ktfBc83TSMeIL+PuN6iJF4Y0puz90b92DkpJdMfYwVeaNvKSjKeJk1y4JKdVQ/8QQIVR6dJcuWwJBxT2OMCnsST9FOqmLoQwMf1AKn5Vh7Nu2DvfKGfbP/2AyHrkXF4rASc0VQFbF2+tiZqqDTRgR1e0Ab23u37NeeohlO4gYJkAAJkAAJkAAJFFACImJqEbTFLlPhI9knuT4za9I3J02ieYoH+ODwrqMoW6VMlqce2XNM5/gsUdoPUjCpQvXykNzw5k1ebjdq01CNdcR8N8Y+9R62r92B16eNRJtHgkzH5IV7efVZOW+tfgm+QnmDSpSPfCQH/T+qAJOIpSvmrkKr7i20PZsdG9J0Aa6QAAmQAAmQAAmQQB4QkBB38fK8VTNE0DVr1ui0mLfqn6fHbZQnYeVHeuocoMfm/Ao7KYakt6RekQ0SYqLh6VsCtbo9BFfHorh8ROUjUlXdD/89HgnF/RBX8z0kuV3ClY2fID2lJXbsP4CRfTuilksU4gPrqqTujnocERjtHJ0QvWi+zjPqWbce7IsUybN7EwP2xQ+eV2H5adi0/B99HSdVKMnw1DS/sLxRl8JF5s1WeXJm1rxVtXvzZmcvvFT79/wnX3tch7P3HPKICqNXxqzK8XlZeQpYNhc3Fy2Mtu7eEuafbk90xgSVgF8KK7m4OePhp7ph9rS5+vTFs/5CY2VU+yvDm40ESIAESIAESIAECgsBw5PTPM+nCJ3mYe5aJFU5QXPTJHR+2+rtNz1VvDAlEkhs2qxsShkgSRWxtGz1W9RRKZFKYd3iDSavTqOPFF0ywuCXq7D3do+20bZz2x6ttfApXqCrVb76jr2vF2fKjg1pjM0lCZAACZAACZAACVgLAeUTee9bua4PwcnDA9dOHUfMqZP/VpxUxZCUJ2iamxfS41SRJCXIeZYogfjYSETH34+Aas5IeGAgwmPPoEjzxxHnXApuRevizPkLsIm4DBdvf5w7uBmpKSnKUBQPUCUoqjD7+FXL9Hrg4xnzNuUFBTFA5SOVOKXVVSHxa1T4kWULXrL+BgHUsk9OtsWTQMLnf9z8DYoVL4rgJRtuOL1By3qQsH3xEujYt/0NHyNsvs8LPXU1+6N7j+PPn5eh+6CuN4zFHSRAAiRAAiRAAiRQUAlIrk9D6DR5gyqhU/aJ6CmiqBRDkibh8EbLLE+occxy+WD/jlii7KwlPy61PKS3V/6xRkUWzUeXxzvpbUmzJGHwJw6czNBfCiNtXr41wz7Z0FE9f0/BqcNn8Ea/t5V9nGrq0753W+zdvF95iO5Ux09DCi5Ja6+qza9VKZM2/LUJ9g72+iW47M+uDSl92UiABEiABEiABEggLwiIB6g4Emb1kRB4aUFBQRDvT2lWIYA6Kk/MMp26wMHBCZc3rtNvtsUDMTndFmcSlG6ZGo8FW48gOuQK/p4/D8/MXIn9jr3QqOpJtA7qiFINNuOnI1WxdPN2BPgWR8Ku1XAvXRmuZe9TMNK0P6mIoAn79gDK4POoXRdu1appAHfqHymCdOLgKdNn5e+rMfqJCXBQHqhN2zXWl+k/oq8OP/pw2CRtsIZeCsMfXy/QyepNnpy3MSExZqWC/A6VpypZpQnYqyq5S4V4v1I3FnuSUPqajatrIzhYeQNIfzGkxw5611SNXqbiF+irQ6XeUqHy0kdC4dlIgARIgARIgARIoDARENHPKHokIqiR/9PkGZpL4dNg2KxDE0z4fowujDlxxBRs+nsLJDfoPyu3YeobX2L0gPF444uRKgy9pT5FbLteQ3rghc4vK5FyPaLCorB/60FdDT70cqgxbIalhMt/tXwqju5ROT4HjEOailKSJimUqje8D+MHvw+Zh5uHm95fvWE1FPEsooomTYV4g4ptLi27NqTuzH9IgARIgARIgARI4C4TMMLjzcVPmcI9zwFqcCjf5SGcnDsHp5csQtUnnlQh3TaIUXkoDxw8AKew81i5fhJc0+wRejkW9l5nMGVfOFYcSUPzEsvxxc8pCE1NgX3MZrgnhuOr+u0RO/lrlRszAVv3n0LrZnWQqjxAY4NXK+9PW/h17/FvkL1x9dtfijdlr9r9TQMV8XJHtQb3Yfqyz+BT4nrYermqZfHlsimY8voXGNDsaSQlJqFqncraGH2z33V12jRALlZCVQL9gzsOY9bEX7QKXrlWJTyvKsZnJlo6uThhysJPIEb2x8M/RciFq3BW+8Sw9iuZUTDt91IfPNH8aTw+4jHtAZCLqfEUEiABEiABEiABEsj3BEQENcRPEUWlGSKoIZDm9iY7KE9Md093FXGzFOOUGCmFkSSqR8LeP/ztnRvsuVenvAyxNz97dZp+4e3l44muAx7Eg/3EmzRzT1IpkDljxecY3Pp5jBk4Ae/88LYWNiUM/pOXP8ML7z6bYfrtlBeo2JUd+14Pf5eDObEhMwzGDRIgARIgARIgARK4CwRE+AwODjZ5fhqXVMXWLZJPGkfu9lJN46+eDyFy717cP+VLBHbshEn/W4J562cjLjwNTdveB3vHNKQmpsLRU4W0J9tDKsUnXnFF9OkYuBQrjriIEBQLrIgkVeToXHgMog9tV8KoF94ZMQDNK/vhZK/usHNzRcO/1sDO/frb7bt9m8b1xJsyJTlV59k09t2ppXiCxsbE6UT52R1TPAekeqhOFWBxkngUPPnAs/h9/6+mSqMWXbhJAiRAAiRAAiRAAveUgNg+bqpwT0FpIoBaFjnK6t6iI2JyZPdlNU5u9t/MhszNeDyHBEiABEiABEiABPKCgPUIoOru4q+G4O/uD6p8n3ZoP3cBluy8iJk/r0Hbzh64st8dlcu6oWJVX9ir4ymSu0h5daakJsNd5Q+Nj72m3mDbITEpCQf2huDQ2XBULZ2MeX/G4/OPO8PmwzeRdOoUasz4Dh6qABJb9ghci7qGZ9oMRWClQHykvA/YSIAESIAESIAESMAaCRQ0AdQaGXNOJEACJEACJEACJJBfCVhNCLwAdCnui8oDn8KhyRNx4n+/ou2Tz8HDyx4OSEJsKVv4FiuC+iqMPO1fp1XlB4o0XE96mpam1tJSceZyOGzsXdE8qJpK8J6E2k3S4Hf6IM6fPAnfbt0pfubgmzq41fPYu2U/pKL9a1NG5OBMdiUBEiABEiABEiABEiABEiABEiABEiABEiAB6yBgVR6ggiQ1IQFbRg7HlfXBaPLZNHjf3xKpKkl7mhI3bW1t/63alG6iJ1pomip0JH109SclhKak/lvZUhV+TwsLw4nB/eFQxAO1f54LBy8v07lcyZqAJMaf9+0iXbm+QvXyWXfkERIgARIgARIgARKwAgL0ALWCh8ApkAAJkAAJkAAJkICVErA6AVQ4pcTFYePTAxF34Rwe+P4XuJcrrwRQEUHVRwRPLXCai6Dp2itURDsRQ9NVP2lpMTE4NWKoKiOfhBozv4OTfwm9n/+QAAmQAAmQAAmQAAkULAIUQAvW8+TdkAAJkAAJkAAJkMCdJGCVAqjcYFJUFNb376WKHiUgaM4iOHp5agE0VYmb15SwKeHv4hF65cplzcPD0xPuRYr8K5Smw0YdO/nSEMQfPYzaP82Ba9myuh//IQESIAESIAESIAESKHgEKIAWvGfKOyIBEiABEiABEiCBO0XAagVQucHE8HDsm/A24i9fQIPPpsPF318LnJ9OmoQTx07AX21HREagevXq8FQCaZeHHkK68gJNTYjHmQljkKbOrzThA7iWK3eneHEcEiABEiABEiABEiABKyRAAdQKHwqnRAIkQAIkQAIkQAJWQsDWSuaR6TScihVTwuc0lOzQBau7tce1Uye112dZ5c0pxY+ilSdo0aJFsXfvPjz8yCM6P2h6XCyODOwN52I+yvNzNsXPTMlyJwmQAAmQAAmQAAmQAAmQAAmQAAmQAAmQAAkUDgJW7QFqPAIpbhS1fx8uLl0CJx8flOn7OODgoIseJSUnw87OTiX8TEPY30sRd2AffFq1gVejJqoavFUVuTduh0sSIAESIAESIAESIIE7TIAeoHcYKIcjARIgARIgARIggQJEIF8IoOa8rx0/jstLFqDko33g4OurD6UoT9DLc2bDo2YtFLv/AfPuXCcBEiABEiABEiABEigEBCiAFoKHzFskARIgARIgARIggVwSyHcCqNxnekoKEkNDYeviChs7W6Reu6aKJHnB1tk5lxh4GgmQAAmQAAmQAAmQAAmQAAmQAAmQAAmQAAmQQEEkkC8F0IL4IHhPJEACJEACJEACJEACJEACJEACJEACJEACJEACd56AVRdBuvO3yxFJgARIgARIgARIgARIgARIgARIgARIgARIgAQKEwEKoIXpafNeSYAESIAESIAESIAESIAESIAESIAESIAESKCQEaAAWsgeOG+XBEiABEiABEiABEiABEiABEiABEiABEiABAoTAQqghelp815JgARIgARIgARIgARIgARIgARIgARIgARIoJARoABayB44b5cESIAESIAESIAESIAESIAESIAESIAESIAEChMBCqCF6WnzXkmABEiABEiABEiABEiABEiABEiABEiABEigkBGgAFrIHjhvlwRIgARIgARIgARIgARIgARIgARIgARIgAQKEwEKoIXpafNeSYAESIAESIAESIAESIAESIAESIAESIAESKCQEaAAWsgeOG+XBEiABEiABEiABEiABEiABEiABEiABEiABAoTAQqghelp815JgARIgARIgARIgARIgARIgARIgARIgARIoJARsM/L+42NicvL4Tk2CZAACZAACZAACZAACZAACZAACZAACZAACZAACdyUgE26ajftwYMkQAIkQAIkQAIkQAIkQAIkQAIkQAIkQAIkQAIkkE8JMAQ+nz44TpsESIAESIAESIAESIAESIAESIAESIAESIAESODWBCiA3poRe5AACZAACZAACZAACZAACZAACZAACZAACZAACeRTAhRA8+mD47RJgARIgARIgARIgARIgARIgARIgARIgARIgARuTYAC6K0ZsQcJkAAJkAAJkAAJkAAJkAAJkAAJkAAJkAAJkEA+JUABNJ8+OE6bBEiABEiABEiABEiABEiABEiABEiABEiABEjg1gQogN6aEXuQAAmQAAmQAAmQAAmQAAmQAAmQAAmQAAmQAAnkUwIUQPPpg+O0SYAESIAESIAESIAESIAESIAESIAESIAESIAEbk2AAuitGbEHCZAACZAACZAACZAACZAACZAACZAACZAACZBAPiVAATSfPjhOmwRIgARIgARIgARIgARIgARIgARIgARIgARI4NYErFIATU8HzobE4mpUAtLS1AYbCZAACZAACZAACZAACZAACZAACZAACZAACZAACeSCgH0uzsn7U2yAvafC8euqE/D1ckHz6n5oVccfPp7OeX9tXoEESIAESIAESIAESIAESIAESIAESIAESIAESKDAELBJV80a7yYpOQ2jvt6GyJhEONjbIjYhBV5ujqhVvhhK+LgiKTkV3h5O8C7ihMsR8Yi6loQ6lbxRoUQR2NtZpWOrNWLmnEiABEiABEiABEiABEiABEiABEiABEiABEigQBOwTg9QhTwuMQURMQloUNkHzo72cFQiaJrSak9eiMbiLWeRoI7b2NggwNsVr/apheLKO9Tezgbr9l5G67oBBfqh8eZIgARIgARIgARIgAQyEoiNiYNbEdeMO7lFAiRAAiRAAiRAAiRAAoqAVXqAik/qhgNXsHH/FVwKi9Pen25Odijt546Svm5ITUnH2avXEBIej7CYJCQqMVSpoVCR8wiqUwLeno5oV68UvNwd+ZBJgARIgARIgARIgAQKAQEKoIXgIfMWSYAESIAESIAESCCXBKxSALW8l/2nI/DXlnNYrwTRRBX6LnlBSxV3RdXSRZGixM8yAUWw/2Q44lLSsPVQCGJiU+Dt5YyGVYqjff0AVC/rBQeGxVti5TYJkAAJkAAJkAAJFBgCFEALzKPkjZAACZAACZAACZDAHSeQLwTQ3SfCEBmbDHdne50HdKPyDo1NSMa6fSGIV8viShCtWNIDO4+GonoZL7grz8/LV2Ph6uKA3SfCMXlIY5RXuUHZSIAESIAESIAESIAECiYBCqAF87nyrkiABEiABEiABEjgThCw2hyg5jeXmJSG2uWLKvHTSSLdUV55fB4+GwUPdyd0qF8Sa3ZfwrKt52Fra4NjKkeohL5fVKHzje/zhZODLcr6u5sPx3USIAESIAESIAESIAESIAESIAESIAESIAESIIFCQiBflEsPV5XgJRfo5oNX9GNJSU3HP4dDoKoiIVJVf5cq8aN61cBXw5tjVO9a6NAwEOWUx+e6fZfRqGpx2IpqypZrAqkpqTh95AzSUtNyPQZPJAESIAESIAESIAESKLgEzhw9i8T4xIJ7g5ncWWx0LC6cumg6cv7kBci+wtYK4m+Fwvh9LmzfW94vCZBA4SOQLwRQX5XPs1qZoircPQWhkQm6Inw75flZIcADR85FoWuT0rhPHU9RAl1YdAK6Ng3EpOeuh713a1o6z5+q/NFPiEswfbISCv/+30oMfXBEngiJKckpGNLhJayat/aO32/YlXD0qPEYIkMj7/jYd3LAqLAoiOGZLlW0zFpecje7DFdJgARIgARIgARI4LYIiA0jglrE1byxuZISk5GUkHRbc8zq5McaPomDOw5ndTjP9sv9iB2c3SZ2urndntV6ZuOdOnwag1o8h7PHz+nD65ZsxItdR5q6Du08AhuXbdHbd8P+lHvPav7G/pywMd1IDlfy+rdC2OUwXDpz+QYbP4fTzFF38+/z3XiWOZocO5MACZAACeSKQL4Igbf7t4BRgLer8vhMhI8SRO1VuPuG/Zfx0sM1YG933cPTx9MZQbVLaBCpyjv0sTYVULmUZ67A5OSkWRN/wRdjZphOcXV3QfNOTdGxdzsEPdTCtF/uw87ezrR9p1dkbIPVnR7bWseLjojBV+O+xvbgXTh58JQ2jIT//Z2b4dXPRqBocS/NxJz77o17cfH0JXTu18Fab4vzIgESIAESIAESyAcEtgfvRIOW9fRMzddzOnV5mf7Za19g4Q9LTB6ExfyKod+LvdBnaE84uzrjyvkQLPlpKZ5644mcDq/7i/D3UJWeELFq6an58Pb3ztU41nbSwAeeRcc+7TDglceyNbWVf6zBG/3evmXf9eEr4FrENUM/GxVVJjalre2tfUjy2u6XifVtMFBHaWWYpMVG/+F98PInwyz25o9N+b5//tZ0hF4K0xOW/w469W2PZ8YMgm/J4nrftx/MQpfHO8GvlG+e3dTdeJZ5NnkOTAIkQAIkYCJg1QKoVHxftu0CDp2NQM1yRRGXlIq6ytNTWnhMEnq2LA9HlePTvEXFJmGHKoYUFZeEtnVLmh/K0/X76lXBx3Pe09cIuxyOdUs24JVH38Dk+R+jRZfmen/bR1tDPnnR7B3sMe3PT/NiaKsdU8RP8XoVo2TAiMdQt0UdFPF0x6Gdh/Hl2zPxQqfh+Pmf7zRzc+67NuxRgulOCqBW+2Q5MRIgARIgARKwbgIzJnyLme98pydZv2Vd1G9RV2/Luogzhiia3buYOGIK1i5ah9HTX0OTtg0RH5uAzSu34oePftJ2TKnyJbUA+vW73+daAN2wdDMSlcdg1bpVlND6Jwa9PiC707PqfkW83CGf7LYHHmyOxcd/N3XfuW43xg9+HwuPzjHtkxUX9ULdspWtUgZfr/7Ccnem23lp9xsXnP73FKSk/Of9OqrnW+q7Vxe9hz5qdIF7ETfTen5aEaFansuIicPQousDKOLhhn1bD2LG+G+wc/1uLXrL/ch/Ew1b1c9TAfRuPMv89Gw4VxIgARLIrwSsWgA9fzUO3y49qtimY96GM6hUsgjOq+ru/sVctCja44FyCFEh8RHKK3TLwRD0CiqP/afC0aZeAHYeD4OnKoZ0t5qjsxMCylz3PpVlzcbV9R/nYGXMGgJoXEwcosKjUaKMv56WhHLI2/fkxCQcP3ASgRVKwdnFCXHX4uFTwhtXzoUgMiwSlWpWhO2/XrDiIXBkzzF4+Xiarmfco4zn6e0J8YCUaxnjhKs3/edVOFXZyqXhUczD6J5hGRkahYtnLqFijQpwdHJAeEgEHBwdbjAoZdwTytOyeAkf+Jf2yzCGsSHhOMf2HUdgxUB4FC2ijfiYyBj9pla8Dy6dvYyS5QIQE3kNZ4+dRYXq5bVng3G+hBdJPzEyzT03jePGUgROZ1cnfL7kU33Pxv7GbRqiYVB97eEg3My5S1hZpAqVl7CgcyfO61Ps7e31m3wZS/iZNwlFk7B634DicFLPho0ESIAESIAESKBwEhDRc8e6Xdihok7Mm4ifsl+aHHs2eBhyIoSKrbFy3ho8q4TT9r3a6HHEXuv+ZBc8NPBBVQDURnvAhSgPUOlr2C/SUWzOm9lKerB//5n3zUJ0fqwDKteuiG+UaDTw1f4ZPBkN28/d003bPmKnVahWLkv754KKppGcn+WqltFzNL+WYYd6+xdTtt45XIu6huoNq5m6yLWuXgpVNm4F0xxE9A27EgYRe81btLKdxaa1tDslLFrYuKuX3+4e/wmgwujYvhN63oFqLMOGNsZ0cXOGi9t1m132nfVX4ewqmMyw441+Bg+xD4/vP6m9QWW8C6cvomTZgBvGNc4zlub2p7HPWEpufXluYvubN3M7We75hPp9cDOb2/CCNMYQG76Isr3N70XGFPtXbG/xpBS7Vhw3zO3a7MxHriHPPClBnnlZ45I3LDP7rZCWdn0OmdnTYpPLd8GSxco/VqNNjyD0HdbLdI3mHZugWYfG+rnLdypCpeeS5y2/mc4Vv27Xe/sWy+C5K9+fc+qeK8lvHGdHldIrSn3nbG74TXSr77P5bzjxxnZT3sHy3TOazEPYlijtD3FMMb4/bh6uykv3rPpdZZ/hHg1Oct/yu46NBEiABEgg7wlYtQC65VAIklLSULWUB9bvvYwF609rA6WCKnCkKhvpvKDHL0bD2cEOnm6OWL79PMr4uuOY2lfK596/7RSx0lxQC168Ad+8/wP+2P+rfrLivdhYveVf/ONfkL7D3h8C+aP92+dztEgq+TzlD7WT+nw67yNtZI7q9ab+Qy9GYptHgvD+z+P1H1kZUMZ7fsIz2niWa/02ba4SEUvjz5+XKUPPGZL36bmxgzO88Zc/1K/2Ho1je4+ruXooAzVWey4c3nUEtZvVQr+Xeuu5yj+zv/gdP3zysxZI5fqtH26Jd2eNNRlQIny+PegdBC9aDzf1llYMhRbqLXuDoHqQ+Xy1fCpClbHavWpvDBn/NKaP/Vqd66jyNqVi6HvPoe0jrfBc+xcRcvGqzk8lwuhnCz42CcamiagVMdQkz9SK84sziJ9GHzF2iwf46E1z7oNbPa8NEjEG+9S7HkImBqF4W+zfdgjfBU83htBL8QoY2mUE/j67yHSfGTpwgwRIgARIgARIoMATeKbt0AzCp3h5Snv27adM9y7RJeIVKiKoIYTOWPn5Lb1BRcRzc3fVL25Ng/27IsekfTpqKtYsXKdzXRr2i+yff3C2KRRYtrNqIhBtXLYZs3fMQoAS7z55+TP8s3IbmrZvbDpF0jmJfXRU2YTyIlsibFzUvN75foxO7WR0lByXHw6dqEUrEQcdnBzxgbJHzZvYXj9O+kUJO17YvnanEorcsCZkmc6d+ZqyO08eOq1fkicnJWPwmwPR/+W+kFzuYiP+vu8X/RLcGO/tQe+quW7Fyot/avvS2P90m6Ho9XwPFFXX8CimfhuoNmf6H/heec2KHRhy/qoWUyfN+xDl7yurj+fkH+ERHRGtIouO4OrFUIj49vrnI/Ucxf6UFAU3a+b2p9FvtrLNJWRbxE0RBT2V0P3cuKe12C19DDv5pY9ewNQ3vszS5jbGy87SGFNSKfw69X/aweGHDTO0J3C25nNfb/yy9Xu82ustLVCL0OeqvEqfV7Z890FdM0zhZr8VXuszBverFGHyW8W8SSqxTX9vwayNX5vvVgKjmxZuhZN5ygHjv4lls1dg8qvT9H8Tbz85QT1zO33+2zPfQIfebbVjx+vqmofUbxov5eAgkWMDX30cl5UjRmCFkhj81pO6f3a/z+a/4d7oNxbte7bW6SmMScvLAPn+yu88ceKQ74/kXz2kfq+IAJuSlKJfFsjvoT++Xoiv3/teP1/5ffbCO8/iiZH9jKG4JAESIAESuE0Ca9euhXzGjRuXYaSM8eMZDt3bjTT1x3X1bvVmOTEFkvvTWQmhD9TwQ9sGJeHiYq+LIT3/2Sb8uuqE9vaMiU9GpAqLP3ohWjmMpsOv6I1hK3l5R/L2UkQ5+YjR++nIqZDqgbfKM7lKvfH/ZM772ByzBn1euB6ucmD7If0Hc97B37DywhJ0G9gFLz/8qhIX38WYGW8gOHQ5ftgwU3sbzP1qXpa3dWDbQf2m95et32mjc/y3o/UfYwkbkSaeoc+2G6b/GP99dqE2LMXolJCTNQvW3TDust+WY9LvH2Bd2Ap8u3Y6DijB8MdJ18Vc6Tyq91s4e/QcZu/6SY+1ShmqnsU8FYvPM4wlhsxfv/yNr1ZM1ffyzg9v4zNlwAx84Bk82L+jFhsXHZurvU8nvjIlw7nGhuT8lLfPtzI+jf7GcunpBVoEbtSmATZGrdKfObt/Qp9hPbHvn/0Q4de8LZr1pxaaxZOVjQRIgARIgARIoPAREPFTvDyNJqKmCJ/m4qccE/vPvJ94gWa39R/RF9+894NOn7Ri7motkJmfKy+8Z6z4XItXhv0iS0sPQPNzzNclt2j1BvfpqBt5Kd6hV1uIR6hlE7unTvNaWHL8D/x9bjG6KLts9MAJOmpH+koaIXkZ3+/lPlh7dZm2Lz/8ZQLeGjDuhuJKIqTKS+Y/T87DciUYit0pL+vrKZaSg1ReLr/34zh8++GPWPDdYu3hWatpTSyfs8o0LfFCFfFTIqbWqhfsRpOxxRO2vUotNfqr1yDRPyJwfTL8M7z5xSj8eWKevq7YdyJ25batnh+shSkRbz+a/W5uh9HniTgootjor17X7MSeHznpJTXnydoZwhhc7OQ5qu/NbG6jb3aXMqb8Lvh12/fYFLMalWtV0o4N2ZqPEsXFQWHou8+qef+tP69OHo6P1bylOJB5u9lvBXGqkO+cOEwYTcRUcQR5+Kluxi7T8pHB3bT4PKDpYMjvHRGhzdujzz6s7XiJWJuxcprJrhfxU7wvn2urfuNUK4vl6nu8Qv2emnfgN2xcukn/BjHGycn32TgnJ0vJYSr1IOS7vvjY7/p73K/xIP1ba6aas3wHRLD9/M3pOLJboh7ZSIAESIAE7hSB8ePHo1WrVhmGs1oBVP4gPt62Ih5sWhq7T4bjosrpueNYKFYqL09nFTLStJovHm5RFqWKu2H/iXAthK7ceRGrd13Eur0hKhQ+Aqmp6RluNi835I9Wz1r99UdExV+m/E8bkBLqcbPW7tE2+o2yvKmWcAmjPT36SZRWIeSSfF3eCMZGx6Hu/bW1d6eEzEiI/QOdm+u36sY5mS3FQ0FyPYlx0Omx9qhSu5KpOuUaFZ7v6uaCCerNviEkStjR1EUTtZep5XjdVCiW5E2SuYpx3EZ5bIo3gTSphrlJeQR8vmQSylQK1PskfGvMzNd1eJPeYfZP96e66h8Jci/t1BtUeTMvXrCD3xqohU8J3en+ZNcs7088VivVqmA24u2tyvVaKQPlt8/nmgaS0BQRgx8edKNRZurEFRIgARIgARIggQJNQGwpI8RdbvRZJayIKCoen9IkNF62xfvTyAuqD6h/RBTNTnv0me46t6SkMXp3yEdoG/AgXuszWnmrXcnO6TftI16dC75fjO5mItPDyg4TD0UJIzdvIo6+9OELWliVl79ScElCjfdvPaC7/T5zAbo98aB+aS8FacQbT4TeN5RnpIhs5k3sRfESFJFW7FCxO6X/yx8P1XanHJeiob2VF+c85REnrWOftlgx9z8BdM3CYBWyXwnCZ8Xvq03DL5+zUud9NOxX44CNihCLjY7Vm3JdGVuundsmKQB6PveIjja6nXHk+j99+qsSZ19Fy6736zlJuLrklpQclz8qL0jzdjOb27xfTtYfUwJklTqVtTelsM/JfCRfrMxV7Hb5vSLr8mwlas283WzeIkzK+cv+t8J0yrY1O7Tnb3slyFs2SZnw244fUO+BOjoCrVPZ7ngqaEiG/xYtzzG2gxev197LY2e+qQuiyn4R46f9OVlHExr9cvJ9Ns7JyVL+G5LoO1lKCoce6nsccuEqHn22u/4tJTykgJOEzZv/f0xOrsG+JEACJEACNxIICgrC2LFjtReouQhqtQKonaquGFTbHyN71sCPr7XAmMfr4gFV4d1RbY5IfAAAQABJREFU5WvcdiQUS7eex7mQa/BSoe8SDl/WrwgqqByhTva2ynP0Ij6cvRe931uDD37biwRVPCmvm4SLb0tcrz/bkzbo8IeS5UqiR83HMrzptJxH7WY1LXehmG9RbaAYB2RbwrnNw5TkWNW6lRFxNdLodsNSwu9rNa2RYb/MM1Tl2ZEm1dAbt210Q+4oyT+aWahQiy73W4xVU4c/GWNJyLplRVExdBupt/KWzfJeqqh7adKukTaMjb5V6lbSRreEj1g2ufcju49Z7r6tbXkzLQa1vDWWtlwZ4JJ3qZ4qrsRGAiRAAiRAAiRQOAmIiCkiqHyMJvtECK3v0NwU9m4cM/qae4Max262lJfLEhWz8uISfPrHh9rG69twoM5ZeLPzbnVMwoslBH6zWo576j39mfvVfG1zSTEk8yZ2oQhzRhNbspwK55UcjdJ2b9yjvC0bGIdNSylCYx6mLAckX6a5QLln0z5I3vU3+49V6ZfeMn32blYROMqRQEKI2/ZojdMqgkpyX0oTb9B2Pdvoz5YVW02eqOIlK9XAzZuITENUOPmYJ99Br9r9dSi8eJ3eThO7+U40ybMvz0DyV1q25h2a6pQA5jb9zWxuy/Ozu13H7F5yOh9JFWXZJI2XpAeQ52a0m81bhNNeQ3pgtpmzgXgct1fPV4T/zJo4KIyY+KL26P35n2919Jd4EUv6hps1+Y0jKbhE6DVvkmuzqhKBjZaT77NxTk6WjVo3yDAH+f0iLbPfQebPPyfXYF8SIAESKKwEJLxd9KasPuIBKk1C4Q0RNONfBSslZ6/+eFUJ9ESdCsXw0qPV0alJKXRWnxpli+LIOVW8RxVGuhIRjzNXYlGltBeaVC2OjipUPkwVSDpxKQZOFpXi78ZtSu6XFz94XnmhpmHT8n+yvKSlsSgdPYp6ZBAC9ck2gFcWBYyyGlxyIlmOL28axbtWmuTWkbf6mbVrMdffnpsf87HIdWRvNpaTKgJlbgCZnyfJ0i1bUYtiQ/KllXD57DbxNpAUA/IW9U41MXKl4NS8rxfoIRepHwXdB3W58VncqQtyHBIgARIgARIggXxBwPDklPB3I7RdhE5jXW5Ctnckb7zt+xFPQ3kpLLkCRYxc9+eG2xpTwo5rNamhcqqX0Dk5JS+nfCQf44JvF5nsQrmIpa0n+8xtx6zsvWSV39CwL+UcaTbKmcG8uaioIxFEW3dvmeHT7YnOmPDdaC0UyUt/EY1E+JScoJI/tJ0SRcV7r2KN8jrPvIhuIRdCdOSO+fiy/uRrj0PCjXsOeQSr569F7/pP3JYXrRTLuRPNWdnJwifRLPzbGDdR2cki1JkLz5bPwdzmNs7L6dL8XnI6n0znHZ+kvUHl+2G0W81bPHlF4JbQc/kNIikGzD2TjXEyW0pEm6Q7kBoEf/36d2ZdTPuy+p5KB/N7yapfZt9n0+BqxV7Vn5A8rubN2DYXXSX3qHmT3zvScvKbx/x8rpMACZAACdwegYyWye2NladnbzoQgjiVD7SUjyv6t6mITg1LIdDXDa/0rInvlYfoU50qo6jyBt1xNFR7gK7ffwWOjnZoVMXnnglYIvzJRyqgW2OTkHoRZw2PR2OO+7ce1G+pje3sLMVrQcLgjTf2xjmS52fz8q3G5h1bSnqA2ipP1MhH3zB5A5gPLl6jWYWNSVqBGJUnKrMm4UFzZ8zX9yG5WLsO6JxZN+4jARIgARIgARIoJAQk16chdBreoCJ0yj4RPUUUNYRPCYc3WmZ5Qo1j2VkmKM86SQ9k929xF6k6LduG0JKdMeRF8fq/NmkvuuGqsI75Z+w3b2nPTvGszG6rq+y9NWa5OI3zgpesv0EANY4ZywYt6+k8hxIZ1FF5b1p+jBDzjn3aaQF09YJgXa3cL9BXDyGeoMvnrtTROvd3bpahArdxDVmKiCph6z9u/gbFihdF8JLbE5DNx87tugi/4hwhlc0tm4T2i1eiFBC9Wy2n81mrCnBZtjXq+dRoVC1DCi/LPpbb4lH8YL+OOnReIq0k9Zak9cpJkxRVxn8Tcl5mdr38LhEvUcv/ViRv7MmDp0yXy+33uUrtytig/rsyb5IWTMRPCWdnIwESIAESyHsC4gEqLxez+kgIvLSgoCCsWbNGr+cLAfRSWBzK+rujcilP7DsVie+XHYOzoz1a1QmAb1FnbNx3GW3qBaCSqhY/c8T9eL5bNV0ISd50NlAC6N1oUgTphPqDanxWKmNm9BMTdGXMpu1uDHe5G3O61TUk56WEuksoiVScF49KSUQ+vPuoLI3KrMb0K+Wrw1pe6PyyTlIvb+1FSH3poVGqomXGpOVZjZHT/ZJvVN46P9PmBfwuoqXiLwnS1y3ZiAHNnsaIHq/raqaW47ZUofwSaiUG/5XzIRnCaNpJfiP1Q+P1vqpSpTKuLUP6LcfiNgmQAAmQAAmQQMEnIOKdUfRIRFAj/6fJM/Q2hE95WTyo5RAtCkl1dLGhpDL1hGfeV3k107WnphCWVEMBZUvofhLaLUWBJL+nGP5v9Hv7hnyMcs4iVfxIikZmJjJJyHjrh4MyLYYk52bWpFjT9rU78OGwSfplceilMFXRegFmjP/2lrk2W3Rpruchc5X8o1IBXl6ej1VFPuWls9HEPr187jK+++BHnfve2C8547eu3oGlqihnh97tjN2mpYjDUtRHcinK2Hs379OFksRGtYY27P0hmDZ6Bn6e/JuuUH5eVQb/ThWAko9lZfS7Md+czGfB90t09XoJnZd5f/3u97qIkrwAyGl77KVe+rv78+TZqvhRxiry5mNNePoDTB71OQ6qKurR4dGqWOkBTB/3DTYr+71j3/+ef6tuD+gct2LTS6FXWUrhoWJ+RTFc/Q4Rb1M5f+PSzbr4q+S5NVpuv89tHgnS8/pGVXK/dOay/h0165NfdFoGQ8g3rsElCZAACZDA3Scg4qiEwJuLnzIL+7s/lZxf8YoKZbe3s4G3hxNaqbygzav7YtexMKQro7CJWu+gvEHnrj2JJzpUQmxCCqJUwaRHWpTFxdB4VC/jlfML5uIMKYIk+YaMVsTLHdVUtc3pyz6D5NS0xubo7IjJ8z9WlQe/xBejv8Kls5d17lGpNDrx5c/gpI7npL065WVdwEgqussbVsmz03XAg/pN75Kfl+ZkqGz1lTflX/w1WRtki2b9patRivFbtLiXLhAlOYPMw1CMQSUJufyIGTf4Pf0jo776UaNzV6m3tiKo9lIJ86UaoxQBYCMBEiABEiABEiABg4DYD4b4KaKoNEMENQRSo29OlhLW++uUOZg4Yoo+zcnFCZKz8Zd/voN4zRlNCgiJl+n0sV+rSt4VUU69yPZTxX42/f2Pzjnfd1gvo6suSjRfVVfvP7yPaZ/lSvdBXSEvry2LIVn2M7ZFTP1y2RRMef0L/bJZIm6kWM305VMxvNsoo1umS7mnKQs/0ff48fBPdRojZ7WvlQqJ9yv5n0jp7umuiiM1g3gdSsFNo0k+SCmIdPrIGbRQRTktW6gq6CRi2SxVUEhEYal0LoV6gpRAZg1N5vHRb+/ogj4ihErBppqNqitb/CNdxf5uzzEn8xF7e9pb0/HN+z9o0V08P6VKfU7z3Mo9yneosfICFiG982MdsrxtcUT44ZOf8asqtCRCv9j05e8rp35bTdH5PY0TH1PfbxFKu1ToAfEWHv7RUJVLtpUuePThi5MwqtebOp9uSfXy4Pnxz+gaCMa5uf0+i4fpuz+OxZdvz9SirIieUuRp1OThxtBckgAJkAAJ3EMCInwGBwebPD+NqdgoAyHd2LDGpczunyNXsetEGBpV9sGf/5zDM52rwL+YK06r/J5Hz0chURU5ql6uKMoHeGDFjgtoV78klm47j/L+RXTuUGu8L2uck1TvlJyh4n3Qs1Y/nXtKhMHctGgVYi6eBXezSZiLhMVkV3AWY0o8BMQgN29ibM39ah4WH/09UwHVvC/XSYAESIAESIAErINArLIBJEw8PzexZSJCI1Ei0O+mNojYOxL6azTZlqrsmb34Nfrc6aXYUPLiWa6bmyaerh4qv72RFzE3Y2R2jsxJvgt32w7NbC5Z7ZO8+ZIj1TzvZ1Z978b+rOYjKRSk+vqK84t1/tbbfebGvQzr8ooS9j3w7qyxxq4slyKyi1enj7/3DTa7+UmW/00Yx+Sn7rWoWO2kYezLbJnbe4uJvKaLOJnnQs1sfO4jARIgARK49wSs2gM0OSUNc4JPwVXl8nR1skf9Sj7YfzoSl8PjcfyiKm7kaIt4JX42U16gxb1csG7PJZ0XNF7lCvXzckZYzI3Fd+49cuuagYSxePt5Q8JBRPwUQ+fbD2bpZPOSMD+37V4YnVJBMqsqkpndh/xIsBQ/RfyVcBbx/rybPyIymx/3kQAJkAAJkAAJFC4C2bVlzMVPIWS5fTeoidfb7YT7mnu23sn5ihB1L+zQnNyDpf2Zk3Pzom9253O7z1zmvuSnpToN1eyds7J1K1I9Xopg3apl9d+ACOwSmXerltt7y87Yt7o2j5MACZAACdwdAlYtgO47FYFfVp1Em7r+WoyKVqHtSeqtbp2K3pi/8QwaKI/QhpWL6/xIO46EwlMVQapQwgNzg0+ie/Oy2mv07mDMv1f5Wol9axeu10nm5c3nnk37dH6pD34Zf4M4mH/v8tYzl3CqkY++qcOqJMdUD1Wlko0ESIAESIAESIAESIAESOD2CSxTuVunqhRTEVcjMFylcpCctmwkQAIkQAIkcDcJWHUI/Iwlh5XQeVbn8bFX3nqerg7KS9EGPVuWRdEiKjdSBW/YKFp//XMW99f0R0kfN6zZfQm1yxeDi7MdDp2JQr1K1pl/824+5FtdS0KQjKThgaq6esOgepD8oIWp6WJIq7ZBClYVD7g7hbMKE1/eKwmQAAmQAAnkNYGCEAKf14w4PgnkhICExkuhVMmpebu/DaSIkUSaNW3fOEcRWzmZL/uSAAmQAAmQwM0IWK0AmqbytTzz6UacD43LMH8VxQAJjXd3tkeAtytcnOzQrWlpVCzpiQtXVX4XV3uV99MLv687hc6NS8PdxaqdXDPcGzdIgARIgARIgARIgARyR4ACaO648SwSIAESIAESIAESKAwErFYdTEpOU6KmB65GJSBRrUuzV96f95X2wsGzEWjfoCRiVa5P2ff5woOIi0+FqxI7O6gCSBHXkuHj6UzxszB8g3mPJEACJEACJEACJEACJEACJEACJEACJEACJHATAlbrAWrMWYocHVOV3jcdDIHkBD175ZrO+VnG312HxEuVePESjU1IUQWRUtQxIDU1XVWEd0f1skVRVXmDVgn0QFm/IqrKpDEqlyRAAiRAAiRAAiRAAgWJAD1AC9LT5L2QAAmQAAmQAAmQwJ0lYPUCqPntbjtyFUfOR6NmuaKYNGcfLkp4vBI1HVS1R0d7m+ueomYqp6w2vs8HT3WooqvDm4/FdRIgARIgARIgARIggYJDgAJowXmWvBMSIAESIAESIAESuNMErDYEPrMbrVvRB65ODroSfNdmpXXF90NnI3ExLE594lW4fDxCoxJNpzo72uHh5mUofpqIcIUESIAESIAESIAESIAESIAESIAESIAESIAECheBfOUBav5oJPQ9TOUHTUhORXEvZzg52OnDR1S4/Mqdl7D7eBgiY5Pg6eaIz4Y0Zj5Qc3hcJwESIAESIAESIIECRoAeoAXsgfJ2SIAESIAESIAESOAOEsi3AuitGCSo3KFSQOmS8gx1UOHxdSt63+oUHicBEiABEiABEiABEiABEiABEiABEiABEiABEihgBAqsAFrAnhNvhwRIgARIgARIgARIgARIgARIgARIgARIgARIIBcEbHNxDk8hARIgARIgARIgARIgARIgARIgARIgARIgARIggXxBgAJovnhMnCQJkAAJkAAJkAAJkAAJkAAJkAAJkAAJkAAJkEBuCFAAzQ01nkMCJEACJEACJEACJEACJEACJEACJEACJEACJJAvCFAAzRePiZMkARIgARIgARIgARIgARIgARIgARIgARIgARLIDQEKoLmhxnNIgARIgARIgARIgARIgARIgARIgARIgARIgATyBQEKoPniMXGSJEACJEACJEACJEACJEACJEACJEACJEACJEACuSFAATQ31HgOCZAACZAACZAACZAACZAACZAACZAACZAACZBAviBAATRfPCZOkgRIgARIgARIgARIgARIgARIgARIgARIgARIIDcEKIDmhhrPIQESIAESIAESIAESIAESIAESIAESIAESIAESyBcEKIDmi8fESZIACZAACZAACZAACZAACZAACZAACZAACZAACeSGgH1uTsruObExcdntyn4kQAIkQAIkQAIkQAIkQAIkQAIkQAIkQAIkQAIkcMcJ2KSrdsdH5YAkQAIkQAIkQAIkQAIkQAIkQAIkQAIkQAIkQAIkYAUEGAJvBQ+BUyABEiABEiABEiABEiABEiABEiABEiABEiABEsgbAhRA84YrRyUBEiABEiABEiABEiABEiABEiABEiABEiABErACAhRAreAhcAokQAIkQAIkQAIkQAIkQAIkQAIkQAIkQAIkQAJ5Q4ACaN5w5agkQAIkQAIkQAIkQAIkQAIkQAIkQAIkQAIkQAJWQIACqBU8BE6BBEiABEiABEiABEiABEiABEiABEiABEiABEggbwhQAM0brhyVBEiABEiABEiABEiABEiABEiABEiABEiABEjACghQALWCh8ApkAAJkAAJkAAJkAAJkAAJkAAJkAAJkAAJkAAJ5A0BCqB5w5WjkgAJkAAJkAAJkAAJkAAJkAAJkAAJkAAJkAAJWAEBCqBW8BA4BRIgARIgARIgARIgARIgARIgARIgARIgARIggbwhYJ83w97ZUdPT0xESchWx0aew//AeXA69gOj4CKTbJMEG6UhLc0IRJw8UL1oCtarVhLtHefj5B8DOjvrunX0SHI0ESIAESIAESIAESIAESIAESIAESIAESIAE8hcBGyUuplvzlOPjE7B43jQ4FT2C1VfbI8yhDppWXo/dF2vAQQmcF2JL4JX605CYlo6fdj0Jt8QjaOG5HnbRTghq/zJ8fb2t+fY4NxIgARIgARIgARIgARIgARIgARIgARIgARIggTwkYLUeoElJydixYzm2HFyP8OJ1UcnPBa3KncYv+5ugpGso3AN34sDV2nC2T0KqjT1ORFRAir0dSgXY44p9Y8Q5xuPC0omoX64W6tTpCg8P9zzEyKFJgARIgARIgARIgARIgARIgARIgARIgARIgASskYBVxognJ6dg4fx3sDX0CEo3K4J9sUGo7HscPq5X0K7iX7gQVxx7rtSGk0sCPF3SsD2kLqJTXBFzzR/uDpHYfL4J4O6Cwz6PYmVoDFb99SoSEhKskT/nRAIkQAIkQAIkQAIkcAcIxMbE3YFROAQJkAAJkAAJkAAJkEBBJGB1IfDh4ZHYEPwZVsXXQqWK13AwpA6alNqC/WHVkJ4Yj5ruwdi2NRn2scnwcLWBrU06opW9m+qUAqfAeggskwg7VzfsPl8fbcsvwfmYSgi7Eof7ErehRZPhCCxdpiA+R94TCZAACZAACZAACRRqAiKAuhVxLdQMePMkQAIkQAIkQAIkQAKZE7CqEHhJR7pl80xsSKgCV79iOHK1Aqr47ENSShoSzp1D4KVfcTSmPoYPHoIK5UvqO4qOioKLqyvCw2Pw06zZCDu4CAkVHkGyVzyq+pzDrsv1VTh8Gay/5g3HbdPgX+IDODhY1W1n/mS4lwRIgARIgARIgARIgARIgARIgARIgARIgARI4LYJWJUH6MIFv+Fw6jk0bRiKqGtFEZHkg/3nSqH4xT9gH+2PHn1eUNXdi2PNnN/Qrm8/HDl4AMdfGYZak79E2WrVNIywsEjs+GcVth1cjKjKvVHKLw5lPI8jJNYfoedjERgZgr79x6gK8Xa3DY8DkAAJkAAJkAAJkAAJWAcBeoBax3PgLEiABEiABEiABEjAGglYjSvkmdOnEJ+6ENuSP0DcqSPwd7kKL4fzKHV2LQID+uPCosnYcg24uncP6p0/i2e/+gqtSpdEnchInNy/F6WrVoWtrS28vb3QvnMP+JaoigVL3oFvh5rYfakuTsWUQmJyUZT0mYoD+7ehVm2VJ5SNBEiABEiABEiABEiABEiABEiABEiABEiABEigQBOwmiJIR478id+jxqNBqb3Yp/J+HrxaESE7T6FR/aFo36ElfFKS4b94AQKOHUN4YjI6RoQhaut2ONjaIXrSRwiPicnwoOrUrY5+vd/B5S0HEBbliBaB29G/5o+45lMNuw+sztD3bm3ERsfiwqmLd/RyqSmpOH3kDNJS07Ic9/zJC5Brs5EACZAACZAACZAACZDAnSZw5XwIIkOj7vSw2R4v7HIY5MNGAiRAAiRAAiRAAlkRsAoBNDoqBjvPXkTrWrsQVDoYj1ebhTLXlsA2pgIqV7kPO/+Yi/2h4QhRwuflpCScio9XwqcNKrm7Yrs6t0xKEs7s3w9LCbBS5UooFdAbflcXYsfFmghP8ERt//04k5SOw4cOZ8Ukx/tFhEyISzB9shIj1y3ZiBe7jszx+Dc7IexKOHrUeEwZnZFZdhvaeQQ2LtuS5fF7ccCSWUpyyr2YBq9JAiRAAiRAAiRAAvecgKVdZG5XJiUk3fP53WoC7z3/MX6fMS/TbknKfje/H7nXO92+HPs1Zr7z3Z0eluORAAmQAAmQAAkUIAJWEQK/euUCJCjPzD3nGuJUeCBqBGzCmW1XMHbUS9j4ZD+cj4zCA6kpOKLEzzbexbAuLByJyuPxUEws6ngWwQVVJOnSi0OwqVY9DPv+hwyPp0ePbpg4cTMCyh/E3st18NfxzvAtcgh7t/2Eqve9l6FvbjdmTfwFX4yZYTrd1d0FzTs1Rcfe7RD0UAvTfq78R8CSmY2NDXxLFkf7Xm3xzOgn4coqrv/B4hoJkAAJkAAJkIBVEtgevBMNWtbTczNfz+lkLe0i8/MrVCuHOXt+Nt+Vr9aHdx+Ff1ZuM83Zzt4OJcsGoOeQh9HnhZ6wtbMKfwzT/LhCAiRAAiRAAiRQMAnccwE0NTUVaXHBcA98AH6JoSjqehXrtlRCz6BScHZzhZfy6ywWEwVHVbndUYlklxIT0bi5D8IuxKPE+VSEJibB28ERXdsUweLwaKSr52Rj9qxEWLu/WUcsObIdRat4YECdWVh1tDUcr56GeJ56KAH1TrT76lXBx3OuC6phl8OxbskGvPLoG5g8/2O06NL8TlyiwI1hziz+Wjy2rt6OudPn4dzxc5j0x4cF7n55QyRAAiRAAiRAAgWDwIwJ35o8Duu3rIv6LerqbVl/Zswgkyiak7s1t4vMz7O3v+fmuvl0crX+6LMPo//LffS54Sp6acPSzfj63e8RE3kNz779VK7G5EkkQAIkQAIkQAIkkBMC9/yVa2RkNFx9E5CspM4SLhcQUOQcqtktR8nSteDq7o5QvxLwd3KCkxIynVWRIzEB0y4no+w1J5RQ+6NSUlDJzQVn1sSg6agPMoifBojSZavBM3QJApzP42J8CZxPKokQu0qIjgkxutz20tHZCQFlSuhPzcbV8cI7z6JO81oIXrTulmNLaNOBbQcRHXE9j2l8bAJCLly94TwJrT+864jOI5qeLlJv1u3SmcuQfEyWTfIzHdp5BJmFnJ87cR7JSckZTpGQpQunL+l9cn0jh2nopTDs3rgXifGJiIuJg2xLE6N275b9iFZi9K2aObMK1cuj77BeGPreEKxdtN40njFGnBJID2w/pEOojH1paWmQOWcWGiYMJfepeZN9MobM2bIJLwnRklypezbvQ3hIhKmL3P+RPccyvY6pE1dIgARIgARIgAQKNAERPZ9pOxT1HZqbxE+5YRE/d6zbpe99R/AuPNt2mO4nHqE5aeZ2kWFTylIiZMR+u3ox9IbhxF6MuHpjGiSxXcQ+M2+SM17spps1CU8XWzOzMc3PEztP7ElLu9G8j/m6ZzEPBFYopT+1m9XSdnKfoT0xe9pc8256XeZ+4sBJiJ0n7cq5EJMNZticYgefOXpW28+6Uyb/SF+538zsvky6cxcJkAAJkAAJkEABJ3DPXyknJkTjYkJpbI1ugYqehxGZ4Azfy7PhXyIAos6Wf/p5nHl+EMrYO8DPyREn4hPQMLwItl6LQZgqjNStiz9cnGxwIqouGlaqpB/Xpi3r4elTHDuOb8O1xFg8++AziDjrijPn6uDy6fJITneGa6rKAZqa0TC8089ajEhPb88shxXh7u1B7yiRdD3cPNwQpYzJFg82R4OgeghevAFfLZ+qz5VxPhw2CctmL4eEDYmQV6K0P979caw2ii0v8PvMBfh05FRMXTQRfqV89eEY5e069MER2LZmhw4vT1FC54P9O+HVKS/DVgnLco3uVXtj9s5ZqFSzomlIMeTHPf0+VpxfjFCVXF76iMH669T/wcHRAT9smIFTh87gN2XAlq1SGn/+vAwubs5aTHxu7GAMen2AaazsrIj3g7TYa3HwgbcWQl9/bIwWVYWRGLPiXfHBz+M121ceeR1dBnTGgFceyzD8zHe+1WLnzJXTtGj61uPjtLdB0eJeiAqLQpserTDum7dgrzyLpQ3p8BIat22IxT/+pVkMe38IqtWvio9fmoywK2EQAdbB0R6jp7+Gto+2znAtbpAACZAACZAACRRsAiJ8ik1kNPHylGbuvSiCp+ShlH7yeTZ4GGas/DxX3qDGdYzlxmWbMfXNL7H09AJtt8l+eZndu+7jKFO5tLLHZhpdtVD6UGUlLiqbrmKNClpk/PaDWdqWEVFRxMjnxj2N7k92MZ0jduC7z32EFb+v0rZRrLK3ylUpg3Hfjdb2kNHx4plLeL3PGBxSIqmXsnGl3/MTnjEO52gp9q7wEhtL0kdJvvoPh07E1UuhcHZ1go2yT9+e8bqyaT/HhB/GoO79tbV9/OOkX+Dl44Xta3fC3dMNa0KW3XBdsfWebv0CAsoFYOLc9284zh0kQAIkQAIkQAIFl8DatWshn3HjxmW4SdEY72lLT0tAZLIvetz3G56p/RX83S8h8qoDPP8NTa/doAG8p3+HnRUr46Ly73RQ8e17r11DZVeX6/lAQxIxKMwGx9s1QHhUOLbt3obxeyZhxNrXMTd8Kdae2QQ7lVso2cZXVUpPR3KqI6DeGocleyAh/todu3fxlJQ36/IRo1cESHkz3blfhyyvMar3Wzh79Bxm7/oJKy/+iVXq41nMUxt65ieNfmI8dq7fjW+Dv9JG3vqIlUr066SE0Hjzbnp96a/LMemVKfhkzvtaSDU6THplqjZgxUhcc2Upvl79hRIEN+GjFz81umRrKYazeKv+uu17bIpZjcq1rovOsk+8QH/Z+p2e4/hvR+u8qDLvnLT53y7SAmyZSoFaqHymzQvw9iuGxcd+1/NecOi68Ppc+xe1t+bDg7th4fdLMlxCfhAs+WkpHhn8kN4/sueb2kCXOS87sxDfr5+huY8bfD1lgXHyqnlrNLfNMWtUTqpHMfHlz9CkXSMsV+LvigtLMPLT4aj6r0BrnMMlCZAACZAACZBAwSagvT6Vl6fRRNQU4dNc/JRjYv+JN6jR5IVtTppEoezasOeGj+xvpXLKS6SQHDea5NV0dnXWnpiXz14xdmPlH6tRXuUN1eLnF79re2z0V69j7dVlCA5djpGTXsInwyfrl77GSW/0e1u/bP5u3Qxtx6269BdaPRyE5zu+hKN7j+tuEh3znPJuLVetLJafu24bzVW5SZf9tlyLkcZY2V0u+20F/Ev7afFT7mtUrzfRT4XJyzzFXp2obNl3h3yES2cvZxhS5lNSCZt/npynbbQMB9WGvCyXl/4+JXzw8f/eM73stuzHbRIgARIgARIggYJLYPz48WjVqlWGG7znHqAyGxvbNOy41BB2aamwtUlW+qSterv9XybP2vUboNaPv2Huc4NRdts2pKalYIdzKrZ0KIkrpTxh52yDv66txD9Ld+HCkfNIsElC3cquOJGYhuqulVVeUAkXt0Vt321o5/MPIpM8sWWft7rO9dCaDERyuXFk91H0rNVfny1hOfKR3J++AcUzHfGsynO5Sb3pXnZmAbz9vXUfD/VGfszM13XokXGSvGlfMXc1/jwxD36B1705HZ0cMPjNgbqLeai8hI5PePYDvDtrLJp3bGIMoZeN2zTI8Ia+at0qWux7ovnTGP7RUMiY2W2PvdQbVepUvqG7eEPIuNI6PdYeP336q36bX++BOjf0lR2X1L1NfeNLfUze/m9ZsVV7fr715at6X7DKo2prZ4f3lbeneL5KK1HGX8/7kep9sHn5P9qLdeqb03U4vqQckLb+z41IVeH6rZXhLiK0/ECYu/dn5aFaRh+XOb74wfMYooz6Nz4fqb1v5UC7R9uYuElCfvmIsC2h/+KZ0OXxTvp8/kMCJEACJEACJFB4CIh9Y15hXELczXN9Smi8hMCLAGrZZJ9RJMnymOX2qcOnMaLH65a7dUSPpFeSKCGxCQ2RdfncVej8WAedpkdEz/4v99XnLp+zCh37tNPrYou9+cWraNn1ftO4EskSFRGNH1URz64qikZCzlfPD85ga3oULYIh4wbrvOzzvl6I1z9/RXlfroeLuyvGznzTVLhIhMhpf05Gu1L/eZOaLmS2cnz/Cfz1y996T/jVCG2riegpNqs0iV7q9sSD+gW03qH+EcZjlHArOfXNm9hnz49/GsXUC3LLJuHuLz00Cg4qakzyyefEvrUci9skQAIkQAIkQAL5k0BQUBDGjh0LQwRds2aNvpF7L4DaOMDFNhonoyvgeHhF+DqfQFWPH3FNhUB7eRVBWHgYjl85gT0nD+CvhnFIKl8VpTz8ccUrHGmx6ahVSuUPPVIeJYqWwKLTK+Dk64JmnvYITbVDuqoOvyFlC7bv2Q7b1EjsCGmO2vbHUdbrKIrYuMDJ2e2OPU3JZ/Rd8HTTeOIJ+vuMBehR8zFtUDo6K89Tsyb5MyXvpSF+GoekaFOjNg1NIujO4N26nyF+Gv0sl2Ofek+9fd+B16eNRJtHgiwPq/DuRjfsq1q3shb/9v2z32RM39Apkx111L1aNgn1r9W0RobdwiRUhTFl1VJUuJUkvxex+M9flqFZ+8Z476dx2ptBzpEfEyLcGuKnMY4Ysw2D6qvju3U4elsVzr7gu8U656r0ma/WuyqxUvrt3rRXh/x/+fZ/oWHGOBL6v3/rQR36LvtqN6tpHNLLoe8+B/GIWDV/LTr2bofug7roZ5GhEzdIgARIgARIgAQKNAERMUUE3dFil0kIlX0S4p5ZM8LjMzt2s301GlXPYEta9u2gbJEPhn6CVz97GWJDyYvvGSumonTlQPwxc6EWQMUTVGybd5U9JS/RJX9msw6NLYdC8w5N8f7zn+hcnzuVvSU2aWa2ZrMOTbRQKgOI7Sph65ZV2718PFE1kxfj5heV/PAXTl3SuyS8vbSK9Pl27XSIsCtt98Y92jNVb5j907BVfVPIv7E7sHzJTMXPTX//o/K4P6Nzh36/7iudksk4h0sSIAESIAESIIGCRUDC20XgvFWTUHjxBBUR9J6HwDs4FkEJVZwoNcke6Wm2qOp7EnYlKyLkylV9H6kqnHnC8o+wIOxvpLrZIiwmDCdTzyFq+1U4nEmFa1ocmlZoAncfd3gEeqKBTxrC7FwQbuMEe0c7POzbGYH+5VCs+CW4uUVj/YXWWHi6BwKdL8HW3vVWrHJ9XLwNxctQPBE3KU9Fy+akiiZllZQ9KSHR1N3JJet+pk5qpX6LOjqx/DqVOzSzAkeZFQpKT1MpARKTINewUR63YtCKJ6Z5k21JIWDezL1zjf1FVS4mERTNmwiXIm5m1SQZ/lvTX8Xor17DS4rVVpWfNEwVUTKas4uzSlPwHwtjvywTFSMxoKX1eLq7ylm1WofES+En8QyV0Hhprm6u+r5ad28Jy8/4b99C2apldD/5x3L+Ev4uIfOvTRmhw6/6NRqkPRZMJ3CFBEiABEiABEigUBAQwVOahL8boe0idBrrckyLpMkbZTVP2v2dmir7JwmSa1RsHbG9JKql1UMtcVQVaxTBUzxBqze8DyXLloCzsjXFDpNzLJvYUWL3yctisbeyskmv21vO+vSb2a6ZXcP8mpKW6H+7ftSfWRu/xjs/vG0SP6VfVmMnJ6XcYEtKbtDMmgi4Tds3wsXTF5UjwdHMunAfCZAACZAACZBAISaQuQVxF4F4eXkBEfGo7LEVPav9iqJOUTjnGIRLF1SRItV8/fxQzjEQNspIizwdAZs0G0TvC0NqWCwCfIsj/nhdLDy0UFWHt4OTimgv5pyCCFUkyD4pAY4JduhQv70a6ywcKjaAr3sc6pXYidBoP5R1PAQXl+uh53l1uyJkyicmMuaGS0i4toTBS5VL8yZC5eblW027RNiUCpZShfxmTcKGpv89BacOn9Fei5LM3rytU+HkRjVNY/9mFXIuAq0U+xHxr5JKlL/hr03GYb3csGyTzrOUYWcebEhhpbqKiRQrMuYuIV5bVqqweJX7yrxJ5VEp5mSEgAlLKQr195yVOp+VeKga4e7CT/pLAaWOfdvf8DGKRJmPb74u4rB4mEoC/Yef6pYhX5Z5P66TAAmQAAmQAAkUTAKS69MQOk3eoErolH0ieooouuNf4VPC4Y2WWZ5Q41hulhJN1Kp7C0iIu4S/t330el4rCVdv1Lq+Do/X4e/K3pEmIeJiD4koatnkxbF4bYp9VO+B2pnammI3rpq3FvX+zWsq9pakFbJ8WS526smDpywvkaNtsQHXKI9Wyxa8ZP0NAqhlH2O7gsp7+tKHL2DI+GdUGPzIDPlSjT5ckgAJkAAJkAAJFAwC4gEqL3qz+kgIvLSgoCDt/Snr91wAdVSVxOPT6sAxOQGXokujjOdVNKwTgXVb1sj8dHvrodfglGiDouW9UKyqJ0pVD8CgoAGISo3H8YQzCHWKxqXzV/BElRhsiPVAkosrEtQb7YpppRBYIhAHD66FfYlyCIn2x8nwUnjAZz6SQ11QzPvG3EHGNXO6lFyRJ5TxZ3xWKsNy9BMTdA6ipu1uDD0S4a3XkB54ofPLOoRJqlVKyJLkLQq9/F/YuBivA199HENVv5V/rNGhSpLXcuygdyEFj8ybhNNL5fije47jrQHjdO5K4/iFUxe1uChCqiSxl3MlvFsqtUs1d2nte7XBwh/+VJ8lkNyis1Xi/DUL1qHbwAeNYfJ0KVXZZZ5Gni3JVyW5pSSRvVT6FCHzn1Xb8Jyq2C4eD5IqwGiPPN0N879ZhEWqIJJR/EiOGfwmjpiiw+Ql5F7u/5v3f8Dcr+YZp2e6lPsX5vJsRazeo8Lp/Ur5ZdqXO0mABEiABEiABAouAcnjaRQ9EhFUvDClmTxD74DwaWlLGjbl+ZMXTGAlJc/qBcFYp/Jxtu/V1rS/Xc822q6R6uztVY5Pow17fwimjZ6Bnyf/pj1EZazvPvxRf4zq7WI/PjGyXwZb8+COwxgz8B2cO3YevZ/voYcLUoWYivkVxXBlq0r+TrHLNi7djBc6Ds80JN2YQ3aW/Uf01amcPhw2STsHSGHNP75eoAuDWqZCutV4/VSu+sFvPYkXu76iQuL33ao7j5MACZAACZAACRQwAkZ4vLn4Kbdobw332eyBfji7ZhqCGsXhxJVy8PcKwdFiaZg/bzEefqQr/P39MKT6QLg4ueLAnv04XvQ0/khcBTu3NNTwTUNIrB12XN4D77MtMKJqE4QkhKGkmz+aVW+MPfsP4njIbiQH9FWV4O3QoOR2JF+4Av/yj0Lybd6pJkWQetW+XgRJxizi5Y5qDe7D9GWfqSqUmXuavjrlZd3vs1en6TfvkkOp64AH8WC/jljy81LT1Ia99xy8vD3wzXs/4PW+Y5Rgaa+8Duqh7v21TX2MFd+SxVU+qM8xuPXzynCdoEOM5JiEGq1RBvMQJR6K2CpvyZ8b+xQee7G3caoWWuWt/hdjZmLC0x/A3dMdg157XCelN3XKwxURK8d+/SZefuQ1XX1d7m/qoon4RFVjf/vJdyDh7VIE6f5OzTBi4osZEtt36d8Jn6tiSM5uLjfkQDX4zZ72O95/4RP93Gs3rYnhHw/N8m7E6+H4vhOY9tZ0FRaWpPNiSfEBKQjARgIkQAIkQAIkUDgJiAhqiJ9GcSNDBDUE0tySsbQljXHEZpujqq1La9S6gYrasUFxVeG8cq2KRhcEdWuB94Z8DMmZKfaU0YK6PYCPfnsHP3zysxZCJeVRTZVrdPL8j1Se9f9eJEvaJinGKS+hxZtT7FgpYjlz1TRte8l4UhBSCh59+OIkXbE94mqk9jAdoarKW0YQGdfP7rJc1bL4ctkUTHn9Cwxo9jSSVIom8VCVF/tv9rvuwZHdsaTfwFH9VZqnZAzr8gq+XPoZajSqlpPT2ZcESIAESIAESCAfExDhMzg42OT5adyKjXIXTTc27uXy1/+9jzO+1ZBmb4vN51vCITUMHaNGomOXKShTJlBPTQyZj3/4COvs9sImNhGty6oE8GedUMzOEw7JDhjVZhiq1fivEE9kZDQ+nzwIp+8bjjDbylDR87BNd0DryI/x4jMf3MvbveHa0RExkBCmW7VrUddUUneXGwoD3eo847g8bgkpF3HzZi0yNAoiyFpTE+9NMchvpwk/Z1dn2DtkT/sXXlFh0VbH4nYY8FwSIAESIAESKIgEYmPi4FYk7/K753dmkudT8mfeqjK62EoSGn8zR4Hs2pO5YZaclKzy2aeyiFFu4PEcEiABEiABEiCBLAnc8xB4Y2a1q7VB8ZiN2HKhqSpOlIhUJw9s8RqOWT+PxfFjZ3S3mNgYpLur4kbO9gjwUBUjQ+0Rl5SEXpUego9HMVyOCTWGQ0RENKZ/8SauVuqPq7b3afFTWX2oZ/s7GtdoaupnLSvZET9lriJc5jQUyPwexZi9lfgp/a1N/JQ53a74KWPIvWdX/JT+wssaWcjc2EiABEiABEiABEgguwQkr/mtxE8ZS2ylm4mf0ie79qT0zWmT1EwubtcLL+X0XPYnARIgARIgARIggawIWI0AWq1GI9hcdEIlu82QwPRq3jtgV0RVFq/fHP+b+xb27N4BV1d3NK/QCElRcYhAEUQ7OOMh79Y4deEM9tscRkxSHFJU8Z/Dhw7jk4nD4dnIFy4Bzri/1CqV7DQdPilHUUmJrDXrXE8OnxUU7icBEiABEiABEiABEiABEiABEiABEiABEiABEigYBLIXB3wX7lXeJBcv0RhlLn2Dc86VUKXCATikJcJHFYlfW3Y0bLbPwvLFX6Bq7QF4tuoAlPcrg2MXj+Phlg9j8bplKHshEKkRdpj0/gi4BCbhXPXncCXeHe7OoXCxPwnbxDhUuTYNrv49lZDKt8p34ZHyEiRAAiRAAiRAAiRAAiRAAiRAAiRAAiRAAiRwzwlYRQ7QS5euYNe2n+B+aiFC513DlW7+iKrVFRdS6sPTORp7Q+uoUBs7+KYeQInwBYg6G4OA4sXh66U8RFUy97MXLyEmNh42Kud7fGBnnEpvrqLdk+HhGA07JON+v+VI3bMdRX87gCItnZFa+yHUadgXgYGl7/kD4ARIgARIgARIgARIgARunwBzgN4+Q45AAiRAAiRAAiRAAgWVwD0XQM+cOYEDB15DxIzTKB2SqsvSR6jCMyc7FsWBqm/ikqNUqPyvTpOUbHKwS4VtagpSE9WG+p+tkwqad1BSZ4qK6Fd5Ps2bS9xZNA4bg3L/O4fi0l19Lrmp7sMC4ec3HE2atjbvznUSIAESIAESIAESIIF8SIACaD58aJwyCZAACZAACZAACdwlAvc8BD4lORRXL0TC5lFvnFRh8JL/U8Lh06+moMaVKfBOr652OCjhMl2Ll+LxqTRM3U/ETNl/vaXDVomfaeqorTo/Te23SU9FOZfDCI+NRcwL/ohMS1Meo0ogVadcu6ryhSbvVadSAP0XIBckQAIkQAIkQAIkQAIkQAIkQAIkQAIkQAIkUOAI3HMB1N4uHdVrv4xqNVph544d8Pf3x5kzZ1Czug/OqmXrSpVw9MhRVK9RHd7e3tiwYQN8fX0REhKCsmXLonTp0qqipROcnZ2xcMECNG9+P7Zv34YaNWogLDxCjXEOnbrUwaFDh+BfooSqKH8M5cqVg49KLrpz+6IC90B5QyRAAiRAAiRAAiRAAiRAAv9n7y7ApKraOID/twuW7u4SkE7pBgkpCQsVUEDCIKRREGlQ+UBBEIMSkG5Yuru7llxqu/c771nuMNuzsMsG/+MzO3funFu/uzy++94TFKAABShAAQpQgALPBSL2F3++/pUuWVmFYe+ePdi4YSPWrF6DtK6u8PH2hqeXF+7cuaPf02fIgOs3bugWnLnz5NGtRCUheluN/+np6YmjR4/i2rVrWLjwH/3dvn37sGnDBhQpWgjz5s2Dq9rnqv9W4tGjR8iQMaNuTfpKL5IHowAFKEABClCAAhSgAAUoQAEKUIACFKAABV65gM1IVV75Uc0O+PTpLXh7P0KmzLnQsmUzhIQEoGyZN2Brp2aFz5xBtdrMgls3r8DO3gbZs2VWrUHPwMY2DPny5oJrOhfYqXp7d+9AqNquTdtWsFVtWu/fc0epUsVVi9H0qv5pNG/RRLUUzaWOkQ6PHt5XSdRQpEljjwf3r6Jo8SpmZ8NFClCAAhSgAAUoQIGUKBAUGKR6BdmlxFPnOVOAAhSgAAUoQAEKJLJAkk+CdOHcIWzZOBUOjs56PE/T+J1qHE9d1HidetjOZ+N96jFAZVm+fDb+p5UaF1RKaKga91NtJx/Voi56WX2Qj8Z3slmgCpIzZa2Kdh16hFfkTwpQgAIUoAAFKEABClCAAhSgAAUoQAEKUCDVCSR5AjTVifKCKEABClCAAhSgAAUoQAEKUIACFKAABShAgWQjkCzGAE02GjwRClCAAhSgAAUoQAEKUIACFKAABShAAQpQIFUJMAGaqm4nL4YCFKAABShAAQpQgAIUoAAFKEABClCAAhQwF2AC1FyDyxSgAAUoQAEKUIACFKAABShAAQpQgAIUoECqEmACNFXdTl4MBShAAQpQgAIUoAAFKEABClCAAhSgAAUoYC7ABKi5BpcpQAEKUIACFKAABShAAQpQgAIUoAAFKECBVCXABGiqup28GApQgAIUoAAFKEABClCAAhSgAAUoQAEKUMBcgAlQcw0uU4ACFKAABShAAQpQgAIUoAAFKEABClCAAqlKgAnQVHU7eTEUoAAFKEABClCAAhSgAAUoQAEKUIACFKCAuQAToOYaXKYABShAAQpQgAIUoAAFKEABClCAAhSgAAVSlQAToKnqdvJiKEABClCAAhSgAAUoQAEKUIACFKAABShAAXMBW/MPCb3s4+Wb0Lvk/ihAAQpQgAIUoAAFKEABClCAAhSgAAUoQAEKWCxgFaaKxbVZkQIUoAAFKEABClCAAhSgAAUoQAEKUIACFKBAChJgF/gUdLN4qhSgAAUoQAEKUIACFKAABShAAQpQgAIUoED8BJgAjZ8Xa1OAAhSgAAUoQAEKUIACFKAABShAAQpQgAIpSIAJ0BR0s3iqFKAABShAAQpQgAIUoAAFKEABClCAAhSgQPwEmACNnxdrU4ACFKAABShAAQpQgAIUoAAFKEABClCAAilIgAnQFHSzeKoUoAAFKEABClCAAhSgAAUoQAEKUIACFKBA/ASYAI2fF2tTgAIUoAAFKEABClCAAhSgAAUoQAEKUIACKUiACdAUdLN4qhSgAAUoQAEKUIACFKAABShAAQpQgAIUoED8BJgAjZ8Xa1OAAhSgAAUoQAEKUIACFKAABShAAQpQgAIpSIAJ0BR0s3iqFKAABShAAQpQgAIUoAAFKEABClCAAhSgQPwEbONXPWlqh4UEIczvMazTZEXwg3MI8fEAQoNhmyE/bNLlxtNNI2CbpTjsc5WHXbZSSXOSPCoFKEABClCAAhSgAAUoQAEKUIACFKAABSiQ7ASSfQvQsCBf+ByYjYBru1XSMwSwsUfAFTeEeN+HTfp8CA30QfCjK7BNnwfeB+eGA4eFIvjhFUjilIUCFKAABShAAQpQgAIUoAAFKEABClCAAhR4fQWSdwI0LAyebhPhUKg+nN5oA1jbwMY1p0puXlYJ0V0I9XuEMP+nsHZMr1uFutb+CiFPbuLRsu4IdD8E/7OrVIvR86/v3eWVU4ACFKAABShAAQpQgAIUoAAFKEABClDgNRdIlglQadVptN4M9fVAmPe98NukWnbC2lZ1e88F57KdVHJ0AkJU13ibjAXgXLodbNLmgP+lTXAsWBfOZTrAoUAt+J5c8prfYl4+BShAAQpQgAIUSP0CPl6+qf8ieYUUoAAFKEABClCAAi8kkCzHAA2+exw+xxbCsVA9leh8F74nFqtE5yPAyhpOJVsiTZUeqiVoLtjnrqjWAbYZC5ou3kaNE2rtklV/Dry5D1Z2LqbvuEABClCAAhSgAAUoQAEKUIACFKAABShAAQq8XgJWYaokt0sOC/BC4O1j8D2+ULUE9Ydr7YGwVq07rR3Smk41ODhE9Yi3UsOChsHGxhpWVioT+qz4HPkDIaqbvIwTmq7RGATc3A+/U8t0i1Dncl1UHjVZ5n2N0+c7BShAAQpQgAIUoEA8BaQFqEta53huxeoUoAAFKEABClCAAq+DQPJJgEr3dtXCUxc1w7skMZ3eaItQNeO7zPRuZeuAx48fI0OGDLrK2QvXcOHQHthkyYsGtSrD0cFerw8ODtYJUQT7w0omTLqxT40FuhppqvVS3eet4Xd8MdK81T/8OPxJAQpQgAIUoAAFKJAqBJgATRW3kRdBAQpQgAIUoAAFEkUg2YwB6nt8EfzUeJ1havxPlblUs707qKSnI2wzFcKVW3cw7Lux2Oi2w4QQahOEtFs24f5BN9jYPr+Mles3YPbv8+F+/4keLzRUjR/qpLrR26hZ4q1sneB3ZbuaTT7YtB8uUIACFKAABShAAQpQgAIUoAAFKEABClCAAqlX4HnmMImv0bF4c4QGeOPppuEIvHcKdpkL61afclr//PknLt++g4fe3qazDDx/GEU/6YAKbxaE943nM73fVa1ED509h38WLtR1HYs2QdAtNSP8+Q14un4wXCp8qBOjph29wgUfTx+4X72doEcMUUMBXDt/XQ0FoFrQJqPy8O5DyIuFAhSgAAUoQAEKUCBhBBIjlkyYMwOCg4Jx8eQl/f4i+7Q0drx36z6eeDx9kUO88m2uX7iBAL+AV35cHpACFKAABShAgagCSZ4ADQsOgM/RPxF4Y4+e9MixSGPdZd0+V3mE+Psg8OF1NMrhid6VXFE9hxrXSXWVDwkJgVOoF7yPL4PTLTcEmSX/yuVIhwa5gFLWlxHw+C7CrOzgVKa9HkvUpdIncC7RAkF3TyLw1uGoGi+4RpKQ/r7+pldMycgdq3fji7e/esGjRL/Zw3uP0PaNzioQVC1ek1H5ZcSvmD1mbjI6I54KBShAAQpQgAIUSJ4CSRlLJoTI5n+3oXHelvigRndM/mo6rp67hm61euLGpZsW797S2PH7z3/E0lnLot1vZEdJyiZl6VzpI5w5fC4pT4HHpgAFKEABClDgmUCSzwYU8uQ6HPJWgf/FLWqiouWwz1tVTXr0DQK9PXFvxwI1tqcPChfKAt8nT2AfcBL3t93Bkj03sXzLbgwcMhi7zp7Hju590ffjrqhRwAmFgi+j6JuZEOTjgoDLK/DwiT2y13kPjiXeRsAVNzxc8hGs02QJbwmaQL8G8yf+hZ+HzTLtzTmNE2o0rYYmHRuiTqtapvVcoAAFKEABClCAAhRIPQKH3I6gYu3y+oLMl+N7hSk9lvx7+mJ06fsuPvymK4IDg3H7+h01RJWNGn7/1ba1iOwok6RmzZUFjTo0QMfwV7YAAEAASURBVPehH8GZk2TF91eT9SlAAQpQgAKpRiDJE6DSAtT32N+qYWcwnCt8gDC/x2oMUCs8Pb4eB8+cRYX8rrBzTgvPG7dhrxKLvh7nYHv9Lpq2aot5fy9Scx35IeDONTzZ9Q88HueBnYsTfO49RLYypfDo0iWcc/eFjQq+stbugoCrO+BaZyDsspZU3eDVOKMJWEqUL4YfF3+v9/jw7iPsWL0LX7YbjCnLf0StFjUS8EjcFQUoQAEKUIACFKBAUgrMGj3H1NOlQu1yqFCrnP4sy92HdTMlReNzjik1lgwLC8OJvSfx1eS+OuFp72iP/MXy4detP8fn8hOsrrmjn7cfDmw9hCUzl+Gmao066d8fEuw43BEFKEABClCAAilL4NU+lo3Gxi57aaRrMg5pq/eG75EFsFGTHsls8IGF6+Lu7btwKVwHSFMYWd+sjEyFCiBN1kxo0rgyXIMfoXDVGrBVT5dHtSiBJs2rqyRqCNLnzY0cFSoi1KEAnPNUxrWb7vArWEfNq2QHh9yVIMdL6OSnXJa9owNy5suhX6WrlEKvMT3wZo0ycFu5Q76OtQT6B+L0wTPwfOyl6/n5+OO++4Mo20jX+nNHz+txRCXYjK3cUUliGSNJiiwHBgTp5acPn+LskfOxjs8k3YfkOI8fxN6t3lcFlacPndVd//XO+YMCFKAABShAAQqkUgFJenZv0BsV7GqYkp9yqZL8PLzjqL7qw25H0aNBH11PWoTGp7xMLJkQsduj+4/h9cQboaGhuHL2Gm5evhXh9H29fHFy/+kI4296P/VW3dxvQeJSiV1lGxmnVGJWWY48LJR8Pn/sQoR9RDhINB88H3nq2DUoMDyWjaZKhFXmjoVKFUSnPh3Q+/vPsH3lTnjciTg+vaWxrPu1O7h8+oq2kYPdu3kfEr9HLlJP7OKK0yNvx88UoAAFKEABCiS+QJK3ADUu0SZ9PmRoLU+KrfSqoKBAnPJxRvbDh7H9xC0UL14SLQqkU4m7QLjmbYgS6e2QLcgKAQWLYeLB/ZhQOT1cnJ0QapMLm6/74Oyl42hUMgMu+jig7rMxQh2LNTEO90reJRhNlyldjMeSwGl4tzEqSboTLq4ueKoCvFrNa6BinfJwW7UL/9s4XW8r+/mhzySsX7hRdyeSBGmOvNnx3R8jdLeeyAdYOnuFHn9p+sqJyJY7Kz5r3Bf9xveCrD+47bDu/hOsgsjmXZvim2n9Td2T5Djf9RyPTUu3wNbOFj4q0C2gnuCPnDsUJSsUNx1GgsdBnYfhxL5T+rwlIJYWD+P+HBXr9Zp2wAUKUIACFKAABSiQggQk8SnJTaNIK08pPYZ/bKyCJDxl/HOppxOhbn0wa/OMF2oNauw0rlgyIWM3Gc5Jxsw8q8asvHnFXXdlL1A8n45H//31P/z6/e+wd7DTD9XlQf8HX3VRsekmTPnmJ326g7sM1zHl4J++QuV6FdG6eEdsurUKGbNl1N/PVOPD//PTEjg4OUAeyBcvp2L4JWOjjWVlA+lGP+jdYTirHsqnV/G0xKWfj+6u9xXfH9IqVIqPty8yI5NOhFoSy+5evw8/9J6IB3c84OjsoNpoWGP4rEEqzp6B0fOGoVzNsnq/kevZOdjruFh/yR8UoAAFKEABCrxSge3bt0NeI0eOjHDcJG8BGuFsVMtP6f4uJV+ePMhfoRamL96Bmw/V7O9pM2BvQBYEVv4E57zT4sZDL9y/dRMVixVF/169cO6REwILNsI+D3vcC3VQXd89MGbJIbiUrIECudWsSFJk/4lUZBIkmY1dXhL0ygDwMvNjsy6NYzzi1x2/xY0LN7Hw6AJsvr0GW9QrXcZ0Oqgy32joB6NwZOcxzHH7H7bdX4+djzejxftN4efjZ15NL6/7eyMmfTkNExaP1YlUo4LsQ5KYsv22e+t0t6Rd6/Zg/BeTjSqQwFWSmnN3zNL1ttxZi7pt6uDzJn1x4cQlXU8C1u71eyGTCmZXXVyq97Xi7CLY2duhZ6Mv9FN/0w65QAEKUIACFKAABVK4gG71qVp5GkWSmpL4NE9+yncS/0lrUKPIw+H4lBeJJRM6dlu9YJ0ev37DjZU6zsuUPRO6VOkGmeRo9uaf4OaxEcNnD8aMITN1S852Pdpg15PN+jLn7ZyF3U+3oMV7TaNc9u/jF2DVgrUqPv0eG2+G77tgifz6Ib20woxcpDVqT9WStkDJ/Kr+KmxyX40lx//E+n824tD2+LWslX0vn7MSRUoXRr4ieXTy1ZJY9uiu4/i6wxB06f8utj9Q8bOKoSeq+Pq7z8bjzo27plOOrt4Pf43Gt++PjLaVqGlDLlCAAhSgAAUokGgCo0aNQt26dSPsP/EyghEOE/uH6LqJBAQEIJurK6rUro2CZcrg4o0byJkrF278+Rd2ThgL5xvXcGvdWniuXI5rF87j6qyZ2L5mB+wzZsW9R4+QKWdOFC1ZAmlsrOGv9hW5RHfMyHXi81m687Qv01W/ejTsg7+mLdJd4LPmzBLtbmRWzD3qqfKM1ZN0MCaVXDO6YtjsQSpAU8MAPCvy9HvTkq34Zd1UFC1TWOWHrfTT90+GfIhKdSsY1fS7dO0Z3WMcvps/AjWaVI3wndSVp+YyQZMUeeouSVIJCKVFqXTZ2brcLcJxXDOkxWcjP0H1xlWxTD35l+Kmxja1trHBWNXaU1qXSsmRL7vel5fqBrV34369jj8oQAEKUIACFKBAahCQ1p5GF3e5nshd3I2u8dL6U17mRZKilpb4xpKJEbtJ7NdzxCeQ9+x5s6Ft99a6a3u7Hq11XCsTG0mCU3oimZvEdY3S8lNi1yr1K+lYVmJIGTNUWlYeVQ/5Ixe3VTvhlMYZI2YPQYYs6fXXuQrkxE9rpiCurvB3VOw8ffAv+iU9qKQl6vK5q9BTxbRSLI1lpedUyw+a491e7VTrT0d93pLUHva/QRG6uMdUb/CMr0xd5vWB+YMCFKAABShAgVciUKdOHYwYMUK3AjVPgiZ5F/gzZ87hgYcHSqlkZebMmUwYjo6O6NSuLdatWIJH/kE4d8MdhVWr0AfvdMSOe7+gbMtWyIAw2KlxPzOrJOlhlQT1VOMPlS5eHG4HDuFNtT/nIF+07/QenJzCk37Gzj08HuK0mmApS+bMKFnyeddu4/sXeS9bvQzmus00bSotQZfOWoG2pTtjzeVlaoxQe9N3snBs9wnIuETyZN28SIKzsgoOZQxOKUfcjul62fKEJxvN65ovj/j4e/VE/DAGqW5H9d+pY/6VXq7SoHKUdcXLFdVd2E/uP6XHC5Xzie44kgD9Q810L0WC3Sr1K+qu+OY7lC5RlepUUN8fQ4N29cy/4jIFKEABClCAAhRIsQKSxNRJ0FpHTQlOWddDdXGPrhjd46P7LrZ18Y0lj6iYLKFjN+m6bq0aDxhFYkUp1RpVMVbp92JqfVxjxRsbuF+9jYd3H2LX2j3Yt+mAsVq/y4P5Y3tOoEbTahHWS5wsQ0KZn4tUSJ85HYq/GX5OETYw+xCshnSSsUylscOav9ajujr37xeM1ElMqWZpLHts93F8Namv2Z7DF6VRgfns9pbWi7IjrqAABShAAQpQ4IUFpHu7tPKMq0hXeEmCbtu2DUmeAL3/wAMhISF4/PhJhASoXETww9uomOYRQmzUoOpeTyHJ0jEqixvo549tXT9W41RaI52TFR79u0aNHBoGq7AQ1Pz4CZ6ePYymxYJg65QBVj5PoDKgEUzkWBIcybHVfPCJUmT2yy/GfY61f2/AHtUqsk7LtyIcx0FNmhTgFxBhnfEh0P/5ehknKaZ6Rn15r1DrTTUg+z3sUGOHNu/SRI/haf59dAO1h4WGISggUI/F5OjkGONxAtT5yJNvKVLPP4bzlnoSmLJQgAIUoAAFKECB1CRgtOSU7u/GOJ9Gy1DjO/ks3eKlRWhClLhiycSI3WSsTfMiD+alyBBNL1qcnsWQ5dXwAJmfjQdq7Kte69rIp2LmyCW2ODkgmsmHzLfPUyg3vp35jV5V+I2C+Hn4bDy89wjSglSKpbFsTOcQFBgcoQWopfX0wfmDAhSgAAUoQIEkE3j+iDeJTqFM6ZLIly8v8qrZ2yMXW5Vss1UTG4VZ26JVrSpwCHmEIU1DMbSFNYY1DcHQxsHoUV1NJNTMBsObAqPa2KkZyT3x2QddYGMVDGsEICzYN/Ju9bHkmHLsxCySyJSX1xOvKIeRGeKlG7zMKGleJFG5d+Pzp+OS2JRZNM8fv2heLcqydNGZuWEarp67rsfylEHxzcsO1XVdZvU0L3vVU/gQNUGUjA1a/q2y0R5HttmybDskaJUiY1vt23wgylifMkOnTLBkPvaV+bG4TAEKUIACFKAABVKigCQ1jfE8Ta1Bg3brdZL0lKToYfVZinnyM7pxQuN7/bHFkikldpNJkAoUz48Htz3QpFOjKC9jgiJzG4mT928+iMjjg0pMfOXMVfOqsS6/27s9yql9ffveSBixsaWxrGy3TQ0vFbm4rd4ZIQFqab3I++FnClCAAhSgAAVeXEBagEpvj5he0gVeinSHl9afUpI8AZoxY0YULlQADg4O+oTMf9inz45stbshuEATnN2/HffUjO5dpt7APus2WPP4LfSccxeH0RBpG03CLrWuzwIf+AQCp7avxF37ksiuJuVxyv58PE1j33IsOaYcO6GKDFx/WQVkxmvz0q0Y+sFoyCyQ1RpG7DYkx5Sxjzp81ha9mvWHjN0pkwudOnAGfVt9DY+7HqbTkqDxw2/eQ29VTwagl+5GMrnSiG7fQSY8Mi/SnV5mjr9w/JIeeD1UJTeNIttI8CeJVBlYXraVgfNlnCeZwEi2ldk8zY9zRs0COuzDMbh58RY6ft5W76r22zX1E/TezQfoQegl8bl/y0H0VDPNy7ii0n2fhQIUoAAFKEABCqQmgYq1y5smPZIkqMz4LsVo/ZkQic/4xpIpKXaTXlH//b4Kc8bN1+POS2Jzw6LNGNdrQrS/JnVa1VKzx2dAPxUXyyRDEm/uXrcXvZr0M80qH+2G0awc+du3kG74xvislsayXQd00sNLyTii0mDB485D/PvrCj1ZqYyFapSY6s0aNUfH2EY9vlOAAhSgAAUo8GoEjO7x5slPOXKSd4GP8/LVzO2ZnUJRRY1PaVU0C4a0z4o0HkuQyyEbMrVriuAAPyyaPADlc/mhe10bFMqTHdmLFkCOoqq+9fPgJM7jvGQFGbi+Q9mupr2kTZ8GJSuWwMz1U5E5R8RxPo1K30zrD6k39ZufdOtL6T7+9vvNdRf21X+uM6qhz/c9kT6TK377fh4GdRqmgilb1eqgPMrVLGuqYyxkzZUFszbNwCf1PlfJy9EYM2+4/qr/j31UgvW0nqldgshCJQuo5OfH6PxFR2NT3WVfJmKSAFGersu5lX/rTcze8pOe6EgqSpf86SsnYkL/qRj+0Rg9dqhMglSzaXUMmPiFnqDJtEMuUIACFKAABShAgVQkIK06jeSnJEWlGElQ+e5lyovEkpJYTAmxW60WNfD9HyPx+48L8NvYeQgOCoZ0VZcH8dEVGRtUJjz64YtJeiZ2aQAgQwIMUGNyylii8SnSmGDEr0PQ/52BqNqwso6fLYllpdXqL+unYdqgn/F+9U8RqIaNkvFHpbHBkC7hrUrkPCLXk2srVakkZqp6/Vp+HZ9TZV0KUIACFKAABRJAQBKfbm5uppafxi6tVHPRMOND0r6rpquBvrCyd4lwGoGej3BuztfI26wHTt4Pwrxxn8HDMxiX7wWiShFnvJnXHltO++KpTyhK53PEgCkrkCnME+5b5qNghyGwdzVLPoaqMXvUpElWtlFbm0Y4aBJ88HzspWfcjOvQ3mqmdScXpyiTEMW2ncx+KTPAN+pQXzcP9vH0QZp0aWLbBHIcF1cXPeNlbBVlkHlJlLJQgAIUoAAFKECBpBTw8fKFS1rnpDyFJD12SondZLgnGYtfkpyWFPlTxZLY1ZJ9RVfHklhWZp4PDgpRMXj4mPjR7UfWST3pam+MnR9TPa6nAAUoQAEKUODVCySLBGio3xP4nV2pogY/OBRvDtt0EccDDfb1hrW9AwID/bFn+RQsXrwCGVSr0JuPgnH3SQgqFHJEJhXwNnjnfZSu/xGsVZIzyOsxHDJmi9AKNPDGPgTc2Av77GXgULj+q9dOoiOaJ0CT6BR4WApQgAIUoAAFKJCoAq97AjRRcblzClCAAhSgAAUokMIFkkUX+ICb+2GTJjvsspVAWFDUSYtsncNbGDra2qFu52EIzlwFS+ZORasKnggNs4Lb7exo98lAlK/8fPxJG4eIT5WldWngnWMIC1FPnR9dgQNenwRoCv8d5elTgAIUoAAFKEABClCAAhSgAAUoQAEKUOCFBZJFC1A5e0l8Pt04DA4F66hu8GnhWKiOrNYlNCgQd/dtRNq8hWBj5wgrO3tYqaSo+7FVsHXMgBxv1EWot0qGqvFAg/194XffHZnLvQXzJKgkQP0uboBDnir6WLaZChu7T/Xvbqt2oWiZwqZxPFP9BfMCKUABClCAAhR47QTYAvS1u+W8YApQgAIUoAAFKGCxQLJoASpnG+J1D45FGsGhwFvw2jEZjgXfAqxswi/EygrBvirBGRKC+/4BuPvgForlyop85VrpMSrv37iOx2o8IWs1YVIuV3v4PbwTseu7+xH92T5nOQQ/OA+HQnUtBkoNFWW2SxYKUIACFKAABShAAQpQgAIUoAAFKEABCryOAsmmBaianQh+51Yj4OIWOJfrjMAb+2GbrZRqCaqSlSqx6eN+BQ9P70eavEVh5eCM4zceII1rOrVZKLyePkXFwjkRosYK9Xa/BNf8pZCuUCmEBfvD79QyOJVuD7/j/yDo7mm4NhyhWpC+vgPkv46/5LxmClCAAhSgAAVSvwBbgKb+e8wrpAAFKEABClCAAi8qkHwSoGZX4HtiMeyyFFeJSjVbu7Xq7q5agNpkyIeAxw/gc+8G0hVQyc2QYDx58gROjg6wtbFVXeGd8fTKKThnzQ3HjFkR6H5YzfbuCJlgScb8tMtaAva5K+pkqtmhuEgBClCAAhSgAAUokAoEmABNBTeRl0ABClCAAhSgAAUSSSBZJkCDVJd12DrA/8IGOJduh4CbB9QYn/fh/GZnWDuoCZGsped+mHpZPX9XLUilpaiUsEAfBFzdAcdiTdWHMATePqISoCVVQjXixEi6Mn9QgAIUoAAFKEABCqR4ASZAU/wt5AVQgAIUoAAFKECBRBMIzxgm2u5fbMd2Od9Uw3/awalUG1i7ZEHIU3ekqdIdPgd/w5N1g1VSM1Qt/65agQbB/9IWNamRH/wvb1Wrg/QBrVTyNMTTHb4nlyDo/lnY56rA5OeL3QpuRQEKUIACFKAABShAAQpQgAIUoAAFKECBFC2QbCZBiqCoWnLaZi6qVwV7XFCTFtVRCc07apZ3TzVJUk3Vvf0IQtWs8aHe9xDq46ESoYE6wRmskp22WUro5KlLpU/U9kYr0Qh75wcKUIACFKAABShAAQpQgAIUoAAFKEABClDgNRFIll3go7MP9XuM4IeXYeOqJjt6dBWwc1RTxwer2ePdVQtQfzgWro/AW4dgn686rJ0yRLcLrqMABShAAQpQgAIUoAAFKEABClCAAhSgAAVeM4EUkwB9ze4LL5cCFKAABShAAQpQgAIUoAAFKEABClCAAhRIAIFkOQZoAlwXd0EBClCAAhSgAAUoQAEKUIACFKAABShAAQpQAEyA8peAAhSgAAUoQAEKUIACFKAABShAAQpQgAIUSLUCTICm2lvLC6MABShAAQpQgAIUoAAFKEABClCAAhSgAAWYAOXvAAUoQAEKUIACFKAABShAAQpQgAIUoAAFKJBqBZgATbW3lhdGAQpQgAIUoAAFKEABClCAAhSgAAUoQAEKMAHK3wEKUIACFKAABShAAQpQgAIUoAAFKEABClAg1QowAZpqby0vjAIUoAAFKEABClCAAhSgAAUoQAEKUIACFGAClL8DFKAABShAAQpQgAIUoAAFKEABClCAAhSgQKoVYAI01d5aXhgFKEABClCAAhSgAAUoQAEKUIACFKAABSjABCh/ByhAAQpQgAIUoAAFKEABClCAAhSgAAUoQIFUK2CbmFfm4+WbmLvnvilAAQpQgAIUoAAFKEABClCAAhSgAAUoQAEKxCpgFaZKrDX4JQUoQAEKUIACFKAABShAAQpQgAIUoAAFKECBFCrALvAp9MbxtClAAQpQgAIUoAAFKEABClCAAhSgAAUoQIG4BZgAjduINShAAQpQgAIUoAAFKEABClCAAhSgAAUoQIEUKsAEaAq9cTxtClCAAhSgAAUoQAEKUIACFKAABShAAQpQIG4BJkDjNmINClCAAhSgAAUoQAEKUIACFKAABShAAQpQIIUKMAGaQm8cT5sCFKAABShAAQpQgAIUoAAFKEABClCAAhSIW4AJ0LiNWIMCFKAABShAAQpQgAIUoAAFKEABClCAAhRIoQJMgKbQG8fTpgAFKEABClCAAhSgAAUoQAEKUIACFKAABeIWYAI0biPWoAAFKEABClCAAhSgAAUoQAEKUIACFKAABVKoABOgKfTG8bQpQAEKUIACFKAABShAAQpQgAIUoAAFKECBuAVs466SPGoEBAbj3JW72HPkMnYeuogrtzzwy8jO2HXoEv5ZfQCd366C3l3rwsoKCAsLU+9qgYUCFKAABShAAQpQgAIUoAAFKEABClCAAhR4rQVSRAL02NmbGDBuCa7c9ICPX4C+YTY21vDxDYR/YBAu3XiAM5dum27k4EnLdTI0d/YMpnVcoAAFKEABClCAAhSgAAUoQAEKUIACFKAABV4/gWTdBd7bNwDjZq3D2z1/xskL7ghQyc5SRXIig6tzrHfq6JmbaPTRVLgduBBrPX5JAQpQgAIUoAAFKEABClCAAhSgAAUoQAEKpG6BZJsADQkNw8eD52PKvM3wDwjSSc9FU7tjw5y+KFogW5x35cFjb+w/cS3OeqxAAQpQgAIUoAAFKJDyBXy8fFP+RfAKKEABClCAAhSgAAUSRSBZdoEPDApB/7GLsXX/eX3RPTrWwjfdG8PVxREhIaGI7+iet+8/QbZMrpBu8ywUoAAFKEABClCAAhSgAAUoQAEKUIACFKDA6yOQLDOCq7Yex+J1h2BjbY2hnzXDd/1b6eTni96W9TtO63FCX3R7bkcBClCAAhSgAAUoQAEKUIACFKAABShAAQqkTIFklwA9f/Uevhy/VGu2rFcW3VXrT5nV3fRS3/j6B8VL2091of94yHzTBErx2piVKUABClCAAhSgAAUoQAEKUIACFKAABShAgRQrkOy6wC9ae1DN7h4+0/uWfefwRotREXFVMtTTxz/e3dklsbrW7RTaN6kQcX/8RAEKUIACFKAABShAAQpQgAIUoAAFKEABCqRagWTXAnTznnMmbE9vP0R5qeTni5YNu8686KavdLtbV9zh4+nzSo+Zkg7m+cgTd2/cS0mnzHOlAAUoQAEKUIACKUrgZePRl90+RWHxZJOFwPULNxDgF96QJlmcEE+CAhSgAAWSlUCySoDeefAUF1RLTUcHO0we3AFLpveI8vpn8ifInT1DvBDTuDjAysoKh05ei9d2llYOCQ6Bv6+/6RWqJmp6mdK72QDsXr/vZXbxQtvKect1RFdCQ+P+ToYpeBVlxe+rMfKT71/FoXgMClCAAhSgAAUokKgCgf6BphjSPJ40Xw4OCk7Uc4hu5y8bj77s9tGdU0Kve/rwKSRR+6pi2IQ+/xfdn/w+fda4L7Ys2/6iu4h1O/F0v3objx88ibVeQn/ZudJHOHM4vDHNhkWb0bv5ALzs32UJfY7cHwUoQAEKJJ1AskqAbj9wASEq0ebsZI9W9cuiTuWiUV51qxRD7mzp4yVWvEB22NvZ4Pb9p7j30Cte21pSef7Ev1AjXX3Tq3bmRhjUeRi2/7fDks3jrDNn3Hzcu3U/znovW+HquWv6GuTpaeTy97RF+rvje09G/gpr/lyPpvlbM8CIIsMVFKAABShAAQqkZoFDbkdMl2e+bFppwUKnih+aYkjzeNJ8ecaQmRbs6fWtInGyxMuWFM/HXvix72R0ePM91M/RHK2KdUCtjA0xuMvwV56ws+R8E6uOja1NhCHF1v29Ecd2n3ipw0mjkElfTkftzI3Rsmh7NMjZHA1zv415Py4wNbKIz716mZOxsbGGXCMLBShAAQpQwBBIVgnQY2dv6vPKkSUd0ro4GucY5T04mhaWIaHS+jC8BaK09pQSrP4nLCVzhjSwUwlQeRp56XriJBJLlC+GVZeW6tcv66chT6Hc+LLdYOxYvVufw8v8+PW7319JArRQqYLIXTAX3FbtinK621Qy19bONtqkrtSv2aw6g4woalxBAQpQgAIUoEBqFJg1eg4q2NVAjwZ90L1Bb8hnYzm+idCZG6aZYkiJJYuXK4au/d6NsO7jwR+kRsYEuyZJqkm8HFeR5Ke0fDx14AzeH9AZ/11Ygm3312Pi0nG4fe0OejXt91o80JeY/qc1k1GnVS0T2eo/1+HoruOmzy+yMHHANGz+dyuGzhyIbffWYe2V5eg1pgdWzF0Nj7sP9S4tvVcvcnzzbRq0q4dp/02AtUqEslCAAhSgAAVEIFlNguT1bHzP6+4P0eSTaSphGc1NUiuPn7+lu7Sbf7tuxym1zXRYqf/OXbmjv5q1cAe27T+vE6F+z2aO91XdjBKj2Ds6IGe+HHrX8l66Sikc2XkMbit3oFaLGlEO+VAFARIIFCldOMb/MXs/9cZjjyc6cXvv5n3czHJL7ydT1oxwTuts2qevGitVWm8WKlkAjs4RE8eP7j+Gnb0d0qRz0V18vJ5463oOTg6m7c0X6rR8SyVAd+L9LzubVkv3lRN7T+H9r7pg2/Lt6PtDL9N30m1r36b9GDV3mGmdLMg4nTdVl6IibxSCvaM9nng8hbW1FVwzuurA8s6Nu8hVICfk3C+fvoIsOTIje95sEfZhfJBjXDx1GfmL5oWLq4uxOsq7n/r9uXL2KgqrRG7k67tz/S4yZc+EoIBAXFLHkwR1xqzhQylI15iLJy8hW+5sSJ85XYT9Gn6Ozg64dOqKds9XJI+uExQYhPPHLiJLzsxq26wRtuMHClCAAhSgAAVSl4AkOQ/vOIrDbkcjXFiFWuX0elkp3/Vw64MKtcuh+7BuqFi7fIS60X3ImitLhNX2aiiotBnSmuLKCF+qD7HFkDcv30L2PNl07GdsJ13pH6p4MFf+8DjVWC9jJV5S8VXeInmRNn0a+Hr56rgsc45MRhX9Lt2lJVazc7DXsVjkhJI0MLh48rKOvfKoB+mRv49rezlIbLGYcTIx1fG48xD3VQJUzkOu3ygSj0duASgJTonpZqyeDOc0TkZVVKlfCZXqVMDDe4+inH9s3kac6OLqjGvnbyh3Wx1jGjsW08tnrup15jGmubXE+E8ePonwN4G0pDx//KKOS42/L2Sfcs/k7weJoc2LdOUXZ4l1xcmSOFti43SZ0ulzvnvznm6h+UT93WEY2tjYICQkJML1GMeU4wWo+Nz8d1f8Ny/bhh7q975Rh/q6qsT9rT9qgVYfNtd/u1l6r9xVMtrfxw8FSuRXfz9YQ4wyZEmv/6YwzkHepZ6YFCieL8rfhmL8VP09kiNfdr2JJf82jL8XZAP5t5Ejb3Z9XL0D9UPO/577/Wj/5jLq8J0CFKAABZKvQLJKgLo8S8p5q1ngj5yO2g3bnNFGJdPkf7TPGn3CPyAoyjaS7DRalRrbyviir6pI8CKBhXmRpOiY7j/g1lV3FXg562to3qUJvp7aT/8P3rzu+oWbMOWbn3RAM/yj0SogC+/GMXz2YDTu2ED/T1i62p/Yd0onBuV/9BJwj/tzlOm4Pw+bpQOhCycu6SSfdAdxUscd8/sw1GhazfxwelmeBP89Y7FOWBqBmtvqXSo4zoP3+nfCH5P+0snWAsXz6/oHtx2GXGe1RlX059vX72DQu8Nw9uh5pFfXLk/aP/zmPTVp0V0VQOXCJ99+pAO31sU7ou/4Xpg++BdIoC/Jy3ptauO7+SNMyUtJfA7vNkYlkXfq65N9SUCVv1g+fSzjhwT23743ErvW7dVBigRl9dvWxcjfvtWtVqWePO2v0qASVv2xVp9vn7Gf6dYVM0f8in9+WqKPKdtJq4uJS8aaAjrx83zsibNHzuPBbQ/UaFIVk5eN1/flv99X6YSoBGUSOE9d8WOUwMw4R75TgAIUoAAFKJByBaSVp3niU5KbUnoM/9h0UdLyc/aYubqekQidtXmGRUlQ005iWYgrhpR4TOKrhUfm62SasSs5l5GfjsWmW6v0KkkYDf1gFHau2aPiK2cdq9VrUwclyhXVMaXEOUaRY/7Yb7KO02Q76S00celYU1Js8cx/8fv4BTppeP/WA92TaNKyH1BQJa6kxLW91IkrFourzuSvp0N6KkkC8N3yH0h1XZafWWiK52TFtfPX9fiQ4mCe/AyvDX0N8lDbKHF5Sz2JE+W4Z9W4k/LgPzgwWCfj/rdxOv799T/8+v3vOs4NVH+nSEvID1RjAinSe+ofFW9Lck7G4ZTGAg7qJfbi/HWHIfpvBImP679TB2NVbC+tNo/tOYFBnYbpVqt6R89+zJvwJySJOe6v0RbH2RIbfz66u7qnBfB+9U8hcbe0jF06e4Xea0PVgnLDok2YqlpRSpxrXr7u8K1u7CHxtFGkB56L+htDksiRi9E7L657JXMg/NB7Ih7c8dCJaiuV/Bw+axAmfzUDo+cNQ7maZfWuI9eT5Lz8/WNexPi3sfPw76m/dexvyb8NMWnYvh4Wz1ymtglWSeEA/TfF6LlDMVC571Z/a9iqJLeTi5M+nvxtwUIBClCAAslPYPv27ZDXyJEjI5xcskqAvtOoHNKldVJtOMO7sEc400gfbG2tUCR/VmTK4IIgFfDBgm3CVLb0jcIRn5hG2u0Lf5QknARWUh7efaRbUcpYmkP/N9C0z5P7T6Nvy6/QbdAHaN+zjU7qSWJt0LtDVWDph5FzvjXVlYV2PdroV1WXOpi1+SeUqfqG6XtJ1nWv3wtFyhTGqotLdQtEeWr5wxeT0LPRF/ht2y96/7LByvlr8G7v9piyfLxuIfqbCsaGfjgaK88v0U/8TTtVC2WrlYaranWwa90etHivqf5KWrHWbV1LP4UuV6Os6ga/UwV3+cO/U8FFpXoVdSApT8F7qq5g5Wq9iWkrJ+pkpAyAPlBdn7SU7DE8/I8F2VAmVVr881JMUl2OajSppgPuIV1HqATr3/h06Ed63193/BYP3B9g4dEFkFaX0qp06sCfMfeHPyJYfNV+iA4+/z74uw7Mz6nk69jPJ+iJkiShapQt6qn0hMVjUa1hZX18CdhXLVir1n2Pyuoa7qtjSRAuwc+CfXNMwfHW5W4YNONLNO/aVD8ll1YQK+auwtITf+nWn/KE/qJKMEvwykIBClCAAhSgQOoSkOSnbuX5rOVnTElNSTSa15OH0glV4htDxnZcGaJJWkz+c3iejufkAfOkr6apZN5svNW8eoRNl89ZiW+m9UfTTo1VYuuhjq++6zkeszbN0InTCf2mqqTdD2q7GjqOkkSkPPA2SmzbSx1LYrG46khyUBoDdK/fG7ufbjEOHeX9kLo/Er9mzJYxyneRV8THe/WCdZAhCrqqhgLSGGGUSjZ3qdJNxdOumK3id+kVtu6fjRj58feoqhJmxd4sqg93+tBZHUcuO/MPMmfLhFkqed6/zTcqnnTAsFmDdeJTJvTp1/prLPnfMnTq0yHyacb42ZI429hYktri1qtZf52s/2jge8ZXunHGQtVQwDwBKpNGSXJ46Kznf+MYG3Qd0Anj+0yCNLxo0rGhbmxhnmyO7V5J93tJ/H4x7nPdalR6cx3ZcQzfvPstnj70NA6hu+lHV2/IeyN0EtdU8QUX/p6+WHfhl0SoXMeAdwaidYmO+j6uOLcI6VSrVvm3MuyjMVit/gZj/P+C0NyMAhSgQCILjBo1Cm5ubti2bZvpSMlqUJTyJfPCVXVHSZvGMe6X6upto54K2qqXpdvI5EkZ0j3vOm5SSICF88cuoH2ZrvrVo2Ef/KUmDXqzRhlkzfm8W9PSWctVC8YGkMAiTbo0uqtGyQrFMUONwSMtEyWBaGmRVpnSIlQCCaP7tTxFlgSfl+o6v3fjftOunNR4qtJtXbqpSHJTgjTpXn/qwGlTHWNBui291ayGGrt0l14lT573bT6Ius/GCKrT6i39lF2+lBa4O9bsMn0nXeeldemI2UNM3UWki85Pa6ZEm59uqbrESMAsxxSr+u/Uxe71e/Vxb1y6iT3qKfCM1ZN08lNWSjeaYbMH6e5XupL6IUnm/er8JEEpAZwUacUpwZPM/ujj6aPXyY+G7dREVaoFpxxPnqJLy89Phnyogzp5Mi2OX03uq586H1WBnVFkaIH2Pd/RCVEZTkDGiApVXYJ8VdJaSrGyRUzJYmMbvlOAAhSgAAUokDoEpLXn4R1HTRcTeaxP6RovSVJp/Skv82LeatR8fXyXEyqGNOImiT2Nh9kSG0qvmXxqqKHIpfxbb6Ltp611DCTDB3Xs1U4npaSVohQr1SPLiLUkzuz4edsI3e/j2t6SWMySOpHPO7rP8rC6SJlC0X0VZV18vMWv54hPdIwtwzm17d5aJ4Pb9Wit41vphi+NCqQ7tfnvkRxUHvrnLZxH9yiS1qE+nr66laP0eJLtJHkqcfmh7c8n24pysjGsiC3OjmGTKKu79OuIXWv36mG0jC9XzV8Lua9y3pFLO3Xtv279Wf++fPfZeD0JkjSEuHvjXuSqUT5Ly9OWHzTHu+p3TIb0kthcHiIM+9+g8F5/z7aIqd7gGV/pBg5RdhzPFZXrVUDTzo303wryd1rdVrX1/ew58lM99ID8DSdDhcnQCFefNX6J5yFYnQIUoAAFElmgTp06GDFihG4FWrduXdPRklULUAfVpWDhmgO4eO0+ZNn62WRGprM1W5DxYEoXy429Ry9jwpyNkK7tcbUbbVCjBD58J+KTbbNdvtRi2eplMNdtpmkf0hp06awVaFu6M9ZcXqafDkrQM2DCF6Y6xoIEnDIukzxNbaC6bltSZF9V6leMMraRdCeXMYwOqyemMvi3lCoNKuvuN8Z+pVt+AdWNXLqXRFekG/ww1TVKuutIIlWedJasWEJXle+kG4p0B5ftZSycWiqJKUVmjqxYp7xOMOoVz35IV/riz552m6+v1aKm+UeUrV4aW1ds1+tkX5LQlLGMzIsEQ5VVNxxp5SlFugLJeKi/DJ9tXk0vy++IdOUxuqfI/o0iLVMlcNm1do8aw/SAsVq/y5Nq2a8xRIDcW/MinlVVK9K2pTrp65UgqVnnxhECfvP6XKYABShAAQpQIOUKSBJTJ0FrHTUlOGWdjPUZXTG6x0f33YuusySGNB5Wx3aMoyq+KvxGQdPDc6OuxFeV6lZQk25GTFRFHsf+TRUTSetCD9XNWWLXz1RSSFrCSe+cpioWkrEezVtYxra9ymrFGYvlV2M7WhqvGdcS03tx1cV/weR/Yvo6wnpLvI2YXXoRmY97KseRYgwPZey4mFov4+obRcaiN1qDyjr5LF3wI28n+9u4OOaWrcb+Ir/HFmdHrhvTZ4nF5fdi0c//4stJX+h7L72neo/pGdMmOukrDRtkrHz5dyK/G50qfYjlpxdGGWvffCfHdh/HV5P6mq/Sy3J8iemNYmk9o3583yP7y32TRhLGsA6yP2l0IonvJ2b3M77HYX0KUIACFHg5AeneLq084yrSFV6SoNISNFklQOXE61crjsvXH+Dbns3QtPbzLt/RXVS2zK7Ye+yy/mrR1E+RM2v66KqZ1sU2s7ypUgItyDiV0gpx7d8bsEclEWVyIUcnRz2uT3SH8Ffj7jipp52WFtmX/7On75G3CfAPiBBgZI6mq488VdZjqEbeWH2W7jkhagD1Q9sPY7vq/l777bdMA4vLQOxFVbd7aYEqSdA3Kpc0JSkdVJcdo0VA5N3KQOmRS+TzsjU7p9j2FaiuzyjOLs466KzXuraxyvQu6yRwNop58GRYl1cTF0Q+D9kun9k4ozJ5k3mRJLO0tJUktwSks0bNwYo5q/D7zlnm1bhMAQpQgAIUoEAqETBackr3d2OcT6NlqPGdfJYxQaVFaEIXS2JIaY0piTiZYNK8yGcZA15KGvXQ2Pvp894x5vV8vKKuz6S6ZpsXiR91kXH4VZFeTa1Ujx4ZZmjlvDV6HPkFe34zTWwZ2/aWxGKW1NEnYsEPaU0o3fdlyCPzyXui29QSb2M7GfPevEgyWUq6jBHXm9eRZekib9Q1fac2Ta8aHsRUpAeTNFCQ8V5N90JVlntszBVgbBs5vjWPs406lrx36dsRg9UwVZ+N+hQn1VAD0s1fxiWNq0ivKWkwIAnipgVa615j0sIzphJT7B+kxlU1/5vF0nrmx7Hk34ZRP32miH9Pyu2UxiAsFKAABSiQ8gWeP05LJtfSqUVl2NnZ4M+V+xGg/gcvIURML/NTzqWSn/lzZYr1lSl9zDOIm+8roZYlUScvrydeepcV1NiYMjti5CKtHR8/eKyfmEb+Tj5LC0cvNT6TeZExpvZtPmDqdmR8J+NkysRE8v2LFul2IklQGfty59o9pi7uxv6kFeh2NcbTDtXlXZaNIk97pTt65MBbZl28ombAjE+RfUk3eBlv07zIAO17Nz5vsSmmcs0yO3yTTo2ivIzhAcz3IcvSOkG6fkkSN7rtSpQvFnmTKJ8lyS1/7Py5f65uaRr5XKNswBUUoAAFKEABCqQ4AUlqGuN5SrJTJz6Ddptmepek6GH1WYp58lO2k1dCFEtiSHnQW+SNQrp3i/kxd63fY5o1XCaRkQkrpdeRefF64q2HPDJfZ+mytFyUoYL+2PsbMmbJoB+SW7KtJbGYJXXkWC4qVpakYOQY1Pw8pMu2jHX/lRoDVa43cpHJjIyu2pZ4R97+VXwuWqaIbmwQuUu8DBuVO9LM8PE9HzGUiT8jl+pq+KgsOTLr4bpkXgEZD1bG57S0SIMNnbB9NplrTPeqnIr9t6mJTyMXt9U7IyRALa1nvh9L/m2Y1+cyBShAAQokfwFpASoPyGJ6SRd4KXXq1DGNA5rsEqAlC+XAiN4tcOHaPdR5fzKqdRwf7atGpwk4eCJ+SbXEvIUyCdJlleQzXpuXblUzbI6GzEpYrWEVfWgZGPz0wTMY/ek4yMQ5j1T3IZnpXQY87z60m2nSosjnWVe1Hl2hZhy/pwasl4BV3mu/XVMHs72bD9DjAkkScP+Wg+ipJvCRMTClm/jLFElsyrikoaolqHRrNy/y3YGth/TA4NKy1SiyPmO2DOjX6ms9QLmck8yWKGOiyjik8SmSuOzwWVs9IPt2FQzJpE/Snb2v2re/n79pVxIYyyzzEwdM0xMTSUArY6nKrI8yYHxsRVroykzuc8bNh7sa11OCZhk3dFyvCbFtpsdB+vW733Hl7DU9K6q0epCn8BlU0M9CAQpQgAIUoEDqE6hYu7wpmSlJUJnxXYrR+jOxEp+GpKUxpIwd+Z9qifnfvNW6peNCNeHkthU70FJ1TZciQwt1G/S+ij0HqlnKV+jeLDtW79axmiQA41MkqSWzoEt3cenufGLvSchD75gePke3b0tiMUvqSFftnKpLvsysLvG1xI4Sw0YuMra8xGwykaiM8ylxuzwMFwOZCX1A20F6O0u9I+8/sT+nTZ9Gt6r8WQ39JDOhS2OBKV+roanUsFRNOjV8qcPXaVkLbspNHujLSyZqlSKtVDt90QF/TV2ohqpyQ5tPWkZ7HGmk0K32Z/oeSIwssbuc4+juY1XX+TDUbFpNbxfTvRJz6X32g5pESY4vw2zJ76gMvWXe2jWmetIjS1qdxlTi+rcR03ZcTwEKUIACKU/A6B5vnvyUq0gWXeCDPe7jyb8L4dqsFezz5MP7LStj/75z+G/POdiqLjud3q4MB9Xlw7zI/4xj6/J++eYDHD19U29St0xu6C44qmuQ38nj8DmwB5k//lz+j26+y5dalkmQOpTtatqHBCgybubM9VOROUd49yEZPH72lp/0/8hlpkrpQiLjMElLgthmduzc710d3LQo1BbZ8mRFv/G99Vih09VM6xP6T8VwNfaSJEVlPJqaTatjwMQvIoz5aTqpeCzIgOsSOEqwIt1tzIt0gc+WK6tK7tpBWkEaRcbOlAmPZCZ6mZ1RxjmS8aE+H9Vdjw9q1LP0XWYdFcep3/ykA2pxbNe9jR4gXQJ7o/T5vifSZ3LFwp+WYqxKXsrvhjzh7/djb6NKtO8yLtX3f4zE7z8u0AlTCfzlHslA9rEVsd787zbdykNmfpTWqjKTvLSAYKEABShAAQpQIPUKSItOI/kpSVEpRhI0oVp7RqdnaQwpD4Xlga7MUi0P3GXClm6qm7p51+NeY3pAxoOXLus/9p2iJrPJjXc+bYUbF2/hscfj6A4f7ToPNZa6zFI+f+JfuvWFtE78XHWTNn84Hu2GZisticUsqSO77K/iPklEzxzxqx6uqUCJ/KaJNI1DSo+hn9dO0Q+/V6rJfH7sN0W3TsyQJb2ebEhiaBlGwFJvY7+v8v3HRd+rGeW/w6BOQ/W9llh74pKxpkmtXvRcjAYOH9T4VMf+0qrX6BHVomsTnewurBLN8ndATKVem9r4e9pi3TBB6khLURk39i/VW0p+54wS3b2Snlm/rJ+GaYN+1snowIBAPYfA/zZOx5Au4a14ZPvI9SR+L1WpJGaqev1afm0cIsq7Jf82omzEFRSgAAUokCIFJPEZeQZ4uRAr1Vw0LMmvKCwUVzu1RIi3FzJ90B0uVWvCa9k/6H4mHXaduIJSRXJgwYRuyK7G/DTGMDLO+cdfN+hJkA79OwT5VBf4wKAQnL54Gx8M/B33H3mjX7tq+Nh7H9L3HIDHf86F55b1cHqjDHL9MMPYRZK8ywDyfipAlUDM0iIJU+kOH12Rlo+SLEwuRX6tZIyphDonS69PZreXLvyRk7ZxuchT62DVkkGSuJYWafUr/3ri27rV0v2zHgUoQAEKUIAClgv4qDhJutem9mJpDPnE42mEMeGjc5F9Sfdgeegt4zS27tZSTWwU+4PgyPuRlqBiL5PCvEyxJBazpE5s8XLk85NksdQ3GitE/l4+W+od3baJuU7umbenz0u7Rz5HiW/tVQ8284mdfNRxWpd8F71Gd1e/I29H3iTKZ3F97PEEOfJki7CfyBVjulfSojhY/U0XV4wt9eT3T2L/+BRL/m3EZ3+sSwEKUIACKUMgeSRAldXNPt0QcFVNaKRa7/lnywGne7eBYmXwd7pK+Hn9abg42aoJkkqgbePyqFmhkPrsgFCvJ5i2cB++V0nQrQu+xLkrd7Fk/RHsPnxJfe+EoU0K4q1zGxF6/y7802eA08MHkGyva8NmyNp3YMq4QzxLClCAAhSgAAUoQIE4BV6XBGicEHFUkK7JMpGOzDguRZJVy1RX4xnf/g9/H/wd0kWZhQKGgLSwHP/FZNWdfS/+O7841m7mxjZ8pwAFKEABCiRHgWSRAA24fBE3v+wJ1QQPoSpF6afGiXFRT6OlOKRLh4tVW2Hs7ge4dM8TPmog7czpXDC+Y1mUO7kefllyYuwlF2y5/Aj+AcHI4OqEMjlcMaKCE1y2/ovQ4FA9idKjkBBkVINvSwLUNks25P35d1g7W976Up8Mf1CAAhSgAAUoQAEKJEsBJkAtuy3LfvtPDcc0XQ3DVEj11Emrx/CUMRa/ntIvQld5y/bGWqlZYIoahmr5nJV6DM4py8bHOGFrajbgtVGAAhSgQOoRSPIEaFhgIB7OmwWvbRsR4uWJANWn2FYNzWmj05bh0Na2tgjLlBUPilXCHudCKHvnMApeOoi0zdQg3CpZ+njjOpwoXgt++Uuj5NV9yHj9DEKktafq1mMUb7XsrJKqklaVBGjGLh/BtUFT42u+U4ACFKAABShAAQqkYAEmQC2/edKV/MS+U2pCy4tq0qJskJm1ZWJJFgqYC8iY9zI+arkaZWPtym6+DZcpQAEKUIACyVUgyROgBkyovx98dm3HvXUr4X32FBxUV3h79TIfoDRMtQbN/HZLPN24AWlqvgX/U6cQ4qPGvmzYGE+WLkLadu/i0fy5sDEb1lTNewTfkDAEqtafWSpWRqYW78CpbAVYqaQqCwUoQAEKUIACFKBA6hBgAjR13EdeBQUoQAEKUIACFEgMgWSTADUuLjQwAN5qlvbtP3wHlwA/FFCzbIc+S2hKe860zZrBWnVr9zt2BE4Vq8IuQ0b4nTiixw4NLVwUAUsWquajNnp3NiqBesRbDWyeMxcqjx4Px3wFmfg0oPlOAQpQgAIUoAAFUpEAE6Cp6GbyUihAAQpQgAIUoEACCyS7BKhxfUG3ruOkas15bssmZFf5zHyOdrpLu229hrC57Q4rOzvYqcmSQv39YZMuLXyPHUWgtQ1sb91EkGo3etkvEF62DqjYriMKdOgM63TpjV3znQIUoAAFKEABClAglQkwAZrKbigvhwIUoAAFKEABCiSgQLJNgBrX6LPHDUtHDMXtp56omT4NcmbOBBsnRziXK4+wkGBVzRohTx4h8L4HQi+fw7kg4KCnHyoWLIAmk6bDJndeY1d8pwAFKEABClCAAhRIpQJMgKbSG8vLogAFKEABClCAAgkgkOwToHKNgXfccfyv+XBbvlx1fw9Cg2aNkMnHC2EB/lAXAKu0rrhubYedG7bAxdUVDT78CIXfbqNahrLVZwL8jnAXFKAABShAAQpQINkLMAGa7G8RT5ACFKAABShAAQokmUCKSIAaOh4H92PRmBHI+UZp1P92DHxVN/eAoBBkSe+Cvz7sAGdHJ7QZPRbO+QoYm/CdAhSgAAUoQAEKUOA1EGAC9DW4ybxEClCAAhSgAAUo8IICKSoBKtcY7O2Fx2oM0D03A3D87E0UL5gdtSoXRZj7JWQvWVqPDfqCFtyMAhSgAAUoQAEKUIACFKAABShAAQpQgAIUSGUCKS4Bmsr8eTkUoAAFKEABClCAAhSgAAUoQAEKUIACFKBAIgpYJ+K+uWsKUIACFKAABShAAQpQgAIUoAAFKEABClCAAkkqwARokvLz4BSgAAUoQAEKUIACFKAABShAAQpQgAIUoEBiCjABmpi63DcFKEABClCAAhSgAAUoQAEKUIACFKAABSiQpAJMgCYpPw9OAQpQgAIUoAAFKEABClCAAhSgAAUoQAEKJKYAE6CJqct9U4ACFKAABShAAQpQgAIUoAAFKEABClCAAkkqwARokvLz4BSgAAUoQAEKUIACFKAABShAAQpQgAIUoEBiCjABmpi63DcFKEABClCAAhSgAAUoQAEKUIACFKAABSiQpAJMgCYpPw9OAQpQgAIUoAAFKEABClCAAhSgAAUoQAEKJKYAE6CJqct9U4ACFKAABShAAQpQgAIUoAAFKEABClCAAkkqwARokvLz4BSgAAUoQAEKUIACFKAABShAAQpQgAIUoEBiCtgm5s59vHwTc/fcNwUoQAEKUIACFKAABShAAQpQgAIUoAAFKECBWAWswlSJtQa/pAAFKEABClCAAhSgAAUoQAEKUIACFKAABSiQQgXYBT6F3jieNgUoQAEKUIACFKAABShAAQpQgAIUoAAFKBC3ABOgcRuxBgUoQAEKUIACFKAABShAAQpQgAIUoAAFKJBCBZgATaE3jqdNAQpQgAIUoAAFKEABClCAAhSgAAUoQAEKxC3ABGjcRqxBAQpQgAIUoAAFKEABClCAAhSgAAUoQAEKpFABJkBT6I3jaVOAAhSgAAUoQAEKUIACFKAABShAAQpQgAJxCzABGrcRa1CAAhSgAAUoQAEKUIACFKAABShAAQpQgAIpVIAJ0BR643jaFKAABSjn4JlTAAAapUlEQVRAAQpQgAIUoAAFKEABClCAAhSgQNwCTIDGbcQaFKAABShAAQpQgAIUoAAFKEABClCAAhSgQAoVYAI0hd44njYFKEABClCAAhSgAAUoQAEKUIACFKAABSgQtwAToHEbsQYFKEABClCAAhSgAAUoQAEKUIACFKAABSiQQgVsk/t57966WZ/irnXrsHfXrgine8TdXX8unyuXaX21mjVNywMnTDItc4ECFKAABShAAQpQgAIUoAAFKEABClCAAhR4/QSswlRJTpctCU8j2WkkOIsVyonSJfLh3KU7sLGxgbW1DVo3rYM1m/egaoUyyJYlA5at2YLQ0FAUzJsdF67cxMmzV02X1atjR73MhKiJhAsUoAAFKEABClCAAhSgAAUoQAEKUIACFHgtBJJdC9Cd69bil0WL0axeaXzRpDg2bD+D85dvw87ODo3rVsajJz5q2R6Xr7nD2soa5csUwya3vWhWvypu3r6HTBlc1PdWKFYoBzKkc8KV63ew8cA2XLx6HzWbNkWNeg1eixvLi6QABShAAQpQgAKvk4CPly9c0jq/TpfMa6UABShAAQpQgAIUsFAg2SVAYdYedf2207BWLT6lWKlk56SZS6Jc1r7DJ6KskxUliuTC2YvuqFO9GJrWLa0SoFuirceVFKAABShAAQpQgAIUoAAFKEABClCAAhSgQOoVSH4J0GfWa7eeREnb8Dma2jnYouQNd7RxsdffGuvlw5ngUP2S5XaOthjtE6g/l7pxD1Zq++17zuuXfG+WW5WPLBSgAAUoQAEKUIACFKAABShAAQpQgAIUoEAqF0h2CVBJUpZQicuhznYx0oeoYUvPqsSnT48+qFq1GjZNnazfrdTymY7t9fZtHGxw2jcU76jkaVu13MUzIMb98QsKUIACFKAABShAAQpQgAIUoAAFKEABClAgdQokuwSowRxiLJi9W6llSZBK8nN72YpY1H+A/rZatedd42/cuIXGBfPC2F7qG8u6Mn9QgAIUoAAFKEABClCAAhSgAAUoQAEKUIACr41AeB/zZHS5krCUielDwkKjvIKfrZNu79Ly0yhTpkw2FvW7JEhPB4fo/YQ+21eECvyQYgVC1H29dv46QkNCU+w18MQpQAEKUIACFKBAchB4ePch5JVaS6B/oI4bU+v18booQAEKUIACFLBcINklQOXUjVabkuKS1pvGy/j8X2CIKQEqyU955c2bG3v37pXNUa1aNawIUAlQtWzsS3+RSD8kKefv6296MTmXSNBqtw/vPULbNzrjiceTxDsI90wBClCAAhSgAAVekYAk6YKDgmM9WmBAEIICg3D13DV0q9UTNy7djLW+pV/+MuJXzB4zV1eXc/iscV9sWbbd0s3jVU8aOLhfvY3HD15dDHfx1GW0L9PVdJ5Tvp6BGd/+z/SZCxSgAAUoQAEKvD4CyTcBqoKkYN16U1qDhr/ks7TulASnvKTs2xee9DS/ZYsWLTElP0PVkmyvy7M387oJsTx/4l+oka6+6VU7cyMM6jwM2//bkRC7f233se7vjTi2+8Rre/28cApQgAIUoAAFkrfAIbcjphM0XzattGBhbK8J6N9mYIw15UH720XaYvmclbCysoKNrQ2srcND+Hu37mPOuPkxbhvfL2TfNjbP/zyQfcsxXqbI+U/6cjpqZ26MlkXbo0HO5miY+23M+3GBbjwg+07o64jpfOX6bNWLhQIUoAAFKECB10/geYSTTK69VtNmuBASBklcSovPyO+FVMxi3v3dfNn8EorYyIih4S1Az6n9SalZv4F+T4wfJcoXw6pLS/Xrl/XTkKdQbnzZbjB2rN6dGId7Lfa5+s91OLrr+GtxrbxIClCAAhSgAAVSjsCs0XNQwa4GejTog+4NekM+G8vxTYS269EG+zYdwJ3rd6MF2Ll2D7yf+qBZ58bIXywfft36M3IXzKXrSuLw1+9+j3a7+K60tbPFT2smo06rWqZNZd8vmwCdOGAaNv+7FUNnDsS2e+uw9spy9BrTAyvmrobHs+73CXkdppOPZuGLcZ/js1GfRvMNV1GAAhSgAAUokNoFkl0C1ACX1p4y5mfk95DQMKyePsXU3b2/mghJJj6Sl9EqVLrEy9ifkvYMHwM0kZp+Gier3u0dHZAzXw79Kl2llA7s3qxRBm4rd5jVer4o4y2dP3Yh2rEsb16+pbs5Pa8N/YTc/dod0yoJkqU7lI+nD47vPYlH9x/D18sXHnfCx3F6pLqKn9h3Cp6PPE3bRF6Qbc4fv4jQUEk1Py/ShV+6KEnxeuKN0wfPmJ7QG7WkC9bl01cgT/WjK7L+3NHz0XZzCvALMO3ffNunD5/qcaiki5cYyLAC0tVdluUl52te5HpP7j+Nuzfuma/mMgUoQAEKUIACFEhwAUlySrJTEp9Gt3E5SIVa5XB4x1F9vMNuR+OdCH2jckkUfqMg/pu3OtpzlpafTTo2QJp0aXTcKDGRxGoS891XCVDpWm7ESvJuHptJjHfhxCVTrCSfpU5MReJLX28/lXD11vVk3/du3jftX+LLmLaXOO6++4MIu5btNy/bho8Hf4BGHerDNaMrsuXJitYftcDyswt1Ijchr8O43sjnYZyUxJLmXfDlWiTuNC8Sf0YXc0vcfebwuQjby3Zy/qcPnY0SK5vvk8sUoAAFKEABCiS9QLKdBd6UkpPcZXhjTpNWb0crdOzYXn+WxKdRZAxQWV9Ytf7so+rM8A9PgiZ++tM4g4jvEoCmy5QuwsojO49hTPcfcOuqO5zTOOugtXmXJvh6aj/dnUm2aV28IxYemY8ipQubtpWAeuSnY7Hp1iq9TsZoqtKgElb9sVYHun3GfoZMWTPin5+WqNYBebHmz/VwcnHUSdKeIz5Bt0Hvm/Yl40YN7DgUV85eg2uGtDrw+2TIh+jav5OuI0/j5RzkCflMNTaUg5O9GpsqBL2/74kG79RFz0Zf4P7tB5AxqwqVKoipK35EjnzZ9bZy/t/1HI9NS7dAWhL4qCRlAdVaYeTcoShZobiuc2zPCQzqNAzb7q83nZMszJvwJ+7evAc5l/erf6r3f+rAGSydvULXa/FeUx1Ay4eFPy/V9e0d7ODn4496bWrju/kj1Lk66Lr8QQEKUIACFKAABRJKQBKfEosZpfuwbnqxx/CPjVWQlp+SGJV6OhHq1gezNs9AxdrlTXViWmirWoHOVd3Nuw/tBmuzLujSMnLPhn2Yt2u23tSI0SQenPz1dGxTwy3J2J3vlv/AtOvlZxYia64sumv8n1P+UQ+6w1Q8GIg8qtVo3/G90a/V1zgYsNNU33xB4svPR3eH52NPTPnmJ73v4R+NVucU3m18wMQvMLH/FEz9bwKq1K9kvim+7vAtpBGAxKRGkS77LirelTHcIxf5TkpCXYd01ze/3kIlC6j497mLHOvnYbN0F/jBP3+t42dLY+6G7eth8cxlaptglegMQP22dTFaxbYDVTy7e91e2NrbqrjbCeP+HKXjczkWCwUoQAEKUIACSSOwfft2yGvkyJERTiDZtQA1uqmfD3427qdqxyljeEpL0GK9+qPmH4tQc/4i3eKzTf48egIkSXzK69vO4UlR6fgu9eVdEqnSpb50zhwRLjyhP8jTYpmdXF4S9E7+ajquX7iBZl0amw4lrRX7tvwKLT9srrsAbX+wHv/bOF0FTnsw+tNxpnqWLmxRT9QnLB6LvV7b8G6vdnozaa0pT6L/OjBXJxhHzRmqgz1JvEqRJ/cS3JZXrRXWXV2ODTdW4vs/RmLOD3+orkjhyVWpJ0/Q1/61Af/bNB1uHhsxZt5wTFWB8IdvdUfzrk30disvLkHa9Gkw8ctpsokug7sM1y1P5+6YpY+/5c5a1G1TB5836atbIBj1YnuXpOrup1tQuX5FSPJWluU1+KevTJut/2cjJi0dhx0PN2HO9pmqlepZ/DHpb9P3XKAABShAAQpQgAIJIaBbfaq4ySiS1JTEp3nyU76T+E9agxqlQu3ny8a6mN6bdWqket146WSneZ1V89egaJkiKFWxhPlqvTxWJdtmbZoBO3s7U6wk8ZIkPxdM/lu/xi/8Tsecbg82oMPnbTHgnZjHGjU/gHTLl33Jvmdt/sm0/7aftkLTTo2xUD1wNy+3rrhDYs1W3VqYr9bLXQd0wm/fz9NDQ21aslW3MDWvlBDXEd31tu72NiR5mxDl7+mLMWj6l9iuHP/Y+xuOq4f5rUt0hDyIX3FukW6g0LhDAwz7aIx+gJ8Qx+Q+KEABClCAAhR4cYFRo0ahbt26EXaQ7BKgcnZvqGTlRfW0WjpXyxigmSpXQ+0/FqNk7/7IopblJWXajr2QLvArp0/Gb13bo4eDFQqpK5LUp2wXngINwyW1r2o1a+ptEuuHdGeXWSbl1aNhH/w1bRGkC3zWnFlMh1w6a7nq/tMAHw18T3djkiff0ipyhhpvSVpyRu7ibdowhoWG7dTES02q6pYC0trSKNIqoXi5Yjpobdq5EYqVLYLd6/fpr7epLvly3P4/9kbGbBn1tjWaVkNHFRQv+/U/Yxf6vfXHb+tAXgaMlyffBUvk10/LP/n2Q534lC7/rT96G4e2h08AIN2Fti53wy/rpqpgvbA+jrQw/WzkJ6jeuGqU/Uc4WDw/tFRdp95qXkOfvzjXVy1Td6/fG8+9sDoFKEABClCAAhSIXUDiKqOLu9SMPNan0TVeWn+ad42XupIUtaQ4p3VGk3cb6YmOjPryMPq/39egbfdWxiqL3yUOlTE3K9erqGMle0d7SFKzfc93LN5HTBW79OuIXWv3QpKeRlk1fy3Kv/Um8hbOY6wyvbfr3lqPW+qcxgnffTZeT4I08N2hpm75porRLFh6HTHVa92tZTR7jf+qyvUqQGJqibcldq/bqrbu7t9z5KfIVSCnjuvf/7KzHsrpqmoMwUIBClCAAhSgQNIJ1KlTByNGjNCtQM2ToMkyAVpdJSsvq+xniBoDtGSvAairkp9ZnyU9oyMc988S1RWlva6vk57qR7BKekojUPWm91W7afPoNk2wdWWrl9HdiaRL0aHAXfj31N8qIMqFtqU7m54ES/Bco0l48tb8wPmK5kWu/Dn0k3Pz9XEtl61eOkoV6XJfptobEdbLuXnc8dDrju85qbr+2GJI1xH4puO3pteJvadwTiVxZXxOo1RrVMVY1O/FyhVF1YaVdWLT+KJYuSJ6nCjpfnVEXZ+03pSxnSIXSYDK9wlVarWImNAWiwfPrjGhjsH9UIACFKAABShAAUliShJUXkaRdZIINcYDNU90GnXNW4Ma28X2LolOmfDowe3wmO3AlkN48uipTozGtl3k7+SBtPQGkuRn5FJVDZ/0skVivUp1K2DRz//qXUmidtWCtZAWlzEVeVgtvYk2316Nyf/+oMfR7FTpQzXW+9OYNtHjcFpyHYl9vXKC0cXE2XJn1Y0DjAuQ4aDkwf+TB0+MVXynAAUoQAEKUCCRBKR7uzTui+klLUClSFd4IwmaLBOgkqy8ovquSwvQ2BKf+mqe/UhfvBTCWnV41upTWoCGtwSV/Uh5KxFngA8/QsSfMkunzDQZogap37Nxv/7S0ckxQoLRfAt/NZ6mk7MjrKyt9JN6GYDevMhnG7MxoeQ7a+uoty9D5vRR1ksLThmEXoqMTyQtP+u1rh3h1fKDZnosI/NxpzJEGr9UfrHSZUyn9xPdj9iuL8A/AI7q+qTI03MZSN58kH5ZL9dojDEln2MrmdU1mBdbs2s0X89lClCAAhSgAAUo8LICRoJTur8bXdsl0Wksy/7l8+Gg3S98KOm9U/zNolipur1LkcmPpGu8tJyMT3FUrT0l7gtQsWXkEt26yHUs+dylb0c9aZPEbge3HtYTcdZ/p06cm0qXenmYLkNASffxHWt2xbiNpddhab3IB4pPzJ0+U/oIm6uQWMXErhHW8QMFKEABClCAAslbIGoGLRmcr5GsvKQyoEdnTLLojKTD+xVVP02uPLq+jBsq5apKgJZK5PE/9YGi+RGokn7ykjGdpFSo9aaeCTNy1WO7T/y/vTuNjaqKAjh+KggmEDQBA0gxKi5YJChBSKlsIkuaBkVKoVICtIhRlrSgRKNQZdGwSEvYIlg0ISpUCxQkQaQM41Ksgn4wskhAo6DGJVg2N0Dvue19dpkhZaYz3f43Geb1zZv33v0NH27Ou+dc8yT8lE2Z16DmbXd1MalFxZUO+2hnsU2xqbQzhD+0EL+m6/c2heuHm0F11ZcOTENtPfv1sCuD6sryFZvODCjavNfWHdX9WstKZ5q61Hl3bLFJ0481aUSutTLpYFqEn4YAAggggAACCNSVgNb6dIFONxtUA526T4OeGhR1gU9Nh3ctUJ1Q91mw94dNunihqcmuNdv3bvtQdHGkyzUdK+kD5YoPztt2aGtXV/cV+qt91b898OJH1Q4s36Gp+WdOlY1jKx7T15Rgur5jO1vCSQO2Whf0Shai/NOMA/W+m5UvrhROP0Ltb6TH3BW92EYAAQQQQACB2hXQGaD6wDfYS1PgtWk6vM/ns9v1MgCqd6ZBS9+FGDlZ8nHQIOiPJcWyY/06mTcrS74uPSM9u8XJExnp0q1zrJk9WlYDVM/VN6FyurTuq+2miyAdO/iN99r9zh55bsI8ubplC4kfUpZKrkXgdZEiXfBIg4Q6uN258X3JGjnbrvrZqk0re1tDUwabp+o77JP1n0/+Ylc89239wC6eFO59909KsCt06mJF/u0f2RXgdVX47PQF8tX+Q2GdXgegE54cJ9MSs2R3gc+mNx08cFjmTJwv3x89YeuM6gV04SR9+r9q7lpbm1Svn/PUCpvCPjx1iHcPA0f0F78Z/B/76rh9Hfr8iPcZGwgggAACCCCAQLQE9AGyW/RIg6C64rs2b2ZomIFP14/hYx6QUhNwzM5YaOq5325rqrvPAr1rOvoNpozSWyvyvaDpJZN9NHX+Y3YV902rC0RXktdFOpfOXC6+rdWDooHO6/YNGtFPtr623Z5DFznSc2nTrKDUGSnyRu5G2WPOOXJy4Fqbf5tZqOkDHrf3d/zQt1L6W6kd+82b8qJdnf4+U4deW7j9CNbfz3wH7PmD/RPJMXewa7IfAQQQQAABBCIroMFRTYGvGPzUKzaP7GVDP/szC1+StEkT7azOi8uXyD3TZ1U62bsm8KntaHngU7fL5nyKJE7KkI3zs8tDoDEy5+Uc/TiiTWdVpvRI866hQb44s2Lnmp250q5jW7u/c5dYWVu00qwQv0KmDJ5m04VuvesWO3sgdXqK992Js8fbJ/mr5qy1wdLW17aWdLNw0ogJ4dcx1afzywuX2EHw4sxltoD7NWbfIJMS375T9dqd3k3VcEPT/tuYlCBdBOC4CQirgxbF135rbSTXFm9aKM9nLJCnU5+zfdUaqEvfflFu7nqTO0QGPthfPt2zXyYkPGrT5rVwf20U7/cuwAYCCCCAAAIIIHAFAhoEdcFPDYpqc0FQFyC9gtNVO1TLBSU+Mkzy1xTI83nPVvs80A5d2FJnnq7JXmcDpjebRSs1sKcZOBqgXDoz16SbtxCt//nq3jWS1js90GkC7nskc6x9SJ3UZZSt8Z65aJpo7UttSWnDZdWcV+RWE4TVxS+DtftHDpA3l+fbsaceo2PRu019+jdK1ovWrnctnH5U7a869kvsa1Ptk7uPc5eo9h7JMXe1i7EDAQQQQAABBKIioIFPv9/vzfx0F40x00Vd3NDtqzfvOrNzV0G+pDW/KL1mPGlfFW/uqbHJ9s8BQ4d5u1fn5clfp8vSpo+WnpbJo0fL3CgEQL0bqOGGDkr/MHWT3KzPYF/T4vDXtft/cBjsuFD365N4DVjqk/zabmdLz9r+Xe7cOkvh7Olztmh8sOvr7FoduFesTxrsWPYjgAACCCCAQNMUOHfmvGgqdVNt503/NWW9atP9GnTUmvChtkDnPmfGbw/FjZWp86ZcdgEkd01N0z/16+/SsXP7y47pAl1Lz1HTfuhxGgC90nFjpMfczoF3BBBAAAEEEKgbgXodAFWSG2+MlYSrLknWzJnS2wRBq7bMkUkSH99Xzv/ys2zY+Z738d8mCDokOUWy62Hw07tJNhBAAAEEEEAAAQRqRaCpB0BrBbGGJ7nwzwVZNGOZSWffJ4VH8iWcGvI1vCSHIYAAAggggAACYQnU+wDoB0W7bSp87n33ysNvbvE6+8KsTPHvKgt4tmxzrZn1Wep9pjNAv/83Rr777oS3jw0EEEAAAQQQQACBxitAADQ6v23O7JV2hXqdUZqzeZFdxDM6V+YqCCCAAAIIIIBA6AL1dhEk16X+gx+QO2/oICu+POx22fehyWNszU/N3//TBD/13W1r8DNjdFl6fKUv8QcCCCCAAAIIIIAAAgiELNC9TzfJ2bJIin7YQfAzZEW+iAACCCCAAALRFqj3M0AVxM0CTY7vI8s2FXhG2/LWSU7uMjv7s1NMWSnTkkvNpKsJmO76ZL93HBsIIIAAAggggAACjVuAGaCN+/eldwgggAACCCCAQDgCDSIAqh30m1T48WZV+FEmCJpTIQiaNWaUfHHwoDU4blaE79rRBD9LCH6G85+C7yKAAAIIIIAAAg1NgABoQ/vFuF8EEEAAAQQQQCB6AvU+Bd5RDDCp8Btee10K9pVIpgl6uqbB0Lvj4oTgpxPhHQEEEEAAAQQQQAABBBBAAAEEEEAAAQScQIMJgOoNuyDoZhMEnZhwr+3Dlry1dgboHcz8dL8p7wgggAACCCCAAAIIIIAAAggggAACCCBQLtBgUuCr/mJD+vSSIz/+ZHdPMgsevfBybtVD+BsBBBBAAAEEEECgiQiQAt9Efmi6iQACCCCAAAIIhCDQYAOg2te5szJlcGKSnRkaQt/5CgIIIIAAAggggEAjESAA2kh+SLqBAAIIIIAAAghEQKBBB0Aj4MEpEUAAAQQQQAABBBBAAAEEEEAAAQQQQKARCTSoGqCNyJ2uIIAAAggggAACCCCAAAIIIIAAAggggEAUBAiARgGZSyCAAAIIIIAAAggggAACCCCAAAIIIIBA3QgQAK0bd66KAAIIIIAAAggggAACCCCAAAIIIIAAAlEQIAAaBWQugQACCCCAAAIIIIAAAggggAACCCCAAAJ1I/Afc58hVsNiiPsAAAAASUVORK5CYII=;" vertex="1" parent="1">
                    <mxGeometry x="1540" y="320" width="900" height="317.41" as="geometry"/>
                </mxCell>
            </root>
        </mxGraphModel>
    </diagram>
</mxfile>